<?xml version="1.0" encoding="UTF-8" standalone="no"?>
<!-- Created with Inkscape (http://www.inkscape.org/) -->

<svg
   xmlns:dc="http://purl.org/dc/elements/1.1/"
   xmlns:cc="http://creativecommons.org/ns#"
   xmlns:rdf="http://www.w3.org/1999/02/22-rdf-syntax-ns#"
   xmlns:svg="http://www.w3.org/2000/svg"
   xmlns="http://www.w3.org/2000/svg"
   xmlns:sodipodi="http://sodipodi.sourceforge.net/DTD/sodipodi-0.dtd"
   xmlns:inkscape="http://www.inkscape.org/namespaces/inkscape"
   width="744.09448819"
   height="1052.3622047"
   id="svg14267"
   version="1.1"
   inkscape:version="0.48.2 r9819"
   sodipodi:docname="New document 114"
   inkscape:dataloss="true">
  <defs
     id="defs14269">
    <inkscape:path-effect
       effect="spiro"
       id="path-effect14439"
       is_visible="true" />
    <inkscape:path-effect
       effect="spiro"
       id="path-effect14435"
       is_visible="true" />
    <inkscape:path-effect
       effect="spiro"
       id="path-effect14431"
       is_visible="true" />
    <inkscape:path-effect
       effect="spiro"
       id="path-effect14302"
       is_visible="true" />
    <inkscape:path-effect
       effect="spiro"
       id="path-effect14294"
       is_visible="true" />
  </defs>
  <sodipodi:namedview
     id="base"
     pagecolor="#ffffff"
     bordercolor="#666666"
     borderopacity="1.0"
     inkscape:pageopacity="0.0"
     inkscape:pageshadow="2"
     inkscape:zoom="0.35"
     inkscape:cx="293.87472"
     inkscape:cy="520"
     inkscape:document-units="px"
     inkscape:current-layer="layer1"
     showgrid="false"
     inkscape:window-width="968"
     inkscape:window-height="653"
     inkscape:window-x="102"
     inkscape:window-y="101"
     inkscape:window-maximized="0" />
  <metadata
     id="metadata14272">
    <rdf:RDF>
      <cc:Work
         rdf:about="">
        <dc:format>image/svg+xml</dc:format>
        <dc:type
           rdf:resource="http://purl.org/dc/dcmitype/StillImage" />
        <dc:title></dc:title>
      </cc:Work>
    </rdf:RDF>
  </metadata>
  <g
     inkscape:label="Layer 1"
     inkscape:groupmode="layer"
     id="layer1">
    <g
       id="g14382">
      <g
         id="g14976">
        <g
           id="g14964">
          <g
             id="g14413">
            <rect
               style="fill:#000000;fill-opacity:1;stroke:none"
               id="rect14286"
               width="331.42859"
               height="271.42859"
               x="88.571434"
               y="198.07648"
               ry="125.24912" />
            <g
               transform="matrix(0.99645988,0.08406967,-0.08406967,0.99645988,23.147588,-23.440757)"
               id="g14329">
              <g
                 transform="translate(10,0)"
                 id="g14309">
                <path
                   style="fill:#000000;fill-opacity:1;stroke:none"
                   d="m 402.11994,195.71643 c -38.23253,14.90833 -47.06409,62.20727 -39.4277,98.94168 10.70364,59.78115 29.6323,126.76 85.00467,158.82259 41.7877,24.78068 92.1061,15.48325 138.17781,17.59577 -13.67106,-9.4944 -36.59007,-11.91664 -52.35926,-22.47837 -46.70263,-28.52519 -84.53324,-73.3413 -102.18647,-126.30265 -16.01786,-40.69702 -19.19385,-85.20029 -20.34686,-128.69788 -2.48192,-2.31688 -6.0854,1.97866 -8.86219,2.11886 z"
                   id="path14305"
                   inkscape:connector-curvature="0" />
                <rect
                   style="fill:#000000;fill-opacity:1;stroke:none"
                   id="rect14307"
                   width="197.14287"
                   height="37.142857"
                   x="293.71426"
                   y="432.36218"
                   ry="1.4807512" />
              </g>
              <rect
                 ry="1.4807512"
                 y="395.21933"
                 x="337.14285"
                 height="51.42857"
                 width="117.14286"
                 id="rect14313"
                 style="fill:#000000;fill-opacity:1;stroke:none" />
            </g>
          </g>
          <path
             style="fill:none;stroke:#000000;stroke-width:11;stroke-linecap:butt;stroke-linejoin:miter;stroke-miterlimit:4;stroke-opacity:1"
             d="M 40,309.50504 -194.28571,295.21932"
             id="path14429" />
          <path
             style="fill:none;stroke:#000000;stroke-width:11;stroke-linecap:butt;stroke-linejoin:miter;stroke-miterlimit:4;stroke-opacity:1"
             d="M 19.999999,360.93361 -194.28571,346.6479"
             id="path14433" />
          <path
             style="fill:none;stroke:#000000;stroke-width:11;stroke-linecap:butt;stroke-linejoin:miter;stroke-miterlimit:4;stroke-opacity:1"
             d="M 25.714286,420.93361 -191.42857,418.07647"
             id="path14437" />
        </g>
        <g
           id="g14281"
           transform="matrix(1.6779661,0,0,1.6779661,-110.46005,-359.95499)">
          <path
             transform="matrix(0.81818182,0,0,0.81818182,30.38961,70.689224)"
             d="m 251.42857,459.50504 c 0,46.54971 -37.736,84.28571 -84.28572,84.28571 -46.54971,0 -84.28571,-37.736 -84.28571,-84.28571 0,-46.54972 37.736,-84.28572 84.28571,-84.28572 46.54972,0 84.28572,37.736 84.28572,84.28572 z"
             sodipodi:ry="84.285713"
             sodipodi:rx="84.285713"
             sodipodi:cy="459.50504"
             sodipodi:cx="167.14285"
             id="path14279"
             style="fill:#ffffff;fill-opacity:1;stroke:none"
             sodipodi:type="arc" />
          <path
             transform="translate(-14.285721,110)"
             d="m 245.71429,336.64789 c 0,35.50402 -28.7817,64.28571 -64.28572,64.28571 -35.50402,0 -64.28571,-28.78169 -64.28571,-64.28571 0,-35.50402 28.78169,-64.28572 64.28571,-64.28572 35.50402,0 64.28572,28.7817 64.28572,64.28572 z"
             sodipodi:ry="64.285713"
             sodipodi:rx="64.285713"
             sodipodi:cy="336.64789"
             sodipodi:cx="181.42857"
             id="path14275"
             style="fill:#000000;fill-opacity:1;stroke:none"
             sodipodi:type="arc" />
          <path
             transform="translate(15.714279,-74.285705)"
             d="m 185.71429,520.93359 c 0,18.93548 -15.35024,34.28572 -34.28572,34.28572 -18.93547,0 -34.28571,-15.35024 -34.28571,-34.28572 0,-18.93547 15.35024,-34.28571 34.28571,-34.28571 18.93548,0 34.28572,15.35024 34.28572,34.28571 z"
             sodipodi:ry="34.285713"
             sodipodi:rx="34.285713"
             sodipodi:cy="520.93359"
             sodipodi:cx="151.42857"
             id="path14277"
             style="fill:#ffffff;fill-opacity:1;stroke:none"
             sodipodi:type="arc" />
        </g>
        <g
           id="g14421">
          <rect
             transform="matrix(-0.53328026,-0.84593863,-0.84593863,0.53328026,0,0)"
             style="fill:#000000;fill-opacity:1;stroke:none"
             id="rect14343"
             width="331.42859"
             height="271.42859"
             x="-766.92664"
             y="-541.21918"
             ry="125.24912" />
          <g
             transform="matrix(-0.60251016,-0.79811121,-0.79811121,0.60251016,1089.1044,297.36527)"
             id="g14353">
            <g
               transform="translate(10,0)"
               id="g14355">
              <path
                 style="fill:#000000;fill-opacity:1;stroke:none"
                 d="m 402.11994,195.71643 c -38.23253,14.90833 -47.06409,62.20727 -39.4277,98.94168 10.70364,59.78115 29.6323,126.76 85.00467,158.82259 41.7877,24.78068 92.1061,15.48325 138.17781,17.59577 -13.67106,-9.4944 -36.59007,-11.91664 -52.35926,-22.47837 -46.70263,-28.52519 -84.53324,-73.3413 -102.18647,-126.30265 -16.01786,-40.69702 -19.19385,-85.20029 -20.34686,-128.69788 -2.48192,-2.31688 -6.0854,1.97866 -8.86219,2.11886 z"
                 id="path14357"
                 inkscape:connector-curvature="0" />
              <rect
                 style="fill:#000000;fill-opacity:1;stroke:none"
                 id="rect14359"
                 width="197.14287"
                 height="37.142857"
                 x="293.71426"
                 y="432.36218"
                 ry="1.4807512" />
            </g>
            <rect
               ry="1.4807512"
               y="395.21933"
               x="337.14285"
               height="51.42857"
               width="117.14286"
               id="rect14361"
               style="fill:#000000;fill-opacity:1;stroke:none" />
          </g>
        </g>
        <g
           transform="matrix(-0.89482615,-1.4194563,-1.4194563,0.89482615,1445.0252,230.93275)"
           id="g14345">
          <path
             sodipodi:type="arc"
             style="fill:#ffffff;fill-opacity:1;stroke:none"
             id="path14347"
             sodipodi:cx="167.14285"
             sodipodi:cy="459.50504"
             sodipodi:rx="84.285713"
             sodipodi:ry="84.285713"
             d="m 251.42857,459.50504 c 0,46.54971 -37.736,84.28571 -84.28572,84.28571 -46.54971,0 -84.28571,-37.736 -84.28571,-84.28571 0,-46.54972 37.736,-84.28572 84.28571,-84.28572 46.54972,0 84.28572,37.736 84.28572,84.28572 z"
             transform="matrix(0.81818182,0,0,0.81818182,30.38961,70.689224)" />
          <path
             sodipodi:type="arc"
             style="fill:#000000;fill-opacity:1;stroke:none"
             id="path14349"
             sodipodi:cx="181.42857"
             sodipodi:cy="336.64789"
             sodipodi:rx="64.285713"
             sodipodi:ry="64.285713"
             d="m 245.71429,336.64789 c 0,35.50402 -28.7817,64.28571 -64.28572,64.28571 -35.50402,0 -64.28571,-28.78169 -64.28571,-64.28571 0,-35.50402 28.78169,-64.28572 64.28571,-64.28572 35.50402,0 64.28572,28.7817 64.28572,64.28572 z"
             transform="translate(-14.285721,110)" />
          <path
             sodipodi:type="arc"
             style="fill:#ffffff;fill-opacity:1;stroke:none"
             id="path14351"
             sodipodi:cx="151.42857"
             sodipodi:cy="520.93359"
             sodipodi:rx="34.285713"
             sodipodi:ry="34.285713"
             d="m 185.71429,520.93359 c 0,18.93548 -15.35024,34.28572 -34.28572,34.28572 -18.93547,0 -34.28571,-15.35024 -34.28571,-34.28572 0,-18.93547 15.35024,-34.28571 34.28571,-34.28571 18.93548,0 34.28572,15.35024 34.28572,34.28571 z"
             transform="translate(15.714279,-74.285705)" />
        </g>
        <rect
           ry="0.98716742"
           y="495.21933"
           x="-94.285713"
           height="11.428571"
           width="934.28571"
           id="rect14335"
           style="fill:#000000;fill-opacity:1;stroke:none" />
      </g>
    </g>
  </g>
</svg>
