<?xml version="1.0" encoding="UTF-8" standalone="no"?>
<!-- Created with Inkscape (http://www.inkscape.org/) -->

<svg
   xmlns:dc="http://purl.org/dc/elements/1.1/"
   xmlns:cc="http://creativecommons.org/ns#"
   xmlns:rdf="http://www.w3.org/1999/02/22-rdf-syntax-ns#"
   xmlns:svg="http://www.w3.org/2000/svg"
   xmlns="http://www.w3.org/2000/svg"
   xmlns:sodipodi="http://sodipodi.sourceforge.net/DTD/sodipodi-0.dtd"
   xmlns:inkscape="http://www.inkscape.org/namespaces/inkscape"
   width="300"
   height="275"
   id="svg15441"
   version="1.1"
   inkscape:version="0.48.2 r9819"
   inkscape:export-filename="/Users/Will/Dropbox/Apps/site44/test.willlangford.me/img/cute_sumo_ani_5.png"
   inkscape:export-xdpi="90"
   inkscape:export-ydpi="90"
   sodipodi:docname="New document 128">
  <defs
     id="defs15443" />
  <sodipodi:namedview
     id="base"
     pagecolor="#ffffff"
     bordercolor="#666666"
     borderopacity="1.0"
     inkscape:pageopacity="0.0"
     inkscape:pageshadow="2"
     inkscape:zoom="1.52"
     inkscape:cx="121.03383"
     inkscape:cy="125.51203"
     inkscape:document-units="px"
     inkscape:current-layer="layer8"
     showgrid="false"
     inkscape:window-width="1231"
     inkscape:window-height="849"
     inkscape:window-x="14"
     inkscape:window-y="0"
     inkscape:window-maximized="0" />
  <metadata
     id="metadata15446">
    <rdf:RDF>
      <cc:Work
         rdf:about="">
        <dc:format>image/svg+xml</dc:format>
        <dc:type
           rdf:resource="http://purl.org/dc/dcmitype/StillImage" />
        <dc:title></dc:title>
      </cc:Work>
    </rdf:RDF>
  </metadata>
  <g
     inkscape:groupmode="layer"
     id="layer3"
     inkscape:label="frame1"
     style="display:none">
    <g
       style="display:inline"
       id="g15464"
       transform="matrix(0.24285098,0,0,0.24285098,100.84312,151.54512)">
      <path
         transform="matrix(4.1177516,0,0,4.1177516,-2290.3945,-813.75248)"
         id="path15466"
         d="m 559.1875,246.125 c -15.43259,0 -28.10171,11.38767 -30.125,26.25 5.05265,-4.86657 11.89955,-7.84375 19.46875,-7.84375 15.51994,0 28.125,12.57381 28.125,28.09375 0,7.53741 -2.98206,14.39089 -7.8125,19.4375 l 8.0625,0 c 0.0593,0.0702 0.15074,0.11663 0.25,0.125 l 47,3.96875 c 0.16056,0.0136 0.28906,-0.10494 0.34375,-0.25 7.4038,1.84334 15.47824,1.61454 22.96875,2.59375 -3.11444,-2.57668 -8.61837,-3.6222 -12.21875,-6.5 -10.71925,-7.85635 -18.9656,-19.47965 -22.15625,-32.65625 -3.0453,-10.17535 -2.8903,-21.01292 -2.28125,-31.5625 -0.5533,-0.61134 -1.51268,0.36651 -2.1875,0.34375 -3.79894,1.12387 -6.568,3.5974 -8.46875,6.71875 -5.47855,-5.38368 -12.99089,-8.71875 -21.3125,-8.71875 l -19.65625,0 z M 460.15625,268.40625 460,271.0625 l 56.90625,3.46875 0.15625,-2.65625 -56.90625,-3.46875 z m 0,12.46875 -0.15625,2.6875 52.03125,3.46875 0.1875,-2.6875 -52.0625,-3.46875 z m 0.625,17.34375 -0.0312,2.6875 52.75,0.6875 0.0312,-2.65625 -52.75,-0.71875 z"
         style="fill:#a8b901;fill-opacity:1;stroke:none"
         inkscape:connector-curvature="0" />
      <path
         transform="matrix(4.1177516,0,0,4.1177516,-2290.3945,-813.75248)"
         id="path15468"
         d="m 559.1875,246.125 c -15.43259,0 -28.10171,11.38767 -30.125,26.25 5.05265,-4.86657 11.89955,-7.84375 19.46875,-7.84375 15.51994,0 28.125,12.57381 28.125,28.09375 0,7.53741 -2.98206,14.39089 -7.8125,19.4375 l 8.0625,0 c 0.0593,0.0702 0.15074,0.11663 0.25,0.125 l 47,3.96875 c 0.16056,0.0136 0.28906,-0.10494 0.34375,-0.25 7.4038,1.84334 15.47824,1.61454 22.96875,2.59375 -3.11444,-2.57668 -8.61837,-3.6222 -12.21875,-6.5 -10.71925,-7.85635 -18.9656,-19.47965 -22.15625,-32.65625 -3.0453,-10.17535 -2.8903,-21.01292 -2.28125,-31.5625 -0.5533,-0.61134 -1.51268,0.36651 -2.1875,0.34375 -3.79894,1.12387 -6.568,3.5974 -8.46875,6.71875 -5.47855,-5.38368 -12.99089,-8.71875 -21.3125,-8.71875 l -19.65625,0 z m -10.65625,20.3125 c -14.46774,0 -26.1875,11.71976 -26.1875,26.1875 0,14.46774 11.71976,26.1875 26.1875,26.1875 14.46774,0 26.21875,-11.71976 26.21875,-26.1875 0,-14.46774 -11.75101,-26.1875 -26.21875,-26.1875 z m -88.375,1.96875 -0.15625,2.65625 56.90625,3.46875 0.15625,-2.65625 -56.90625,-3.46875 z m 88.375,10.25 c 7.71613,0 14,6.25262 14,13.96875 0,7.71613 -6.28387,13.96875 -14,13.96875 -7.71613,0 -13.96875,-6.25262 -13.96875,-13.96875 0,-7.71613 6.25262,-13.96875 13.96875,-13.96875 z m -88.375,2.21875 -0.15625,2.6875 52.03125,3.46875 0.1875,-2.6875 -52.0625,-3.46875 z m 0.625,17.34375 -0.0312,2.6875 52.75,0.6875 0.0312,-2.65625 -52.75,-0.71875 z"
         style="fill:#a8b901;fill-opacity:1;stroke:none"
         inkscape:connector-curvature="0" />
      <rect
         ry="0.98716742"
         y="496.92795"
         x="-295.90265"
         height="11.428571"
         width="934.28571"
         id="rect15470"
         style="fill:#a8b901;fill-opacity:1;stroke:none" />
      <path
         inkscape:connector-curvature="0"
         id="path15472"
         d="m 625.12656,237.1898 c 39.79886,49.54133 35.91463,119.57893 -6.57823,164.40229 2.59234,-28.77023 -5.50775,-58.42778 -25.02785,-82.72625 -40.02413,-49.82175 -112.89527,-57.8598 -162.71702,-17.83567 -24.19641,19.43811 -38.50691,46.68538 -42.25026,75.20657 l -20.79225,-25.88205 c -0.37829,-0.009 -0.76315,-0.18313 -1.046,-0.48018 L 232.76699,209.23118 c -0.45773,-0.48037 -0.40858,-1.19858 -0.084,-1.74823 -25.01099,-19.01375 -45.09955,-45.52417 -67.56016,-67.04476 16.30339,3.35294 33.8537,18.32525 52.3769,22.4616 52.86398,14.15006 111.44321,10.64715 161.97075,-13.09123 40.51814,-16.46511 74.90892,-44.91154 107.20427,-74.07284 3.3894,0.199624 2.72446,5.801163 4.53781,7.908758 6.1892,15.09359 5.38982,30.361712 0.27155,44.513062 31.41111,3.7032 61.49073,19.21839 82.9512,45.93223 l 50.69121,63.10003 z m -37.72547,86.59204 c 37.31063,46.444 29.91204,114.2904 -16.53196,151.60104 -46.444,37.31063 -114.2904,29.91204 -151.60104,-16.53196 -37.31063,-46.444 -29.99263,-114.39072 16.45137,-151.70135 46.44399,-37.31064 114.37099,-29.81173 151.68163,16.63227 z m -39.22434,31.51074 c -19.89901,-24.77013 -56.17641,-28.81768 -80.94654,-8.91867 -24.77014,19.89901 -28.63678,56.19613 -8.73777,80.96627 19.89901,24.77013 56.0958,28.71736 80.86594,8.81834 24.77014,-19.899 28.71737,-56.09579 8.81837,-80.86594 z"
         style="fill:#a8b901;fill-opacity:1;stroke:none" />
    </g>
    <g
       transform="matrix(0.24285098,0,0,0.24285098,100.84312,151.54512)"
       id="g15481"
       style="display:inline">
      <path
         inkscape:connector-curvature="0"
         style="fill:#a8b901;fill-opacity:1;stroke:none"
         d="m 559.1875,246.125 c -15.43259,0 -28.10171,11.38767 -30.125,26.25 5.05265,-4.86657 11.89955,-7.84375 19.46875,-7.84375 15.51994,0 28.125,12.57381 28.125,28.09375 0,7.53741 -2.98206,14.39089 -7.8125,19.4375 l 8.0625,0 c 0.0593,0.0702 0.15074,0.11663 0.25,0.125 l 47,3.96875 c 0.16056,0.0136 0.28906,-0.10494 0.34375,-0.25 7.4038,1.84334 15.47824,1.61454 22.96875,2.59375 -3.11444,-2.57668 -8.61837,-3.6222 -12.21875,-6.5 -10.71925,-7.85635 -18.9656,-19.47965 -22.15625,-32.65625 -3.0453,-10.17535 -2.8903,-21.01292 -2.28125,-31.5625 -0.5533,-0.61134 -1.51268,0.36651 -2.1875,0.34375 -3.79894,1.12387 -6.568,3.5974 -8.46875,6.71875 -5.47855,-5.38368 -12.99089,-8.71875 -21.3125,-8.71875 l -19.65625,0 z M 460.15625,268.40625 460,271.0625 l 56.90625,3.46875 0.15625,-2.65625 -56.90625,-3.46875 z m 0,12.46875 -0.15625,2.6875 52.03125,3.46875 0.1875,-2.6875 -52.0625,-3.46875 z m 0.625,17.34375 -0.0312,2.6875 52.75,0.6875 0.0312,-2.65625 -52.75,-0.71875 z"
         id="path15483"
         transform="matrix(4.1177516,0,0,4.1177516,-2290.3945,-813.75248)" />
      <path
         inkscape:connector-curvature="0"
         style="fill:#a8b901;fill-opacity:1;stroke:none"
         d="m 559.1875,246.125 c -15.43259,0 -28.10171,11.38767 -30.125,26.25 5.05265,-4.86657 11.89955,-7.84375 19.46875,-7.84375 15.51994,0 28.125,12.57381 28.125,28.09375 0,7.53741 -2.98206,14.39089 -7.8125,19.4375 l 8.0625,0 c 0.0593,0.0702 0.15074,0.11663 0.25,0.125 l 47,3.96875 c 0.16056,0.0136 0.28906,-0.10494 0.34375,-0.25 7.4038,1.84334 15.47824,1.61454 22.96875,2.59375 -3.11444,-2.57668 -8.61837,-3.6222 -12.21875,-6.5 -10.71925,-7.85635 -18.9656,-19.47965 -22.15625,-32.65625 -3.0453,-10.17535 -2.8903,-21.01292 -2.28125,-31.5625 -0.5533,-0.61134 -1.51268,0.36651 -2.1875,0.34375 -3.79894,1.12387 -6.568,3.5974 -8.46875,6.71875 -5.47855,-5.38368 -12.99089,-8.71875 -21.3125,-8.71875 l -19.65625,0 z m -10.65625,20.3125 c -14.46774,0 -26.1875,11.71976 -26.1875,26.1875 0,14.46774 11.71976,26.1875 26.1875,26.1875 14.46774,0 26.21875,-11.71976 26.21875,-26.1875 0,-14.46774 -11.75101,-26.1875 -26.21875,-26.1875 z m -88.375,1.96875 -0.15625,2.65625 56.90625,3.46875 0.15625,-2.65625 -56.90625,-3.46875 z m 88.375,10.25 c 7.71613,0 14,6.25262 14,13.96875 0,7.71613 -6.28387,13.96875 -14,13.96875 -7.71613,0 -13.96875,-6.25262 -13.96875,-13.96875 0,-7.71613 6.25262,-13.96875 13.96875,-13.96875 z m -88.375,2.21875 -0.15625,2.6875 52.03125,3.46875 0.1875,-2.6875 -52.0625,-3.46875 z m 0.625,17.34375 -0.0312,2.6875 52.75,0.6875 0.0312,-2.65625 -52.75,-0.71875 z"
         id="path15485"
         transform="matrix(4.1177516,0,0,4.1177516,-2290.3945,-813.75248)" />
      <rect
         style="fill:#a8b901;fill-opacity:1;stroke:none"
         id="rect15487"
         width="934.28571"
         height="11.428571"
         x="-295.90265"
         y="496.92795"
         ry="0.98716742" />
      <path
         style="fill:#a8b901;fill-opacity:1;stroke:none"
         d="m 625.12656,237.1898 c 39.79886,49.54133 35.91463,119.57893 -6.57823,164.40229 2.59234,-28.77023 -5.50775,-58.42778 -25.02785,-82.72625 -40.02413,-49.82175 -112.89527,-57.8598 -162.71702,-17.83567 -24.19641,19.43811 -38.50691,46.68538 -42.25026,75.20657 l -20.79225,-25.88205 c -0.37829,-0.009 -0.76315,-0.18313 -1.046,-0.48018 L 232.76699,209.23118 c -0.45773,-0.48037 -0.40858,-1.19858 -0.084,-1.74823 -25.01099,-19.01375 -45.09955,-45.52417 -67.56016,-67.04476 16.30339,3.35294 33.8537,18.32525 52.3769,22.4616 52.86398,14.15006 111.44321,10.64715 161.97075,-13.09123 40.51814,-16.46511 74.90892,-44.91154 107.20427,-74.07284 3.3894,0.199624 2.72446,5.801163 4.53781,7.908758 6.1892,15.09359 5.38982,30.361712 0.27155,44.513062 31.41111,3.7032 61.49073,19.21839 82.9512,45.93223 l 50.69121,63.10003 z m -37.72547,86.59204 c 37.31063,46.444 29.91204,114.2904 -16.53196,151.60104 -46.444,37.31063 -114.2904,29.91204 -151.60104,-16.53196 -37.31063,-46.444 -29.99263,-114.39072 16.45137,-151.70135 46.44399,-37.31064 114.37099,-29.81173 151.68163,16.63227 z m -39.22434,31.51074 c -19.89901,-24.77013 -56.17641,-28.81768 -80.94654,-8.91867 -24.77014,19.89901 -28.63678,56.19613 -8.73777,80.96627 19.89901,24.77013 56.0958,28.71736 80.86594,8.81834 24.77014,-19.899 28.71737,-56.09579 8.81837,-80.86594 z"
         id="path15489"
         inkscape:connector-curvature="0" />
    </g>
  </g>
  <g
     style="display:none"
     inkscape:label="frame2"
     id="g15497"
     inkscape:groupmode="layer">
    <g
       id="g15499"
       transform="matrix(0.24285098,0,0,0.24285098,100.84312,151.54512)"
       style="display:inline">
      <path
         id="path15503"
         d="m 69.849244,199.72913 c -63.5475721,0 -115.715861,46.8916 -124.047266,108.09098 20.805557,-20.03932 48.9993901,-32.29861 80.167475,-32.29861 63.907261,0 115.811747,51.77582 115.811747,115.68308 0,31.03718 -12.27937,59.25811 -32.16992,80.0388 l 33.19936,0 c 0.24418,0.28906 0.62071,0.48025 1.02944,0.51472 l 193.53432,16.34232 c 0.66115,0.056 1.19028,-0.43211 1.41548,-1.02943 30.48701,7.59041 63.73554,6.64827 94.5796,10.68041 -12.82449,-10.61012 -35.4883,-14.91532 -50.31377,-26.76538 -44.13921,-32.3505 -78.09563,-80.21236 -91.23394,-134.47033 -12.53979,-41.89956 -11.90153,-86.52598 -9.39362,-129.96653 -2.27835,-2.51735 -6.22884,1.5092 -9.00758,1.41548 -15.64309,4.62781 -27.04539,14.8132 -34.87221,27.66614 -22.55931,-22.16866 -53.49326,-35.90165 -87.75958,-35.90165 l -80.939536,0 z m -43.879791,83.64183 c -59.574559,0 -107.833624,48.25906 -107.833624,107.83362 0,59.57456 48.259065,107.83362 107.833624,107.83362 59.574561,0 107.962287,-48.25906 107.962287,-107.83362 0,-59.57456 -48.387726,-107.83362 -107.962287,-107.83362 z m -363.906313,8.10683 -0.6434,10.93777 234.3258,14.28345 0.6434,-10.93777 -234.3258,-14.28345 z m 363.906313,42.20695 c 31.773107,0 57.648521,25.74674 57.648521,57.51984 0,31.77311 -25.875414,57.51984 -57.648521,57.51984 -31.7731059,0 -57.519842,-25.74673 -57.519842,-57.51984 0,-31.7731 25.7467361,-57.51984 57.519842,-57.51984 z m -363.906313,9.13626 -0.6434,11.06646 214.25176,14.28345 0.77208,-11.06646 -214.38044,-14.28345 z m 2.57359,71.41725 -0.12847,11.06646 217.2114,2.83096 0.12847,-10.93778 -217.2114,-2.95964 z"
         style="fill:#a8b901;fill-opacity:1;stroke:none"
         inkscape:connector-curvature="0" />
      <rect
         ry="0.98716742"
         y="496.92795"
         x="-295.90265"
         height="11.428571"
         width="934.28571"
         id="rect15505"
         style="fill:#a8b901;fill-opacity:1;stroke:none" />
      <path
         inkscape:connector-curvature="0"
         id="path15507"
         d="m 643.41375,260.73403 c 32.91358,54.35981 19.82146,123.27242 -28.21453,162.09665 6.36607,-28.17657 2.25029,-58.64364 -13.89279,-85.30542 -33.09988,-54.66751 -104.27314,-72.25104 -158.94064,-39.15116 -26.5498,16.07528 -44.3306,41.19594 -51.80475,68.97377 l -17.19515,-28.39938 c -0.37379,-0.0588 -0.73231,-0.28224 -0.97349,-0.61401 L 258.17443,181.24579 c -0.39034,-0.53657 -0.24685,-1.24202 0.14743,-1.74403 -22.28331,-22.14783 -38.69801,-51.07724 -58.12245,-75.37345 15.71839,5.47495 31.13955,22.6322 48.95496,29.17662 50.53453,21.00203 109.06375,25.25962 162.28188,8.39622 42.3365,-10.97453 80.18022,-34.63415 116.04117,-59.278902 3.33342,0.645129 1.93514,6.109944 3.45452,8.438391 4.14339,15.778311 1.33629,30.807441 -5.60458,44.159661 30.64778,7.81569 58.41705,27.16439 76.16482,56.47647 l 41.92154,69.23725 z m -48.8219,80.85675 c 30.85582,50.96123 14.5692,117.23807 -36.39202,148.09389 -50.96123,30.85582 -117.23807,14.5692 -148.0939,-36.39202 -30.85582,-50.96123 -14.63585,-117.34815 36.32538,-148.20397 50.96122,-30.85582 117.30472,-14.45913 148.16054,36.5021 z m -43.03937,26.05932 c -16.45644,-27.17932 -51.88252,-35.97849 -79.06184,-19.52204 -27.17933,16.45644 -35.80177,51.92594 -19.34533,79.10527 16.45645,27.17932 51.81586,35.8684 78.99519,19.41195 27.17933,-16.45643 35.86841,-51.81584 19.41198,-78.99518 z"
         style="fill:#a8b901;fill-opacity:1;stroke:none" />
    </g>
  </g>
  <g
     inkscape:groupmode="layer"
     id="layer5"
     inkscape:label="frame3"
     style="display:none">
    <g
       style="display:inline"
       transform="matrix(0.24285098,0,0,0.24285098,100.84312,151.54512)"
       id="g15522">
      <path
         inkscape:connector-curvature="0"
         style="fill:#a8b901;fill-opacity:1;stroke:none"
         d="m 143.96876,199.72913 c -63.547561,0 -115.71585,46.8916 -124.047255,108.09098 20.805557,-20.03932 48.99939,-32.29861 80.167475,-32.29861 63.90724,0 115.81172,51.77582 115.81172,115.68308 0,31.03718 -12.27937,59.25811 -32.16992,80.0388 l 33.19936,0 c 0.24418,0.28906 0.62071,0.48025 1.02944,0.51472 l 193.53432,16.34232 c 0.66115,0.056 1.19028,-0.43211 1.41548,-1.02943 30.48701,7.59041 63.73554,6.64827 94.5796,10.68041 -12.82449,-10.61012 -35.4883,-14.91532 -50.31377,-26.76538 -44.13921,-32.3505 -78.09563,-80.21236 -91.23394,-134.47033 -12.53979,-41.89956 -11.90153,-86.52598 -9.39362,-129.96653 -2.27835,-2.51735 -6.22884,1.5092 -9.00758,1.41548 -15.64309,4.62781 -27.04539,14.8132 -34.87221,27.66614 -22.55931,-22.16866 -53.49326,-35.90165 -87.75958,-35.90165 l -80.93952,0 z m -43.87978,83.64183 c -59.574559,0 -107.8336239,48.25906 -107.8336239,107.83362 0,59.57456 48.2590649,107.83362 107.8336239,107.83362 59.57454,0 107.96226,-48.25906 107.96226,-107.83362 0,-59.57456 -48.38772,-107.83362 -107.96226,-107.83362 z m -363.90634,8.10683 -0.6434,10.93777 234.325827,14.28345 0.6434,-10.93777 -234.325827,-14.28345 z m 363.90634,42.20695 c 31.7731,0 57.6485,25.74674 57.6485,57.51984 0,31.77311 -25.8754,57.51984 -57.6485,57.51984 -31.773106,0 -57.519842,-25.74673 -57.519842,-57.51984 0,-31.7731 25.746736,-57.51984 57.519842,-57.51984 z m -363.90634,9.13626 -0.6434,11.06646 214.251781,14.28345 0.77208,-11.06646 L -263.81736,342.821 z m 2.57359,71.41725 -0.12847,11.06646 217.211421,2.83096 0.12847,-10.93778 -217.211421,-2.95964 z"
         id="path15524" />
      <rect
         style="fill:#a8b901;fill-opacity:1;stroke:none"
         id="rect15526"
         width="934.28571"
         height="11.428571"
         x="-295.90265"
         y="496.92795"
         ry="0.98716742" />
      <path
         style="fill:#a8b901;fill-opacity:1;stroke:none"
         d="m 706.12247,309.75407 c 11.73314,62.45499 -24.72012,122.38421 -83.32904,141.87196 15.85335,-24.14783 22.69628,-54.12041 16.94154,-84.75263 -11.79954,-62.80851 -72.26861,-104.26097 -135.07711,-92.46141 -30.50357,5.73057 -55.97209,23.00941 -72.72298,46.39483 l -6.12979,-32.62857 c -0.32934,-0.18628 -0.5866,-0.52137 -0.69593,-0.9167 L 373.31448,100.07204 c -0.1771,-0.639456 0.20489,-1.249628 0.75035,-1.581246 -13.08888,-28.5614 -18.3018,-61.412253 -27.95955,-90.9815405 12.79558,10.6450005 21.2113,32.1242695 35.59493,44.5069055 39.94396,37.407271 93.2525,61.942891 149.00343,64.837371 43.49447,4.58804 87.23579,-4.27887 129.46642,-14.76434 2.89472,1.77439 -0.3332,6.4004 0.27198,9.11406 -1.66,16.2286 -9.56499,29.31546 -20.75184,39.38082 25.95276,18.07831 45.16115,45.94482 51.48793,79.622 l 14.94432,79.54799 z m -74.10201,58.56862 c 10.99957,58.55031 -27.51943,114.88998 -86.06972,125.88957 -58.55031,10.99957 -114.88999,-27.51944 -125.88958,-86.06975 -10.99957,-58.55029 27.49568,-115.01644 86.04598,-126.01602 58.55029,-10.99957 114.91374,27.6459 125.91332,86.1962 z m -49.44873,9.28971 c -5.86644,-31.22683 -35.94804,-51.90361 -67.17487,-46.03717 -31.22684,5.86644 -51.75339,36.05076 -45.88696,67.27759 5.86645,31.22683 35.92428,51.77713 67.15113,45.91068 31.22683,-5.86643 51.77712,-35.92426 45.9107,-67.1511 z"
         id="path15528"
         inkscape:connector-curvature="0" />
    </g>
  </g>
  <g
     inkscape:groupmode="layer"
     id="layer6"
     inkscape:label="frame4"
     style="display:none">
    <g
       id="g15535"
       transform="matrix(0.24285098,0,0,0.24285098,100.84312,151.54512)"
       style="display:inline">
      <path
         id="path15537"
         d="m 78.084751,199.72913 c -63.547576,0 -115.715865,46.8916 -124.04727,108.09098 20.805557,-20.03932 48.9993899,-32.29861 80.167475,-32.29861 63.907261,0 115.811744,51.77582 115.811744,115.68308 0,31.03718 -12.27937,59.25811 -32.16992,80.0388 l 33.19936,0 c 0.24418,0.28906 0.62071,0.48025 1.02944,0.51472 l 193.53432,16.34232 c 0.66115,0.056 1.19028,-0.43211 1.41548,-1.02943 30.48701,7.59041 63.73554,6.64827 94.5796,10.68041 -12.82449,-10.61012 -35.4883,-14.91532 -50.31377,-26.76538 -44.13921,-32.3505 -78.09563,-80.21236 -91.23394,-134.47033 -12.53979,-41.89956 -11.90153,-86.52598 -9.39362,-129.96653 -2.27835,-2.51735 -6.22884,1.5092 -9.00758,1.41548 -15.64309,4.62781 -27.04539,14.8132 -34.87221,27.66614 -22.55931,-22.16866 -53.49326,-35.90165 -87.75958,-35.90165 l -80.939529,0 z m -43.879795,83.64183 c -59.574559,0 -107.833624,48.25906 -107.833624,107.83362 0,59.57456 48.259065,107.83362 107.833624,107.83362 59.574561,0 107.962284,-48.25906 107.962284,-107.83362 0,-59.57456 -48.387723,-107.83362 -107.962284,-107.83362 z m -363.906316,8.10683 -0.6434,10.93777 234.325803,14.28345 0.6434,-10.93777 -234.325803,-14.28345 z m 363.906316,42.20695 c 31.773109,0 57.648521,25.74674 57.648521,57.51984 0,31.77311 -25.875412,57.51984 -57.648521,57.51984 -31.7731061,0 -57.519842,-25.74673 -57.519842,-57.51984 0,-31.7731 25.7467359,-57.51984 57.519842,-57.51984 z m -363.906316,9.13626 -0.6434,11.06646 214.25176,14.28345 0.77208,-11.06646 -214.38044,-14.28345 z m 2.57359,71.41725 -0.12847,11.06646 217.2114,2.83096 0.12847,-10.93778 -217.2114,-2.95964 z"
         style="fill:#a8b901;fill-opacity:1;stroke:none"
         inkscape:connector-curvature="0" />
      <rect
         ry="0.98716742"
         y="496.92795"
         x="-295.90265"
         height="11.428571"
         width="934.28571"
         id="rect15539"
         style="fill:#a8b901;fill-opacity:1;stroke:none" />
      <path
         inkscape:connector-curvature="0"
         id="path15541"
         d="m 726.25497,392.83704 c -17.87204,60.98264 -77.54273,97.85756 -138.6151,88.64105 25.08184,-14.32997 44.77551,-37.93803 53.54118,-67.84811 17.97322,-61.32782 -17.11525,-125.69873 -78.44307,-143.67192 -29.78447,-8.72887 -60.31977,-4.88194 -85.85569,8.36144 l 9.33695,-31.85936 c -0.20902,-0.3154 -0.2863,-0.73073 -0.20442,-1.13264 L 524.76147,55.00856 c 0.13222,-0.650221 0.74942,-1.020748 1.38595,-1.068877 1.29011,-31.391208 11.54501,-63.0327969 16.35014,-93.765932 6.57515,15.290859 4.33262,38.2507036 11.53489,55.810484 18.63109,51.455866 55.01128,97.502355 103.38428,125.369835 36.68172,23.81744 79.68643,35.75563 122.07895,45.56611 1.77497,2.89436 -3.20009,5.55297 -3.89163,8.24592 -8.84049,13.71017 -21.82154,21.78774 -36.35691,25.6839 14.92933,27.88344 19.4082,61.43109 9.77118,94.31434 l -22.76336,77.67268 z m -92.60656,18.58536 c -16.7547,57.17001 -76.63823,89.90889 -133.80823,73.15422 -57.17,-16.7547 -89.90889,-76.63824 -73.15421,-133.80826 16.75469,-57.16998 76.67443,-90.03236 133.84443,-73.27767 57.16998,16.75469 89.8727,76.76171 73.11801,133.93171 z m -48.283,-14.15019 c 8.93584,-30.49067 -8.49453,-62.56268 -38.9852,-71.49852 -30.49068,-8.93584 -62.4754,8.65422 -71.41124,39.14489 -8.93583,30.49067 8.53073,62.43918 39.02142,71.37502 30.49066,8.93584 62.43916,-8.53072 71.37502,-39.02139 z"
         style="fill:#a8b901;fill-opacity:1;stroke:none" />
    </g>
  </g>
  <g
     inkscape:groupmode="layer"
     id="layer8"
     inkscape:label="frame5"
     style="display:inline">
    <g
       style="display:inline"
       transform="matrix(0.24285098,0,0,0.24285098,118.84312,151.54512)"
       id="g15549">
      <path
         inkscape:connector-curvature="0"
         style="fill:#a8b901;fill-opacity:1;stroke:none"
         d="m -61.9188,199.72913 c -63.54757,0 -115.71584,46.8916 -124.04724,108.09098 20.80555,-20.03932 48.99937,-32.29861 80.16744,-32.29861 63.907266,0 115.811767,51.77582 115.811767,115.68308 0,31.03718 -12.2793759,59.25811 -32.169932,80.0388 l 33.199372,0 c 0.24418,0.28906 0.62071,0.48025 1.02944,0.51472 L 205.6064,488.10042 c 0.66115,0.056 1.19028,-0.43211 1.41548,-1.02943 30.48701,7.59041 63.73554,6.64827 94.5796,10.68041 -12.82449,-10.61012 -35.4883,-14.91532 -50.31377,-26.76538 -44.13921,-32.3505 -78.09563,-80.21236 -91.23394,-134.47033 -12.53979,-41.89956 -11.90153,-86.52598 -9.39362,-129.96653 -2.27835,-2.51735 -6.22884,1.5092 -9.00758,1.41548 -15.64309,4.62781 -27.04539,14.8132 -34.87221,27.66614 C 84.221044,213.46212 53.287082,199.72913 19.02075,199.72913 l -80.93955,0 z m -43.8798,83.64183 c -59.57453,0 -107.83358,48.25906 -107.83358,107.83362 0,59.57456 48.25905,107.83362 107.83358,107.83362 59.574566,0 107.9623039,-48.25906 107.9623039,-107.83362 0,-59.57456 -48.3877379,-107.83362 -107.9623039,-107.83362 z m -363.90626,8.10683 -0.6434,10.93777 234.3258,14.28345 0.6434,-10.93777 -234.3258,-14.28345 z m 363.90626,42.20695 c 31.773114,0 57.648526,25.74674 57.648526,57.51984 0,31.77311 -25.875412,57.51984 -57.648526,57.51984 -31.77309,0 -57.51982,-25.74673 -57.51982,-57.51984 0,-31.7731 25.74673,-57.51984 57.51982,-57.51984 z m -363.90626,9.13626 -0.6434,11.06646 214.25176,14.28345 0.77208,-11.06646 -214.38044,-14.28345 z m 2.57359,71.41725 -0.12847,11.06646 217.2114,2.83096 0.12847,-10.93778 -217.2114,-2.95964 z"
         id="path15551" />
      <rect
         style="fill:#a8b901;fill-opacity:1;stroke:none"
         id="rect15553"
         width="934.28571"
         height="11.428571"
         x="-370.02219"
         y="496.92795"
         ry="0.98716742" />
      <path
         style="fill:#a8b901;fill-opacity:1;stroke:none"
         d="m 600.26592,469.64136 c -45.52596,44.33599 -115.61513,47.13936 -164.28153,9.10832 28.88635,-0.15933 57.63769,-11.047 79.96675,-32.79241 45.78367,-44.58694 46.8454,-117.89238 2.25846,-163.67601 -21.65409,-22.23529 -50.14036,-33.88588 -78.8884,-34.89605 l 23.78428,-23.16259 c -0.0271,-0.37741 0.10959,-0.77714 0.37836,-1.08697 L 590.73158,76.402507 c 0.4346,-0.501389 1.15422,-0.520902 1.73228,-0.250112 16.54546,-26.708053 41.02229,-49.229999 60.30604,-73.6380228 -1.78506,16.5486108 -15.01794,35.4450158 -17.37145,54.2779558 -9.05131,53.971262 0.0144,111.950652 28.45682,159.987842 20.24895,38.76595 51.84126,70.29137 83.94564,99.66278 0.12407,3.39301 -5.51534,3.26453 -7.44066,5.27036 -14.43558,7.59848 -29.71044,8.25679 -44.2849,4.50947 -0.69497,31.62101 -13.27504,63.04149 -37.82369,86.94848 l -57.98574,56.47008 z m -89.79121,-29.30751 c -42.67969,41.56409 -110.9223,40.66039 -152.4864,-2.01927 -41.56409,-42.67969 -40.66039,-110.92232 2.01929,-152.48643 42.67966,-41.56408 111.01449,-40.75016 152.57858,1.92952 41.56407,42.67968 40.56821,111.01209 -2.11147,152.57618 z m -35.103,-36.04518 c 22.7625,-22.16752 23.33681,-58.66549 1.1693,-81.42799 -22.16752,-22.76251 -58.66792,-23.15485 -81.43041,-0.98733 -22.7625,22.16752 -23.24462,58.5757 -1.07709,81.33821 22.1675,22.7625 58.57567,23.24461 81.3382,1.07711 z"
         id="path15555"
         inkscape:connector-curvature="0" />
    </g>
  </g>
</svg>
