<?xml version="1.0" encoding="UTF-8" standalone="no"?>
<!-- Created with Inkscape (http://www.inkscape.org/) -->

<svg
   xmlns:dc="http://purl.org/dc/elements/1.1/"
   xmlns:cc="http://creativecommons.org/ns#"
   xmlns:rdf="http://www.w3.org/1999/02/22-rdf-syntax-ns#"
   xmlns:svg="http://www.w3.org/2000/svg"
   xmlns="http://www.w3.org/2000/svg"
   xmlns:sodipodi="http://sodipodi.sourceforge.net/DTD/sodipodi-0.dtd"
   xmlns:inkscape="http://www.inkscape.org/namespaces/inkscape"
   width="300"
   height="260"
   id="svg7320"
   version="1.1"
   inkscape:version="0.48.2 r9819"
   sodipodi:docname="cute_sumo_with_alpha.png.2012_12_31_22_43_39.7.svg"
   inkscape:export-filename="/Users/Will/Dropbox/Apps/site44/www.willlangford.me/img/cute_ocelot.png"
   inkscape:export-xdpi="90"
   inkscape:export-ydpi="90">
  <defs
     id="defs7322" />
  <sodipodi:namedview
     id="base"
     pagecolor="#ffffff"
     bordercolor="#666666"
     borderopacity="1.0"
     inkscape:pageopacity="0"
     inkscape:pageshadow="2"
     inkscape:zoom="0.68942911"
     inkscape:cx="151.58067"
     inkscape:cy="-27.299053"
     inkscape:document-units="px"
     inkscape:current-layer="layer1"
     showgrid="false"
     inkscape:window-width="1440"
     inkscape:window-height="852"
     inkscape:window-x="40"
     inkscape:window-y="0"
     inkscape:window-maximized="0" />
  <metadata
     id="metadata7325">
    <rdf:RDF>
      <cc:Work
         rdf:about="">
        <dc:format>image/svg+xml</dc:format>
        <dc:type
           rdf:resource="http://purl.org/dc/dcmitype/StillImage" />
        <dc:title></dc:title>
      </cc:Work>
    </rdf:RDF>
  </metadata>
  <g
     inkscape:label="Layer 1"
     inkscape:groupmode="layer"
     id="layer1"
     transform="translate(0,-792.36218)">
    <rect
       style="fill:#ebeaea;fill-opacity:1;stroke:none"
       id="rect11233"
       width="953.22278"
       height="696.69513"
       x="-1048.4698"
       y="379.39188"
       ry="31.062071" />
    <g
       style="fill:#007ed5;fill-opacity:1"
       transform="matrix(0.44628332,-2.9854959,2.9854959,0.44628332,-2329.5245,1187.9813)"
       id="g6785" />
    <g
       id="g11890"
       transform="translate(-90.139063,279.92735)">
      <path
         id="path6775"
         d="m 72.041422,863.80455 c -0.35127,-0.002 -0.70794,0.002 -1.05885,0.0211 -0.93575,0.0496 -1.87992,0.1496 -2.79533,0.3494 -3.65704,0.79819 -6.98966,2.76042 -9.61428,5.42127 -2.8157,2.85454 -4.7702,6.43681 -6.07775,10.16487 -1.30629,3.72454 -1.99394,7.60375 -2.53062,11.43548 -3.18296,22.72486 -1.0488,45.72001 0,68.45405 0.40622,8.80518 0.63442,17.61592 0.72002,26.42865 l -0.68825,4.27772 c -3.82728,2.3025 -7.81199,7.36136 -12.32491,15.18381 -1.9636,3.4035 -3.52552,6.4573 -4.66948,9.1907 l -3.20829,0 0,2.6259 -5.25186,0 0,13.1296 0,6.5649 0,2.6259 207.193898,0 0,-9.1908 -13.14021,0 0,-34.58168 -4.57418,0 c -0.007,0.5899 -0.015,1.30912 -0.0212,1.33413 -0.11862,0.47459 -0.54844,0.83836 -0.66708,1.31296 -0.16335,0.6534 0.20387,3.52059 0,3.92829 -0.0979,0.1957 -0.4806,-0.1547 -0.63529,0 -6.9e-4,0 6.8e-4,1.9666 0,1.9695 -0.43535,1.306 -0.61287,0.2958 -1.31296,0.6458 -0.27674,0.1384 -0.4483,0.4483 -0.66707,0.6671 -0.21879,0.2188 -0.50754,0.3692 -0.6459,0.6459 -0.0979,0.1957 0.1547,0.5124 0,0.6671 -0.1547,0.1546 -0.47139,-0.098 -0.66707,0 -0.55347,0.2767 -0.7489,1.0362 -1.30237,1.3129 -0.19569,0.098 -0.51238,-0.1547 -0.66708,0 -0.15469,0.1547 0.1547,0.5124 0,0.6671 -0.15469,0.1547 -0.43834,-0.069 -0.64589,0 -4.75407,1.5847 1.02374,-0.1995 -1.98003,1.3024 -0.39135,0.1957 -0.99298,-0.3094 -1.30237,0 -0.1547,0.1547 0.0979,0.4502 0,0.6459 -0.85075,1.7015 -1.22672,-0.5476 -1.29179,1.3129 0.18849,0.048 -0.0212,0.8796 -0.0212,0.6671 -0.27673,0.5535 -1.03623,0.7489 -1.31295,1.3024 -0.0979,0.1956 0,0.4483 0,0.667 0,0.8926 0.34271,2.121 -0.66708,2.626 -0.38723,0.1936 -1.51799,-0.1505 -1.96944,0 -0.46409,0.1546 -0.84887,0.4912 -1.31297,0.6459 -0.4151,0.1383 -0.9216,-0.1957 -1.31295,0 -0.27674,0.1383 -0.35238,0.5586 -0.6459,0.6564 -0.41509,0.1384 -0.86481,0 -1.30237,0 l -1.33413,0 -5.24128,0 -1.98002,0 c -0.21878,0 -0.48062,0.1548 -0.63531,0 -0.1547,-0.1547 0.15469,-0.5017 0,-0.6564 -0.1547,-0.1547 -0.56922,0.1956 -0.66708,0 -0.32646,-0.653 0.25968,-1.8291 0,-1.9589 -0.21702,-0.1085 -2.78786,0 -3.29298,0 -0.56333,0 -4.89192,0.1165 -5.24126,0 -0.29352,-0.098 -0.36297,-0.5692 -0.65648,-0.6671 -0.4151,-0.1383 -0.89787,0.1384 -1.31297,0 -0.92922,-0.3097 -1.0478,-1.9938 -1.98003,-2.6153 -0.40703,-0.2713 -0.90592,-0.3957 -1.31296,-0.6671 -0.51486,-0.3432 -0.7489,-1.0362 -1.30238,-1.3129 -0.19568,-0.098 -0.43365,0.053 -0.64589,0 -0.85387,-0.2135 -2.46762,-0.7698 -3.2824,-1.313 -0.51487,-0.3432 -0.72592,-1.1067 -1.31297,-1.3024 -0.38399,-0.1279 -3.38613,0 -3.94947,0 -0.21878,0 -0.45021,0.098 -0.64588,0 -1.62206,-0.811 0.22623,-0.6458 -1.31297,-0.6458 -0.43116,0 -2.48217,0.077 -2.63652,0 -0.19567,-0.098 0.1547,-0.5125 0,-0.6671 -0.34591,-0.346 -0.90592,-0.3957 -1.31295,-0.6671 -0.25745,-0.1716 -0.36916,-0.5075 -0.6459,-0.6459 -0.28031,-0.1402 -3.02296,0 -3.28241,0 -0.29558,0 -1.78028,-0.1 -1.98003,0 -0.27672,0.1384 -0.38845,0.4743 -0.64589,0.6459 -0.40704,0.2714 -0.89534,0.3957 -1.30237,0.6671 -0.25745,0.1716 -0.39034,0.5287 -0.66708,0.6671 -0.19567,0.098 -0.51236,-0.1548 -0.66706,0 -0.1547,0.1547 0.1547,0.4911 0,0.6458 -0.1547,0.1547 -0.49119,-0.1547 -0.64589,0 -0.1547,0.1547 0.1547,0.5124 0,0.6671 -0.1547,0.1547 -0.4483,0 -0.66708,0 l -1.31295,0 -4.59537,0 c -0.65633,0 -1.31155,0.1592 -1.94826,0 -0.94919,-0.2373 -1.71892,-1.0036 -2.64712,-1.3129 -0.6289,-0.2097 -2.67437,0.2026 -3.2824,0 -0.29351,-0.098 -0.36916,-0.5288 -0.64589,-0.6671 -0.39136,-0.1957 -0.9489,0.2427 -1.31296,0 -0.51487,-0.3433 -0.86483,-0.8755 -1.30238,-1.313 0,-0.2188 0.15471,-0.5123 0,-0.6671 -0.71415,-0.7141 -0.85771,1.1751 -1.31296,-0.6458 -0.15918,-0.6368 0,-1.3132 0,-1.9695 l 0,-3.92829 c 0,-0.65631 0.0928,-1.33033 0,-1.98003 -0.032,-0.22326 -0.0896,-0.44683 -0.13763,-0.66706 l -11.03312,0 0,34.58168 -26.682778,0 0,-13.1296 -7.22129,0 0,-2.6259 -3.20828,0 c -1.14604,-2.7349 -2.70162,-5.7954 -4.6695,-9.2013 -4.10233,-7.10023 -7.77095,-11.91431 -11.27664,-14.46378 l 14.41081,-89.21791 0.14824,0 c 5.21168,0 9.82826,-2.53779 12.69549,-6.43775 l 25.931008,12.38843 -0.57177,1.23885 4.79654,2.4671 0.6459,-1.38708 30.82285,14.72848 a 8.9528281,8.9528281 0 0 0 7.60247,8.03659 l 7.32718,1.1012 -2.55181,17.0579 3.06005,0.45531 -5.54833,37.10178 6.36364,0.95294 -2.72123,18.16974 4.54242,0.6776 2.72123,-18.16968 6.35303,0.95297 5.54834,-37.10178 3.04945,0.4553 9.99546,-66.85518 -8.14249,-1.21767 c -0.53417,-4.44097 -2.55831,-8.68762 -5.7389,-11.80608 -3.9125,-3.83599 -9.43602,-5.82997 -14.85554,-5.41068 -1.27915,-0.12266 -2.57191,-0.10403 -3.85418,0.0635 -4.48196,0.58595 -8.54203,2.87133 -11.90137,5.7495 -3.3529,2.87268 -6.07309,6.31034 -8.74601,9.67781 -2.67237,3.36682 -5.33988,6.70128 -8.48131,9.4131 -2.88805,2.49308 -6.25652,4.46587 -9.84723,5.18833 l 0.75179,-1.62003 -4.79656,-2.4777 -1.59885,3.44124 -5.56949,-2.66829 c -0.2671,-0.23585 -0.53842,-0.48111 -0.79414,-0.73059 -2.16678,-2.11392 -3.9829,-4.68683 -5.95068,-7.21071 -5.54417,-7.1109 -12.039058,-13.36842 -18.805008,-19.18617 -1.42056,-1.22149 -2.9197,-2.49169 -4.70126,-3.42007 -2.38337,-1.24195 -5.06276,-1.73306 -7.70834,-1.5565 -0.0996,0.007 -0.1969,0.0229 -0.29648,0.0318 -0.68608,-0.0897 -1.37274,-0.13201 -2.06474,-0.13762 z m 130.173828,148.51295 -0.0212,0 c -0.16407,0 -0.0374,0.275 0,0.4871 0.001,-0.1929 0.0163,-0.3459 0.0212,-0.4871 z M 74.032032,866.04928 c 1.46524,0.21354 2.89103,0.64946 4.21419,1.30238 1.62488,0.80177 3.13398,1.94566 4.6589,3.15536 7.1871,5.70146 13.96533,11.91667 19.916788,18.88969 0.96697,1.13299 1.93436,2.30752 2.93299,3.46242 l -14.929648,-7.126 c -0.19095,-8.53365 -7.16548,-15.39554 -15.74497,-15.39554 -8.69953,4e-5 -15.74495,7.05601 -15.74495,15.75555 0,4.81276 2.1573,9.11789 5.55891,12.00727 l -8.36485,51.78787 c -0.9054,-19.56987 -1.89702,-39.13091 0.42355,-58.42682 0.45154,-3.75466 1.03092,-7.44747 2.16004,-10.95899 1.12791,-3.50787 2.83619,-6.84869 5.28361,-9.44487 2.15434,-2.28526 4.90129,-3.98485 7.87777,-4.70124 0.57752,-0.13893 1.16636,-0.2451 1.75767,-0.30708 z m -8.56602,1.26003 c -0.93467,0.69111 -1.80778,1.4629 -2.60474,2.30828 -2.72491,2.89055 -4.55152,6.51318 -5.7495,10.23898 -1.19684,3.72214 -1.78754,7.55967 -2.24476,11.36136 -2.73595,22.75002 -0.91269,45.69741 0,68.43287 0.006,0.14827 0.0153,0.29644 0.0211,0.4447 l -2.28708,14.17788 c -0.12655,-4.90559 -0.30324,-9.81569 -0.52943,-14.71788 -1.0518,-22.79895 -3.15895,-45.67066 -0.0211,-68.07285 0.52891,-3.77621 1.20322,-7.49891 2.43533,-11.01196 1.23091,-3.50951 3.04596,-6.82281 5.58009,-9.39191 1.55536,-1.57684 3.39994,-2.86704 5.4001,-3.76947 z m 101.034568,4.05536 c 3.59647,0.42729 7.08164,2.1032 9.59308,4.75419 2.37075,2.50246 3.85931,5.87071 4.26712,9.34957 l -8.58719,-1.2812 -4.51066,30.14519 -7.31658,-1.10119 a 8.9528281,8.9528281 0 0 0 -7.17894,2.08591 l -28.94869,-13.82845 c 4.41327,-0.7494 8.44687,-2.99751 11.86959,-5.7601 3.58696,-2.89518 6.56812,-6.36068 9.51898,-9.75193 2.95033,-3.39063 5.90726,-6.74454 9.32839,-9.43426 3.41509,-2.68504 7.37621,-4.69582 11.54136,-5.14597 0.14022,-0.0153 0.283,-0.0203 0.42354,-0.0318 z m 10.14368,2.39297 c 1.13402,0.67634 2.1893,1.48778 3.13417,2.41417 2.68041,2.62798 4.46705,6.20519 5.05066,9.96367 l -2.30826,-0.33882 c -0.35648,-4.12473 -2.08632,-8.12288 -4.92361,-11.11783 -0.30593,-0.32293 -0.62445,-0.62426 -0.95296,-0.92119 z"
         style="fill:#007ed5;fill-opacity:1;stroke:none"
         inkscape:connector-curvature="0" />
      <path
         inkscape:connector-curvature="0"
         id="rect9191"
         d="m 404.95173,1135.731 c -3.02353,0.033 -7.73039,1.031 -14.57622,2.4744 -7.9105,1.6678 -12.90607,2.7186 -15.43097,4.1839 l -0.31494,-0.1349 c -0.033,-0.012 -0.13921,0.2002 -0.31492,0.5399 -2.7173,-0.024 -4.90752,0.1379 -6.79323,0.4949 -2.4622,0.4661 -4.31586,1.2463 -5.7585,2.2044 -2.8853,1.9162 -4.5721,4.3548 -8.72771,7.0182 -20.43926,13.0997 -30.72054,25.6701 -32.16667,41.2093 l -53.53606,9.6724 c -3.18578,0.5751 -3.39975,13.8513 -0.44987,29.7823 l 2.11445,11.382 c 0.83772,4.5242 1.85225,8.6835 2.92426,12.4168 3.33194,-4.0374 8.39283,-6.6133 14.03634,-6.6133 9.83871,0 17.82383,7.8261 18.13026,17.5904 l 23.03401,-4.1839 c -1.07116,-3.3221 -1.66455,-6.8502 -1.66455,-10.5272 0,-18.9623 15.36374,-34.4161 34.32606,-34.4161 18.44374,0 33.55885,14.5942 34.37106,32.8415 l 1.34964,-0.2249 c 3.18581,-0.5751 3.39974,-13.8513 0.4499,-29.7822 l -2.11445,-11.3821 c -2.94988,-15.931 -7.88133,-28.3329 -11.06713,-27.7578 l -7.69299,1.3947 c 1.51839,-3.5721 3.20507,-7.5761 5.08368,-12.1469 1.66992,-4.0631 3.12441,-7.6893 4.45383,-11.0221 13.68676,15.227 13.9893,14.7661 20.7396,-5.8935 4.78046,-14.6307 6.24686,-19.1921 -0.40488,-19.12 z m 41.97408,8.5928 c 1.62197,3.2901 0.55384,5.8725 -2.15947,7.558 -2.71329,1.6856 -7.11101,2.4357 -11.92189,1.9345 -6.8476,-0.7133 -14.27926,-3.6182 -19.83983,-7.513 l -1.52959,0.8098 c 6.14897,4.3069 14.27387,7.5227 21.95429,8.3228 5.47097,0.5699 10.3234,-0.2892 13.40652,-2.2044 3.08306,-1.9153 4.40416,-4.9494 2.51934,-8.7727 l -2.42937,-0.1349 z m -74.9955,0.4949 c 0.31352,-0.012 0.69384,0.01 1.03474,0 -0.0311,0.259 -0.001,0.5193 0.045,0.8098 -0.18264,0.4063 -0.5117,1.1935 -0.71983,1.6645 -0.60211,0.069 -1.21669,0.1261 -1.75455,0.2249 -2.48412,0.4555 -4.13644,1.2158 -5.53354,2.1145 -2.79424,1.7973 -4.43196,4.0863 -8.5028,6.6132 -18.94667,11.7608 -28.95857,23.0164 -31.1319,36.6655 l -0.80979,0.1349 c 1.64183,-14.7714 11.46326,-26.6113 31.22187,-39.2748 4.53498,-2.9065 6.42102,-5.4862 8.72773,-7.0182 1.15337,-0.7659 2.33605,-1.2783 4.13893,-1.6195 0.90143,-0.1706 1.97497,-0.2621 3.28416,-0.315 z m -0.44988,4.3639 c -1.7959,4.1276 -4.06732,9.4538 -6.83821,16.1957 -4.17114,10.1487 -7.58118,18.7209 -8.72777,21.9993 l -26.58805,4.8138 c 2.35806,-12.9922 12.05155,-23.6598 30.3221,-35.001 4.41456,-2.7402 6.22759,-5.1498 8.5028,-6.6132 0.985,-0.6336 1.9832,-1.0853 3.32913,-1.3946 z m 90.60644,1.5295 c 2.40515,3.2901 0.82928,5.8725 -3.19419,7.5581 -4.02345,1.6856 -10.54652,2.4356 -17.68038,1.9345 -10.15409,-0.7133 -21.17681,-3.6183 -29.42236,-7.5131 l -2.24942,0.7648 c 9.1181,4.307 21.13749,7.5228 32.52654,8.3229 8.11272,0.5699 15.35802,-0.2442 19.92981,-2.1595 4.57181,-1.9152 6.529,-4.9944 3.73404,-8.8177 l -3.64404,-0.09 z m -56.01045,9.2226 1.03473,1.7996 c 8.66521,-0.1612 18.64192,1.876 26.40813,5.7135 5.45624,2.6961 9.56999,6.3413 11.24706,9.8074 1.67713,3.4662 1.00076,6.7315 -3.05917,8.9077 l 2.65428,1.4846 c 4.71794,-2.5289 5.50475,-6.4087 3.59908,-10.3473 -1.90569,-3.9385 -6.48182,-8.001 -12.68671,-11.0671 -8.71073,-4.3043 -19.61522,-6.4766 -29.1974,-6.2984 z m 57.18014,0.315 c -2.41206,2.3724 -4.5701,5.0197 -6.38833,7.8729 -2.91273,4.5706 -4.97954,9.8322 -5.08368,15.251 -0.0523,2.7095 0.39912,5.4158 1.43963,7.918 1.04047,2.5022 2.64567,4.7942 4.76874,6.4783 0.53909,0.4276 1.14968,0.7896 1.75452,1.1247 -2.96873,1.2856 -5.03866,4.197 -5.03866,7.648 l 0,63.4335 -23.70882,0 c -0.32077,0 -0.58487,3.6074 -0.58487,8.0979 0,3.3394 0.15304,6.1808 0.35992,7.4231 l -65.50297,0 c 15.47995,-2.594 27.2629,-16.086 27.2629,-32.3016 0,-18.0663 -14.64013,-32.7065 -32.70647,-32.7065 -18.06634,0 -32.7515,14.6402 -32.7515,32.7065 0,16.2156 11.82051,29.7076 27.3079,32.3016 l -68.42718,0 -28.16268,0 0,2.3394 254.94866,0 0,-2.3394 -17.86034,0 c 0.20678,-1.2423 0.35991,-4.0837 0.35991,-7.4231 0,-4.4905 -0.26413,-8.0979 -0.58486,-8.0979 l -23.16897,0 0,-63.4335 c 0,-3.1393 -1.69773,-5.8557 -4.22891,-7.2881 0.80543,-0.4595 1.50215,-1.0956 1.97949,-1.8895 0.28797,-0.4791 0.50924,-0.9874 0.7648,-1.4846 0.46274,-0.9002 1.09434,-1.7281 1.66456,-2.5644 0.57026,-0.8362 1.10405,-1.7173 1.34967,-2.6992 0.32165,-1.2859 0.10901,-2.6472 -0.40489,-3.869 -0.51402,-1.2218 -1.3191,-2.295 -2.24942,-3.2392 -1.86067,-1.8883 -4.1821,-3.3187 -5.98345,-5.2636 -2.21048,-2.3866 -3.57609,-5.526 -3.77901,-8.7727 -0.20285,-3.2467 0.75819,-6.5793 2.65431,-9.2226 z m -177.29887,125.2474 c 9.36955,0 16.96056,-7.591 16.96056,-16.9606 0,-9.3696 -7.59101,-17.0056 -16.96056,-17.0056 -9.36958,0 -16.9606,7.636 -16.9606,17.0056 0,9.3696 7.59102,16.9606 16.9606,16.9606 z m 118.63412,-120.5237 0.85479,1.4847 c 6.78753,-0.1352 14.56625,1.5901 20.64963,4.8137 4.27394,2.2647 7.50401,5.3663 8.81771,8.2779 1.31368,2.9115 0.75079,5.64 -2.42938,7.468 l 2.11443,1.2597 c 3.6956,-2.1243 4.28202,-5.4194 2.78929,-8.7277 -1.49273,-3.3084 -5.03705,-6.6922 -9.89743,-9.2677 -6.82322,-3.6156 -15.39322,-5.4583 -22.89904,-5.3086 z m -44.76334,70.0018 c 10.07235,0 18.22026,8.1479 18.22026,18.2203 0,10.0724 -8.14791,18.2652 -18.22026,18.2652 -10.07238,0 -18.26527,-8.1928 -18.26527,-18.2652 0,-10.0724 8.19289,-18.2203 18.26527,-18.2203 z m -73.87078,24.0688 c 5.2237,0 9.44752,4.2688 9.44752,9.4925 0,5.2237 -4.22382,9.4475 -9.44752,9.4475 -5.22375,0 -9.44755,-4.2238 -9.44755,-9.4475 0,-5.2237 4.2238,-9.4925 9.44755,-9.4925 z"
         style="fill:#09b1b6;fill-opacity:1;stroke:none" />
      <path
         style="fill:#008000;fill-opacity:1;stroke:none"
         d="m 577.13723,1072.606 0,215.2305 122.16902,0 0,-215.2305 -122.16902,0 z m 21.48387,11.0966 79.22244,0 c 2.21758,2e-4 4.41439,0.9202 5.98246,2.4883 1.56806,1.568 2.48805,3.7649 2.48828,5.9824 l 0,118.8231 c -2.3e-4,2.2176 -0.92022,4.425 -2.48828,5.9931 -1.56807,1.568 -3.76488,2.4774 -5.98246,2.4776 l -25.00979,0 c -1.83844,-0.1403 -3.20306,-0.3124 -3.34594,-0.4552 -1.48896,-1.489 -2.80236,-7.7585 -2.81653,-13.4368 -0.0129,-5.1066 -0.30735,-6.9314 -1.63061,-10.1436 -0.88725,-2.1539 -1.61834,-4.4399 -1.62002,-5.0825 -0.006,-2.1072 2.56978,-6.3318 3.85418,-6.3318 0.66669,0 1.57549,-0.4463 2.02238,-0.9848 0.53622,-0.646 1.99301,-0.9741 4.2883,-0.9741 3.55628,0 9.56793,-1.3007 11.9649,-2.5836 0.85515,-0.4576 1.70871,-2.0587 2.36122,-4.4471 2.53199,-9.2681 3.07705,-10.6118 4.98714,-12.219 1.07268,-0.9026 2.47181,-1.6412 3.10239,-1.6412 2.46734,0 1.89627,-0.9524 -1.06943,-1.7894 -5.82846,-1.645 -8.98615,-2.1548 -10.9484,-1.7683 -10.04243,1.978 -15.98849,8.3439 -15.98849,17.1109 0,4.1297 -2.39501,6.6093 -6.23658,6.4589 -2.55906,-0.1003 -2.56674,-0.112 -3.06005,-3.3671 -0.80489,-5.3114 1.04987,-17.6378 3.16595,-21.0286 0.49616,-0.7951 0.90001,-1.8558 0.90001,-2.3612 0,-1.6777 2.69343,-7.0324 3.73769,-7.4331 0.56517,-0.2168 1.85223,-0.083 2.85888,0.2965 2.29501,0.8663 2.53578,0.2861 1.53532,-3.6848 -0.46967,-1.8641 -1.27064,-3.2538 -2.11769,-3.6848 -0.74829,-0.3806 -1.92123,-1.3875 -2.61532,-2.2447 -1.19778,-1.4792 -1.28722,-1.5033 -1.62004,-0.2965 -0.19287,0.6994 -0.32294,3.0871 -0.29646,5.2942 0.0387,3.2276 -0.34866,4.8189 -1.98004,8.1531 -1.11559,2.2801 -2.44667,5.617 -2.95417,7.4119 -0.6631,2.3452 -1.25266,3.2612 -2.08591,3.2612 -1.84433,0 -3.52499,-3.9131 -3.50477,-8.1425 0.0209,-4.3609 -1.13837,-7.4518 -3.74829,-10.0378 -2.88114,-2.8547 -6.65925,-4.4788 -11.27665,-4.8495 l -4.19301,-0.3388 0.36001,6.5225 c 0.54609,9.9103 2.87522,13.5141 10.11192,15.6179 1.94806,0.5663 4.47546,0.8596 5.61186,0.6564 1.70591,-0.3049 2.40697,-0.025 4.02359,1.6201 1.91202,1.9455 1.96808,2.1873 2.28711,9.9425 0.17966,4.368 0.62345,8.5257 0.9953,9.2437 0.37184,0.7179 0.66952,3.0662 0.65647,5.2201 -0.023,3.8084 -0.0757,3.9235 -1.87414,4.1294 -3.9552,0.453 -7.87198,-2.6815 -9.90016,-7.9201 -0.69194,-1.7872 -2.10017,-3.5268 -4.06596,-5.0189 -2.7937,-2.1205 -3.34682,-2.2881 -7.63422,-2.2659 -6.84355,0.035 -11.36943,1.6419 -15.51201,5.5059 -3.19666,2.9818 -3.33752,3.2357 -1.8318,3.2719 3.10163,0.075 6.8464,2.4339 10.44017,6.5754 4.76123,5.4868 6.55112,7.1706 8.36484,7.8671 2.40678,0.9244 6.39859,0.6762 10.42957,-0.6459 8.41223,-2.7589 10.45777,-2.2725 14.72848,3.4413 l 2.49885,3.3353 -0.29647,5.5907 c -0.44873,8.4814 -0.0887,8.1855 -10.72604,8.6296 -0.15296,0.01 -0.28389,0.015 -0.43414,0.021 l -34.11584,0 c -2.21758,-3e-4 -4.42498,-0.9097 -5.99303,-2.4777 -1.56806,-1.5681 -2.47747,-3.7755 -2.47768,-5.9931 l 0,-118.823 c 2.1e-4,-2.2176 0.90962,-4.4145 2.47768,-5.9825 1.56805,-1.5681 3.77545,-2.488 5.99303,-2.4882 z m 3.34595,160.7532 3.35652,0 0,16.6238 -3.35652,0 0,-16.6238 z m 52.94202,0 3.34593,0 0,6.406 c 0.46172,-0.6979 0.97376,-1.2078 1.53532,-1.5353 0.56154,-0.3347 1.20765,-0.4977 1.93767,-0.4977 1.29158,0 2.35726,0.5828 3.18712,1.7577 0.82984,1.1677 1.23882,2.677 1.23884,4.5212 -2e-5,1.8442 -0.409,3.3463 -1.23884,4.5213 -0.82986,1.1677 -1.89554,1.7576 -3.18712,1.7576 -0.73002,0 -1.37613,-0.1595 -1.93767,-0.487 -0.56156,-0.3348 -1.0736,-0.8587 -1.53532,-1.5565 l 0,1.7365 -3.34593,0 0,-16.6238 z m -67.3952,0.6776 5.41067,0 c 1.94048,0 3.34689,0.326 4.21419,0.9953 0.87352,0.6694 1.31295,1.745 1.31295,3.2189 0,0.7762 -0.15826,1.4424 -0.47647,1.9906 -0.31822,0.5412 -0.78186,0.9437 -1.38708,1.2071 0.77368,0.2564 1.37574,0.7282 1.80004,1.4189 0.42425,0.6907 0.63528,1.5372 0.63529,2.5412 -10e-6,1.538 -0.45495,2.6865 -1.3659,3.4412 -0.91098,0.7548 -2.30187,1.133 -4.16124,1.133 l -5.98245,0 0,-15.9462 z m 94.61798,0.5824 3.34593,0 0,3.3989 3.46242,0 0,2.7318 -3.46242,0 0,5.0718 c 0,0.5553 0.10308,0.9336 0.29648,1.133 0.19343,0.1922 0.56951,0.2859 1.14355,0.2858 l 1.72591,0 0,2.7425 -2.86946,0 c -1.32277,0 -2.26119,-0.3158 -2.81652,-0.9424 -0.54906,-0.6338 -0.82589,-1.7094 -0.82589,-3.2189 l 0,-5.0718 -1.66238,0 0,-2.7318 1.66238,0 0,-3.3989 z m -91.00735,2.213 0,3.3776 1.99064,0 c 0.56778,2e-4 0.99852,-0.1492 1.29179,-0.4341 0.29323,-0.2848 0.44469,-0.7046 0.44469,-1.26 0,-0.5482 -0.15146,-0.9646 -0.44469,-1.2494 -0.29327,-0.292 -0.72401,-0.4341 -1.29179,-0.4341 l -1.99064,0 z m 22.42625,0.9 c 1.80321,0 3.20339,0.5516 4.21419,1.6624 1.01702,1.1108 1.52472,2.6513 1.52474,4.6165 -2e-5,1.9653 -0.50772,3.5058 -1.52474,4.6166 -1.0108,1.1108 -2.41098,1.6623 -4.21419,1.6623 -1.80945,0 -3.23325,-0.5515 -4.25652,-1.6623 -1.01706,-1.1108 -1.52474,-2.6513 -1.52474,-4.6166 0,-1.9652 0.50768,-3.5057 1.52474,-4.6165 1.02327,-1.1108 2.44707,-1.6624 4.25652,-1.6624 z m 13.17198,0 c 1.80321,0 3.21397,0.5516 4.22478,1.6624 1.01702,1.1108 1.52471,2.6513 1.52473,4.6165 -2e-5,1.9653 -0.50771,3.5058 -1.52473,4.6166 -1.01081,1.1108 -2.42157,1.6623 -4.22478,1.6623 -1.80946,0 -3.22267,-0.5515 -4.24596,-1.6623 -1.01703,-1.1108 -1.52471,-2.6513 -1.52471,-4.6166 0,-1.9652 0.50768,-3.5057 1.52471,-4.6165 1.02329,-1.1108 2.4365,-1.6624 4.24596,-1.6624 z m 14.72846,0 c 0.72377,0 1.36119,0.1942 1.9165,0.593 0.55531,0.3986 0.973,0.9643 1.26003,1.6835 0.42429,-0.7405 0.92327,-1.3096 1.50356,-1.6941 0.5865,-0.3917 1.22825,-0.5824 1.92709,-0.5824 1.2042,0 2.12277,0.4232 2.75298,1.2706 0.63017,0.8473 0.95293,2.079 0.95297,3.6953 l 0,7.2849 -3.37772,0 0,-6.2366 c 0.006,-0.092 0.009,-0.1968 0.009,-0.2965 0.006,-0.1 0.009,-0.2384 0.009,-0.4235 -10e-6,-0.8474 -0.10984,-1.465 -0.32824,-1.8424 -0.21839,-0.3844 -0.57216,-0.5717 -1.05885,-0.5717 -0.63642,0 -1.12237,0.3018 -1.47178,0.9 -0.34318,0.5981 -0.52754,1.462 -0.54,2.5941 l 0,5.8766 -3.36711,0 0,-6.2366 c -3e-5,-1.3245 -0.0969,-2.185 -0.29648,-2.5624 -0.19968,-0.3844 -0.5578,-0.5717 -1.06943,-0.5717 -0.64268,0 -1.13297,0.3053 -1.48238,0.9105 -0.34941,0.5982 -0.52943,1.4551 -0.52943,2.573 l 0,5.8872 -3.36711,0 0,-11.9649 3.36711,0 0,1.7471 c 0.41181,-0.6765 0.87791,-1.183 1.40827,-1.5248 0.53658,-0.3418 1.13617,-0.5082 1.77885,-0.5082 z m 32.17817,0 c 1.80321,0 3.21396,0.5516 4.22477,1.6624 1.01704,1.1108 1.52472,2.6513 1.52474,4.6165 -2e-5,1.9653 -0.5077,3.5058 -1.52474,4.6166 -1.01081,1.1108 -2.42156,1.6623 -4.22477,1.6623 -1.80945,0 -3.22267,-0.5515 -4.24594,-1.6623 -1.01704,-1.1108 -1.52474,-2.6513 -1.52474,-4.6166 0,-1.9652 0.5077,-3.5057 1.52474,-4.6165 1.02327,-1.1108 2.43649,-1.6624 4.24594,-1.6624 z m -60.07861,2.7318 c -0.7425,10e-5 -1.31164,0.3088 -1.70473,0.9212 -0.38686,0.6052 -0.58235,1.4795 -0.58235,2.6259 0,1.1464 0.19549,2.0242 0.58235,2.6365 0.39309,0.6053 0.96223,0.9106 1.70473,0.9106 0.73002,0 1.28612,-0.3053 1.67297,-0.9106 0.38684,-0.6123 0.58236,-1.4901 0.58236,-2.6365 0,-1.1464 -0.19552,-2.0207 -0.58236,-2.6259 -0.38685,-0.6124 -0.94295,-0.9212 -1.67297,-0.9212 z m 13.17198,0 c -0.74251,10e-5 -1.31166,0.3088 -1.70473,0.9212 -0.38685,0.6052 -0.58237,1.4795 -0.58237,2.6259 0,1.1464 0.19552,2.0242 0.58237,2.6365 0.39307,0.6053 0.96222,0.9106 1.70473,0.9106 0.73001,0 1.28611,-0.3053 1.67296,-0.9106 0.38685,-0.6123 0.58237,-1.4901 0.58238,-2.6365 -10e-6,-1.1464 -0.19553,-2.0207 -0.58238,-2.6259 -0.38685,-0.6124 -0.94295,-0.9212 -1.67296,-0.9212 z m 46.90663,0 c -0.7425,10e-5 -1.31165,0.3088 -1.70473,0.9212 -0.38685,0.6052 -0.57178,1.4795 -0.57178,2.6259 0,1.1464 0.18493,2.0242 0.57178,2.6365 0.39308,0.6053 0.96223,0.9106 1.70473,0.9106 0.73002,0 1.2967,-0.3053 1.68356,-0.9106 0.38684,-0.6123 0.57177,-1.4901 0.57178,-2.6365 -10e-6,-1.1464 -0.18494,-2.0207 -0.57178,-2.6259 -0.38686,-0.6124 -0.95354,-0.9212 -1.68356,-0.9212 z m -13.15079,0.042 c -0.71755,10e-5 -1.26496,0.3054 -1.6518,0.9106 -0.3806,0.598 -0.57177,1.462 -0.57177,2.5942 0,1.1321 0.19117,1.9995 0.57177,2.6047 0.38684,0.5981 0.93425,0.9 1.6518,0.9 0.71752,0 1.26681,-0.3019 1.6412,-0.9 0.3806,-0.5981 0.57177,-1.4655 0.57178,-2.6047 -10e-6,-1.1393 -0.19118,-2.0066 -0.57178,-2.6048 -0.37439,-0.5981 -0.92368,-0.8999 -1.6412,-0.9 z m -69.35407,2.4989 0,4.1718 2.1071,0 c 0.72377,0 1.26872,-0.17 1.63063,-0.5188 0.36812,-0.3489 0.55058,-0.8728 0.55059,-1.5777 -10e-6,-0.6906 -0.17813,-1.2147 -0.54001,-1.5565 -0.3619,-0.3489 -0.91119,-0.5188 -1.64121,-0.5188 l -2.1071,0 z"
         id="rect6029"
         inkscape:connector-curvature="0" />
      <g
         transform="matrix(0.33882894,0,0,0.33882894,133.82816,689.95163)"
         id="g7277"
         style="fill:#aa0000">
        <path
           id="rect4282"
           transform="translate(-59.875,0)"
           d="m -162.71875,1252.9688 a 19.626241,19.626241 0 0 0 -19.625,19.625 l 0,472.3437 a 19.626241,19.626241 0 0 0 19.625,19.625 l 335.34375,0 a 19.626241,19.626241 0 0 0 19.625,-19.625 l 0,-472.3437 a 19.626241,19.626241 0 0 0 -19.625,-19.625 l -335.34375,0 z m 50.75,45.2812 233.8125,0 a 21.962109,21.962109 0 0 1 21.96875,21.9688 l 0,270.5937 a 21.962109,21.962109 0 0 1 -21.96875,21.9687 l -233.8125,0 a 21.962109,21.962109 0 0 1 -21.96875,-21.9687 l 0,-270.5937 a 21.962109,21.962109 0 0 1 21.96875,-21.9688 z m 91.21875,347.2188 25.6875,0 25.6875,0 3.03125,1.4374 c 5.80255,2.7377 9.24503,7.375 10.15625,13.7188 0.76272,5.3101 0.42485,65.2614 -0.375,66.7188 -1.70041,3.0979 -4.30463,4.7887 -7.375,4.8124 -2.75878,0.021 -5.31173,-1.3576 -6.8125,-3.625 l -1.1875,-1.7812 -0.21875,-32.4375 -0.21875,-32.4375 -7.125,0 -7.125,0 -0.21875,32.1875 c -0.23262,34.661 -0.13625,32.941 -2.5625,35.5625 -1.63217,1.7636 -3.35885,2.5625 -5.65625,2.5625 -2.29741,0 -4.02408,-0.7989 -5.65625,-2.5625 -2.42625,-2.6215 -2.32988,-0.9015 -2.5625,-35.5625 L -3.5,1661.875 l -7.125,0 -7.125,0 -0.21875,32.4062 c -0.22694,34.0408 -0.16108,33.164 -2.09375,35.375 -1.35917,1.5551 -4.85084,2.8539 -6.75,2.5313 -2.3056,-0.3916 -2.91295,-0.6499 -4.34375,-1.9063 -3.19779,-2.8076 -2.99735,-0.5321 -3.15625,-34.9062 -0.15638,-33.8291 -0.0033,-36.4272 2.125,-40.625 1.63009,-3.2152 4.75895,-6.123 8.40625,-7.8438 l 3.03125,-1.4374 z"
           style="font-size:medium;font-style:normal;font-variant:normal;font-weight:normal;font-stretch:normal;text-indent:0;text-align:start;text-decoration:none;line-height:normal;letter-spacing:normal;word-spacing:normal;text-transform:none;direction:ltr;block-progression:tb;writing-mode:lr-tb;text-anchor:start;baseline-shift:baseline;color:#000000;fill:#aa0000;fill-opacity:1;fill-rule:nonzero;stroke:none;stroke-width:39.24855804;marker:none;visibility:visible;display:inline;overflow:visible;enable-background:accumulate;font-family:Sans;-inkscape-font-specification:Sans"
           inkscape:connector-curvature="0" />
        <g
           transform="translate(-405.04225,-50.366197)"
           id="g5918"
           style="fill:#aa0000">
          <rect
             style="fill:#aa0000;fill-opacity:1;stroke:none"
             id="rect5833"
             width="312.4415"
             height="14.843707"
             x="189.97408"
             y="1463.4125" />
          <rect
             style="fill:#aa0000;fill-opacity:1;stroke:none"
             id="rect5841"
             width="100.72515"
             height="71.037743"
             x="285.95551"
             y="1397.676" />
          <rect
             style="fill:#aa0000;fill-opacity:1;stroke:none"
             id="rect5843"
             width="22.26556"
             height="33.968369"
             x="343.08694"
             y="1452.8098" />
          <path
             style="fill:#aa0000;fill-opacity:1;stroke:none"
             d="m 343.08444,1486.3895 5.55574,12.642 2.21095,5.0418 6.67068,0 2.21097,-5.0418 5.55573,-12.642 -11.0926,0 -11.11147,0 z"
             id="path5845"
             inkscape:connector-curvature="0" />
        </g>
        <g
           transform="translate(-411.04225,5.6338028)"
           id="g5933"
           style="fill:#aa0000">
          <g
             id="g5914"
             transform="translate(-16,0)"
             style="fill:#aa0000">
            <path
               id="rect5839"
               d="m 305.46103,1556.7157 93.3033,0 0,55.1338 -93.3033,0 z"
               style="fill:#aa0000;fill-opacity:1;stroke:none"
               inkscape:connector-curvature="0" />
            <path
               id="rect5912"
               d="m 269.94214,1548.2336 164.34103,0 0,20.1451 -164.34103,0 z"
               style="fill:#aa0000;fill-opacity:1;stroke:none"
               inkscape:connector-curvature="0" />
          </g>
          <path
             inkscape:connector-curvature="0"
             id="path5947"
             d="m 307.53017,1549.2825 30.96875,-1.1563 0,-0.375 18.375,0.6563 c 0,0 21.79171,-45.8875 -1.15625,-59.6563 -22.94797,-13.7688 17.21875,-39 17.21875,-39 l -47.0625,0 0,0.8437 -34.40625,0 c 0,0 40.13547,25.2312 17.1875,39 -22.94796,13.7689 -1.125,59.6876 -1.125,59.6876 z"
             style="fill:#aa0000;stroke:none" />
        </g>
      </g>
      <path
         id="path8143"
         d="m 749.43401,926.14185 c -0.33885,0.0201 -0.69812,0.0776 -1.03511,0.18633 -0.87304,-0.0292 -1.86734,0.14367 -2.83634,0.55898 l -112.95647,48.40399 -89.5205,0 a 7.6500882,7.6500882 0 0 0 -7.63944,7.63947 l 0,13.80901 c 5.04758,-6.01725 12.61701,-9.85471 21.07583,-9.85471 15.1594,0 27.45236,12.29302 27.45236,27.45238 0,6.7007 -2.40778,12.8428 -6.39725,17.6184 l 110.59628,0 c -0.0329,-0.3156 -0.0415,-0.6283 -0.0415,-0.9524 0,-5.0725 4.11966,-9.1921 9.19223,-9.1921 4.66873,0 8.50342,3.5015 9.08868,8.0121 l 13.70546,8.7574 c 1.61625,1.0339 3.47497,0.3331 4.18207,-1.5734 0.7071,-1.9065 -0.0193,-4.2868 -1.63555,-5.3207 l -15.23755,-9.7512 0,-39.00478 a 7.6500882,7.6500882 0 0 0 -7.63945,-7.63947 l -46.74772,0 94.2822,-40.39187 23.56016,47.12039 c 0.80354,1.6068 2.91922,2.23446 4.76178,1.42853 l 0.70388,-0.28985 c 1.84252,-0.80594 2.68749,-2.76157 1.884,-4.36835 l -25.44415,-50.86768 c -0.60263,-1.20509 -1.9398,-1.86382 -3.35393,-1.78047 z m 3.91293,63.04113 c -1.27562,-0.029 -2.53542,0.43431 -3.62306,1.49062 -1.30228,1.26476 -1.87911,2.59538 -3.00196,6.83204 -1.06154,4.00536 -1.85746,5.63986 -3.3953,6.95626 -2.30668,1.9744 -5.39158,2.4933 -10.60005,1.7598 -6.26119,-0.8818 -9.62715,-0.5028 -12.50473,1.4078 -2.72128,1.8068 -4.10831,4.7288 -3.54019,7.4945 0.62727,3.0541 2.74487,4.6203 7.8258,5.8176 5.71852,1.3476 7.08145,2.2847 9.17149,6.2938 0.79002,1.5154 1.60223,2.9562 1.80114,3.209 0.58795,0.747 2.29093,1.6756 3.08477,1.6769 0.40549,7e-4 2.03366,-0.6415 3.62307,-1.4285 3.44128,-1.704 5.08508,-2.0114 6.43867,-1.1594 1.12422,0.7076 1.64972,1.6874 2.0496,3.8508 0.54054,2.9239 2.35633,4.8579 5.32073,5.6727 0.12985,0.036 0.2627,0.052 0.39339,0.083 l -229.66019,0 0,0.5383 259.57624,0 0,-0.5383 -24.67816,0 c 1.67646,-0.2992 3.6645,-0.8317 6.21096,-1.6563 4.76838,-1.5439 7.77702,-2.9744 10.20664,-4.8859 3.95381,-3.1107 6.08678,-7.2855 5.6934,-11.0969 -0.63576,-6.1597 -7.14442,-9.7772 -11.34537,-6.3145 -0.58542,0.4826 -1.90444,1.9922 -2.91914,3.3747 -2.18846,2.9816 -3.52842,3.9336 -5.63126,3.9336 -1.01679,0 -1.67461,-0.1959 -2.42226,-0.7039 -2.58594,-1.7572 -3.14467,-5.9293 -1.78051,-13.4985 0.97115,-5.3884 1.20504,-10.32366 0.57973,-12.46332 -1.1924,-4.08008 -4.06712,-6.58201 -6.87345,-6.64569 z m -196.82496,0.55898 c -13.60177,0 -24.59538,10.99364 -24.59538,24.59534 0,13.6017 10.99361,24.5954 24.59538,24.5954 13.60168,0 24.59537,-10.9937 24.59537,-24.5954 0,-13.6017 -10.99369,-24.59534 -24.59537,-24.59534 z m 0.2484,14.36794 c 5.03813,0 9.13012,4.0714 9.13012,9.1094 0,5.0381 -4.09199,9.1301 -9.13012,9.1301 -5.03804,0 -9.10935,-4.092 -9.10935,-9.1301 0,-5.038 4.07131,-9.1094 9.10935,-9.1094 z m 140.55381,19.1712 c -4.27951,0 -7.72228,3.4427 -7.72228,7.7222 0,4.2796 3.44277,7.743 7.72228,7.743 4.27947,0 7.74298,-3.4634 7.74298,-7.743 0,-4.2795 -3.46351,-7.7222 -7.74298,-7.7222 z m 0,2.8984 c 2.6672,0 4.82384,2.1566 4.82384,4.8238 0,2.6673 -2.15664,4.8446 -4.82384,4.8446 -2.66723,0 -4.82388,-2.1773 -4.82388,-4.8446 0,-2.6672 2.15665,-4.8238 4.82388,-4.8238 z"
         style="font-size:medium;font-style:normal;font-variant:normal;font-weight:normal;font-stretch:normal;text-indent:0;text-align:start;text-decoration:none;line-height:normal;letter-spacing:normal;word-spacing:normal;text-transform:none;direction:ltr;block-progression:tb;writing-mode:lr-tb;text-anchor:start;baseline-shift:baseline;color:#000000;fill:#a417cb;fill-opacity:1;fill-rule:nonzero;stroke:none;stroke-width:23.09225464;marker:none;visibility:visible;display:inline;overflow:visible;enable-background:accumulate;font-family:Sans;-inkscape-font-specification:Sans"
         inkscape:connector-curvature="0" />
      <path
         inkscape:connector-curvature="0"
         id="rect11115"
         d="m 326.15819,873.44668 0,64.84565 44.28264,0 0,24.17057 -32.07711,0 0,81.8762 93.81122,0 0,-81.8762 -32.06207,0 0,-24.17057 44.26762,0 0,-64.84565 -118.2223,0 z m 24.08037,5.3061 c 0.17737,-0.009 0.36146,0 0.54113,0 5.74964,0 10.38673,4.62204 10.38673,10.3717 l 0,13.84396 c 0,5.74965 -4.63709,10.37169 -10.38673,10.37169 -5.74964,0 -10.3717,-4.62204 -10.3717,-10.37169 l 0,-13.84396 c 0,-5.56998 4.33177,-10.09477 9.83057,-10.3717 z m 68.97929,0 c 0.17738,-0.009 0.36144,0 0.54113,0 5.74964,0 10.38673,4.62204 10.38673,10.3717 l 0,13.84396 c 0,5.74965 -4.63709,10.37169 -10.38673,10.37169 -5.74966,0 -10.37169,-4.62204 -10.37169,-10.37169 l 0,-13.84396 c 0,-5.56998 4.33177,-10.09477 9.83056,-10.3717 z m -75.00688,20.7434 c -0.88526,1.155 -1.39796,2.56381 -1.39796,4.07351 0,3.95661 3.55913,7.17001 7.95165,7.17001 4.3925,0 7.95162,-3.2134 7.95162,-7.17001 0,-1.5097 -0.51267,-2.91851 -1.39792,-4.07351 l -13.10739,0 z m 68.28783,0.96199 c -0.50568,0.94188 -0.79666,1.99515 -0.79666,3.11152 0,3.95661 3.55911,7.17001 7.95161,7.17001 4.39253,0 7.95164,-3.2134 7.95164,-7.17001 0,-1.11514 -0.29206,-2.17042 -0.79666,-3.11152 l -14.30993,0 z m -61.9596,1.89398 c 1.8703,0 3.38206,1.51177 3.38206,3.38207 0,1.87032 -1.51176,3.39709 -3.38206,3.39709 -1.87032,0 -3.39712,-1.52677 -3.39712,-3.39709 0,-1.8703 1.5268,-3.38207 3.39712,-3.38207 z m 68.79889,0.19541 c 1.87032,0 3.38207,1.52679 3.38207,3.3971 0,1.87032 -1.51175,3.38208 -3.38207,3.38208 -1.87032,0 -3.38208,-1.51176 -3.38208,-3.38208 0,-1.87031 1.51176,-3.3971 3.38208,-3.3971 z m -51.57287,12.67151 35.00823,0 c 4.15402,0 7.50069,3.49373 7.50069,7.83137 0,4.33765 -3.34667,7.83139 -7.50069,7.83139 l -35.00823,0 c -4.15403,0 -7.5007,-3.49374 -7.5007,-7.83139 0,-4.33764 3.34667,-7.83137 7.5007,-7.83137 z m 3.51735,2.81088 -1.95409,1.63843 c 3.18533,3.75597 7.66714,6.36099 12.50617,7.27521 l 0.0301,0 c 4.84996,0.90938 9.9718,0.11186 14.30993,-2.23968 1.67682,-0.90894 3.23329,-2.03682 4.61465,-3.35201 l -1.75868,-1.84888 c -1.21787,1.15955 -2.59516,2.15984 -4.07351,2.9612 -3.8097,2.06512 -8.36721,2.78275 -12.62642,1.98416 -4.25919,-0.7986 -8.24528,-3.11347 -11.04812,-6.41843 z"
         style="fill:#ff7f2a;fill-opacity:1;stroke:none" />
    </g>
    <path
       id="path12063"
       d="m 52.084474,363.76157 c -0.35127,-0.002 -0.707941,0.002 -1.058851,0.0211 -0.93575,0.0496 -1.87992,0.1496 -2.795331,0.3494 -3.657039,0.79819 -6.98966,2.76042 -9.61428,5.42127 -2.8157,2.85454 -4.7702,6.43681 -6.07775,10.16487 -1.30629,3.72454 -1.99394,7.60375 -2.53062,11.43548 -3.182959,22.72486 -1.0488,45.72001 0,68.45405 0.40622,8.80518 0.634421,17.61592 0.72002,26.42865 l -0.688249,4.27774 c -3.82728,2.3025 -7.811989,7.3613 -12.32491,15.1838 -1.963603,3.4035 -3.525523,6.4573 -4.669483,9.1907 l -3.2082898,0 0,2.6259 -5.25186,0 0,13.1296 0,6.5649 0,2.6259 207.1938998,0 0,-9.1908 -13.14021,0 0,-34.5817 -4.57418,0 c -0.007,0.5899 -0.015,1.3091 -0.0212,1.3341 -0.11862,0.4746 -0.54844,0.8384 -0.66708,1.313 -0.16335,0.6534 0.20387,3.5206 0,3.9283 -0.0979,0.1957 -0.4806,-0.1547 -0.63529,0 -6.9e-4,0 6.8e-4,1.9666 0,1.9695 -0.43535,1.306 -0.61287,0.2958 -1.31296,0.6458 -0.27674,0.1384 -0.4483,0.4483 -0.66707,0.6671 -0.21879,0.2188 -0.50754,0.3692 -0.6459,0.6459 -0.0979,0.1957 0.1547,0.5124 0,0.6671 -0.1547,0.1546 -0.47139,-0.098 -0.66707,0 -0.55347,0.2767 -0.7489,1.0362 -1.30237,1.3129 -0.19569,0.098 -0.51238,-0.1547 -0.66708,0 -0.15469,0.1547 0.1547,0.5124 0,0.6671 -0.15469,0.1547 -0.43834,-0.069 -0.64589,0 -4.75407,1.5847 1.02374,-0.1995 -1.98003,1.3024 -0.39135,0.1957 -0.99298,-0.3094 -1.30237,0 -0.1547,0.1547 0.0979,0.4502 0,0.6459 -0.85075,1.7015 -1.22672,-0.5476 -1.29179,1.3129 0.18849,0.048 -0.0212,0.8796 -0.0212,0.6671 -0.27673,0.5535 -1.03623,0.7489 -1.31295,1.3024 -0.0979,0.1956 0,0.4483 0,0.667 0,0.8926 0.34271,2.121 -0.66708,2.626 -0.38723,0.1936 -1.51799,-0.1505 -1.96944,0 -0.46409,0.1546 -0.84887,0.4912 -1.31297,0.6459 -0.4151,0.1383 -0.9216,-0.1957 -1.31295,0 -0.27674,0.1383 -0.35238,0.5586 -0.6459,0.6564 -0.41509,0.1384 -0.86481,0 -1.30237,0 l -1.33413,0 -5.24128,0 -1.98002,0 c -0.21878,0 -0.48061,0.1548 -0.63531,0 -0.15469,-0.1547 0.15469,-0.5017 0,-0.6564 -0.15469,-0.1547 -0.56922,0.1956 -0.66708,0 -0.32646,-0.653 0.25968,-1.8291 0,-1.9589 -0.21701,-0.1085 -2.78785,0 -3.29298,0 -0.56333,0 -4.89192,0.1165 -5.24126,0 -0.29352,-0.098 -0.36297,-0.5692 -0.65648,-0.6671 -0.41509,-0.1383 -0.89787,0.1384 -1.31297,0 -0.92921,-0.3097 -1.0478,-1.9938 -1.98003,-2.6153 -0.40703,-0.2713 -0.90592,-0.3957 -1.31296,-0.6671 -0.51486,-0.3432 -0.7489,-1.0362 -1.30238,-1.3129 -0.19568,-0.098 -0.43365,0.053 -0.64589,0 -0.85387,-0.2135 -2.46762,-0.7698 -3.2824,-1.313 -0.51487,-0.3432 -0.72592,-1.1067 -1.31297,-1.3024 -0.38399,-0.1279 -3.38613,0 -3.94947,0 -0.21878,0 -0.4502,0.098 -0.64588,0 -1.62206,-0.811 0.22623,-0.6458 -1.31297,-0.6458 -0.43116,0 -2.48217,0.077 -2.63652,0 -0.19567,-0.098 0.1547,-0.5125 0,-0.6671 -0.34591,-0.346 -0.90592,-0.3957 -1.31295,-0.6671 -0.25745,-0.1716 -0.36915,-0.5075 -0.6459,-0.6459 -0.28031,-0.1402 -3.02296,0 -3.28241,0 -0.29558,0 -1.78028,-0.1 -1.98003,0 -0.27672,0.1384 -0.38845,0.4743 -0.64589,0.6459 -0.40704,0.2714 -0.89534,0.3957 -1.30237,0.6671 -0.25745,0.1716 -0.39034,0.5287 -0.66708,0.6671 -0.19567,0.098 -0.51236,-0.1548 -0.66706,0 -0.1547,0.1547 0.1547,0.4911 0,0.6458 -0.1547,0.1547 -0.49118,-0.1547 -0.64589,0 -0.1547,0.1547 0.1547,0.5124 0,0.6671 -0.1547,0.1547 -0.4483,0 -0.66708,0 l -1.31295,0 -4.59537,0 c -0.65633,0 -1.31155,0.1592 -1.94826,0 -0.94918,-0.2373 -1.71892,-1.0036 -2.64712,-1.3129 -0.6289,-0.2097 -2.67436,0.2026 -3.2824,0 -0.29351,-0.098 -0.36916,-0.5288 -0.64588,-0.6671 -0.39137,-0.1957 -0.9489,0.2427 -1.31297,0 -0.51486,-0.3433 -0.86483,-0.8755 -1.30237,-1.313 0,-0.2188 0.1547,-0.5123 0,-0.6671 -0.71416,-0.7141 -0.85771,1.1751 -1.31297,-0.6458 -0.15918,-0.6368 0,-1.3132 0,-1.9695 l 0,-3.9283 c 0,-0.6563 0.0928,-1.3303 0,-1.98 -0.032,-0.2233 -0.0896,-0.4469 -0.13763,-0.6671 l -11.033122,0 0,34.5817 -26.68277,0 0,-13.1296 -7.22129,0 0,-2.6259 -3.208286,0 c -1.14604,-2.7349 -2.70162,-5.7954 -4.6695,-9.2013 -4.10233,-7.1002 -7.77095,-11.9143 -11.27664,-14.4638 l 14.41081,-89.2179 0.14824,0 c 5.211686,0 9.828266,-2.53779 12.695496,-6.43775 l 25.93101,12.38843 -0.57178,1.23885 4.79654,2.4671 0.6459,-1.38708 30.822852,14.72848 a 8.9528281,8.9528281 0 0 0 7.60247,8.03659 l 7.32718,1.1012 -2.55181,17.0579 3.06005,0.45531 -5.54833,37.10177 6.36364,0.9529 -2.72122,18.1698 4.54241,0.6776 2.72123,-18.1697 6.35303,0.953 5.54834,-37.1018 3.04945,0.4553 9.99546,-66.85518 -8.14249,-1.21767 c -0.53417,-4.44097 -2.55831,-8.68762 -5.7389,-11.80608 -3.9125,-3.83599 -9.43602,-5.82997 -14.85554,-5.41068 -1.27915,-0.12266 -2.57191,-0.10403 -3.85418,0.0635 -4.48196,0.58595 -8.54203,2.87133 -11.90137,5.7495 -3.3529,2.87268 -6.07309,6.31034 -8.74601,9.67781 -2.67237,3.36682 -5.33988,6.70128 -8.48131,9.4131 -2.88805,2.49308 -6.25652,4.46587 -9.84723,5.18833 l 0.75179,-1.62003 -4.796562,-2.4777 -1.59885,3.44124 -5.56949,-2.66829 c -0.2671,-0.23585 -0.53842,-0.48111 -0.79414,-0.73059 -2.16678,-2.11392 -3.9829,-4.68683 -5.95068,-7.21071 -5.54417,-7.1109 -12.03905,-13.36842 -18.805,-19.18617 -1.42056,-1.22149 -2.9197,-2.49169 -4.70126,-3.42007 -2.38337,-1.24195 -5.062766,-1.73306 -7.708346,-1.5565 -0.0996,0.007 -0.1969,0.0229 -0.29648,0.0318 -0.68608,-0.0897 -1.37274,-0.13201 -2.06474,-0.13762 z m 130.173826,148.51296 -0.0212,0 c -0.16407,0 -0.0374,0.275 0,0.4871 0.001,-0.1929 0.0163,-0.3459 0.0212,-0.4871 z M 54.075083,366.0063 c 1.46524,0.21354 2.89103,0.64946 4.214195,1.30238 1.62488,0.80177 3.13398,1.94566 4.6589,3.15536 7.1871,5.70146 13.96533,11.91667 19.91679,18.88969 0.96697,1.13299 1.93435,2.30752 2.93299,3.46242 l -14.92965,-7.126 c -0.19095,-8.53365 -7.16548,-15.39554 -15.744976,-15.39554 -8.69953,4e-5 -15.74495,7.05601 -15.74495,15.75555 0,4.81276 2.1573,9.11789 5.55891,12.00727 l -8.36485,51.78787 c -0.9054,-19.56987 -1.89702,-39.13091 0.42355,-58.42682 0.45154,-3.75466 1.03092,-7.44747 2.16004,-10.95899 1.12791,-3.50787 2.83619,-6.84869 5.28361,-9.44487 2.15434,-2.28526 4.90129,-3.98485 7.87777,-4.70124 0.57752,-0.13893 1.16636,-0.2451 1.75767,-0.30708 z m -8.56602,1.26003 c -0.934669,0.69111 -1.807779,1.4629 -2.604741,2.30828 -2.724909,2.89055 -4.551519,6.51318 -5.749499,10.23898 -1.196839,3.72214 -1.787541,7.55967 -2.24476,11.36136 -2.735951,22.75002 -0.91269,45.69741 0,68.43287 0.006,0.14827 0.0153,0.29644 0.0211,0.4447 l -2.287081,14.17788 c -0.126549,-4.90559 -0.30324,-9.81569 -0.529431,-14.71788 -1.0518,-22.79895 -3.15895,-45.67066 -0.0211,-68.07285 0.52891,-3.77621 1.20322,-7.49891 2.43533,-11.01196 1.23091,-3.50951 3.04596,-6.82281 5.58009,-9.39191 1.55536,-1.57684 3.39994,-2.86704 5.4001,-3.76947 z m 101.034567,4.05536 c 3.59648,0.42729 7.08164,2.1032 9.59308,4.75419 2.37075,2.50246 3.85931,5.87071 4.26712,9.34957 l -8.58719,-1.2812 -4.51066,30.14519 -7.31657,-1.10119 a 8.9528281,8.9528281 0 0 0 -7.17894,2.08591 l -28.9487,-13.82845 c 4.41328,-0.7494 8.44687,-2.99751 11.8696,-5.7601 3.58696,-2.89518 6.56811,-6.36068 9.51897,-9.75193 2.95034,-3.39063 5.90727,-6.74454 9.3284,-9.43426 3.41509,-2.68504 7.37621,-4.69582 11.54135,-5.14597 0.14022,-0.0153 0.283,-0.0203 0.42354,-0.0318 z m 10.14368,2.39297 c 1.13402,0.67634 2.1893,1.48778 3.13417,2.41417 2.68041,2.62798 4.46705,6.20519 5.05066,9.96367 l -2.30826,-0.33882 c -0.35648,-4.12473 -2.08632,-8.12288 -4.9236,-11.11783 -0.30593,-0.32293 -0.62445,-0.62426 -0.95296,-0.92119 z"
       style="fill:#007ed5;fill-opacity:1;stroke:none"
       inkscape:connector-curvature="0" />
    <path
       inkscape:connector-curvature="0"
       id="path12065"
       d="m 365.13695,590.40823 c -3.02353,0.033 -7.73039,1.031 -14.57622,2.4744 -7.9105,1.6678 -12.90607,2.7186 -15.43097,4.1839 l -0.31494,-0.1349 c -0.033,-0.012 -0.13921,0.2002 -0.31492,0.5399 -2.7173,-0.024 -4.90752,0.1379 -6.79323,0.4949 -2.4622,0.4661 -4.31586,1.2463 -5.7585,2.2044 -2.8853,1.9162 -4.5721,4.3548 -8.72771,7.0182 -20.43926,13.0997 -30.72054,25.6701 -32.16667,41.2093 l -53.53607,9.6724 c -3.18578,0.5751 -3.39974,13.8513 -0.44986,29.7823 l 2.11444,11.38199 c 0.83772,4.5242 1.85226,8.6835 2.92426,12.4168 3.33194,-4.0374 8.39284,-6.6133 14.03634,-6.6133 9.83872,0 17.82384,7.8261 18.13027,17.5904 l 23.03401,-4.1839 c -1.07116,-3.3221 -1.66455,-6.8502 -1.66455,-10.5272 0,-18.96229 15.36374,-34.41609 34.32606,-34.41609 18.44374,0 33.55885,14.5942 34.37106,32.84149 l 1.34964,-0.2249 c 3.18581,-0.5751 3.39974,-13.8513 0.4499,-29.78219 l -2.11445,-11.3821 c -2.94988,-15.931 -7.88133,-28.3329 -11.06713,-27.7578 l -7.69299,1.3947 c 1.51839,-3.5721 3.20507,-7.5761 5.08368,-12.1469 1.66992,-4.0631 3.12441,-7.6893 4.45383,-11.0221 13.68676,15.227 13.9893,14.7661 20.7396,-5.8935 4.78046,-14.6307 6.24686,-19.1921 -0.40488,-19.12 z m 41.97408,8.5928 c 1.62196,3.2901 0.55384,5.8725 -2.15947,7.558 -2.71329,1.6856 -7.11101,2.4357 -11.92189,1.9345 -6.8476,-0.7133 -14.27927,-3.6182 -19.83984,-7.513 l -1.52958,0.8098 c 6.14897,4.3069 14.27387,7.5227 21.95429,8.3228 5.47097,0.5699 10.3234,-0.2892 13.40652,-2.2044 3.08306,-1.9153 4.40416,-4.9494 2.51934,-8.7727 l -2.42937,-0.1349 z m -74.9955,0.4949 c 0.31352,-0.012 0.69384,0.01 1.03474,0 -0.0311,0.259 -10e-4,0.5193 0.045,0.8098 -0.18264,0.4063 -0.5117,1.1935 -0.71983,1.6645 -0.60211,0.069 -1.21669,0.1261 -1.75455,0.2249 -2.48412,0.4555 -4.13644,1.2158 -5.53354,2.1145 -2.79424,1.7973 -4.43196,4.0863 -8.5028,6.6132 -18.94667,11.7608 -28.95857,23.0164 -31.1319,36.6655 l -0.80979,0.1349 c 1.64183,-14.7714 11.46325,-26.6113 31.22187,-39.2748 4.53498,-2.9065 6.42102,-5.4862 8.72773,-7.0182 1.15337,-0.7659 2.33605,-1.2783 4.13893,-1.6195 0.90143,-0.1706 1.97497,-0.2621 3.28416,-0.315 z m -0.44988,4.3639 c -1.7959,4.1276 -4.06732,9.4538 -6.83821,16.1957 -4.17114,10.1487 -7.58119,18.7209 -8.72778,21.9993 l -26.58805,4.8138 c 2.35807,-12.9922 12.05156,-23.6598 30.3221,-35.001 4.41456,-2.7402 6.22759,-5.1498 8.5028,-6.6132 0.985,-0.6336 1.9832,-1.0853 3.32913,-1.3946 z m 90.60644,1.5295 c 2.40515,3.2901 0.82928,5.8725 -3.19419,7.5581 -4.02345,1.6856 -10.54652,2.4356 -17.68038,1.9345 -10.15409,-0.7133 -21.17681,-3.6183 -29.42236,-7.5131 l -2.24942,0.7648 c 9.1181,4.307 21.13749,7.5228 32.52654,8.3229 8.11272,0.5699 15.35802,-0.2442 19.92981,-2.1595 4.57181,-1.9152 6.529,-4.9944 3.73404,-8.8177 l -3.64405,-0.09 z m -56.01045,9.2226 1.03473,1.7996 c 8.66521,-0.1612 18.64192,1.876 26.40813,5.7135 5.45624,2.6961 9.56999,6.3413 11.24706,9.8074 1.67713,3.4662 1.00076,6.7315 -3.05917,8.9077 l 2.65428,1.4846 c 4.71794,-2.5289 5.50475,-6.4087 3.59908,-10.3473 -1.90569,-3.9385 -6.48182,-8.001 -12.68671,-11.0671 -8.71073,-4.3043 -19.61522,-6.4766 -29.1974,-6.2984 z m 57.18014,0.315 c -2.41206,2.3724 -4.5701,5.0197 -6.38833,7.8729 -2.91273,4.5706 -4.97954,9.8322 -5.08368,15.251 -0.0523,2.7095 0.39912,5.4158 1.43963,7.918 1.04047,2.5022 2.64567,4.7942 4.76874,6.4783 0.53909,0.4276 1.14968,0.7896 1.75452,1.1247 -2.96873,1.2856 -5.03866,4.197 -5.03866,7.648 l 0,63.43349 -23.70882,0 c -0.32077,0 -0.58487,3.6074 -0.58487,8.0979 0,3.3394 0.15304,6.1808 0.35992,7.4231 l -65.50297,0 c 15.47994,-2.594 27.2629,-16.086 27.2629,-32.3016 0,-18.06629 -14.64013,-32.70649 -32.70648,-32.70649 -18.06634,0 -32.7515,14.6402 -32.7515,32.70649 0,16.2156 11.82051,29.7076 27.3079,32.3016 l -68.42718,0 -28.16268,0 0,2.3394 254.94866,0 0,-2.3394 -17.86034,0 c 0.20678,-1.2423 0.35991,-4.0837 0.35991,-7.4231 0,-4.4905 -0.26413,-8.0979 -0.58486,-8.0979 l -23.16897,0 0,-63.43349 c 0,-3.1393 -1.69773,-5.8557 -4.22891,-7.2881 0.80543,-0.4595 1.50215,-1.0956 1.97949,-1.8895 0.28797,-0.4791 0.50924,-0.9874 0.7648,-1.4846 0.46274,-0.9002 1.09434,-1.7281 1.66456,-2.5644 0.57026,-0.8362 1.10405,-1.7173 1.34967,-2.6992 0.32165,-1.2859 0.10901,-2.6472 -0.40489,-3.869 -0.51402,-1.2218 -1.3191,-2.295 -2.24942,-3.2392 -1.86067,-1.8883 -4.1821,-3.3187 -5.98345,-5.2636 -2.21048,-2.3866 -3.57609,-5.526 -3.77901,-8.7727 -0.20285,-3.2467 0.75819,-6.5793 2.65431,-9.2226 z M 246.14291,740.17432 c 9.36955,0 16.96056,-7.591 16.96056,-16.9606 0,-9.3696 -7.59101,-17.0056 -16.96056,-17.0056 -9.36958,0 -16.9606,7.636 -16.9606,17.0056 0,9.3696 7.59102,16.9606 16.9606,16.9606 z m 118.63412,-120.52369 0.85479,1.4847 c 6.78753,-0.1352 14.56625,1.5901 20.64963,4.8137 4.27394,2.2647 7.50401,5.3663 8.81771,8.2779 1.31368,2.9115 0.75079,5.64 -2.42938,7.468 l 2.11443,1.2597 c 3.6956,-2.1243 4.28202,-5.4194 2.78929,-8.7277 -1.49273,-3.3084 -5.03705,-6.6922 -9.89743,-9.2677 -6.82322,-3.6156 -15.39322,-5.4583 -22.89904,-5.3086 z m -44.76334,70.0018 c 10.07235,0 18.22026,8.14789 18.22026,18.22029 0,10.0724 -8.14791,18.2652 -18.22026,18.2652 -10.07238,0 -18.26527,-8.1928 -18.26527,-18.2652 0,-10.0724 8.19289,-18.22029 18.26527,-18.22029 z m -73.87078,24.06879 c 5.2237,0 9.44752,4.2688 9.44752,9.4925 0,5.2237 -4.22382,9.4475 -9.44752,9.4475 -5.22375,0 -9.44755,-4.2238 -9.44755,-9.4475 0,-5.2237 4.2238,-9.4925 9.44755,-9.4925 z"
       style="fill:#09b1b6;fill-opacity:1;stroke:none" />
    <path
       style="fill:#008000;fill-opacity:1;stroke:none"
       d="m 549.2425,557.82641 0,215.2305 122.16902,0 0,-215.2305 -122.16902,0 z m 21.48387,11.0966 79.22244,0 c 2.21758,2e-4 4.41439,0.9202 5.98246,2.4883 1.56805,1.568 2.48805,3.7649 2.48828,5.9824 l 0,118.8231 c -2.3e-4,2.2176 -0.92022,4.425 -2.48828,5.9931 -1.56808,1.568 -3.76488,2.4774 -5.98246,2.4776 l -25.00979,0 c -1.83844,-0.1403 -3.20306,-0.3124 -3.34594,-0.4552 -1.48896,-1.489 -2.80236,-7.7585 -2.81653,-13.43679 -0.0129,-5.1066 -0.30736,-6.93141 -1.63062,-10.1436 -0.88725,-2.1539 -1.61834,-4.4399 -1.62001,-5.0825 -0.006,-2.1072 2.56978,-6.3318 3.85418,-6.3318 0.66669,0 1.57549,-0.4463 2.02238,-0.9848 0.53622,-0.646 1.99301,-0.9741 4.2883,-0.9741 3.55628,0 9.56793,-1.3007 11.9649,-2.58361 0.85515,-0.45759 1.70871,-2.0587 2.36122,-4.44709 2.53199,-9.2681 3.07705,-10.61181 4.98714,-12.21901 1.07268,-0.9026 2.47181,-1.6412 3.10239,-1.6412 2.46734,0 1.89626,-0.9524 -1.06943,-1.7894 -5.82846,-1.645 -8.98615,-2.1548 -10.9484,-1.7683 -10.04243,1.978 -15.98849,8.3439 -15.98849,17.1109 0,4.1297 -2.39501,6.6093 -6.23658,6.4589 -2.55906,-0.10029 -2.56674,-0.112 -3.06005,-3.3671 -0.80489,-5.3114 1.04987,-17.6378 3.16594,-21.0286 0.49617,-0.7951 0.90001,-1.8558 0.90001,-2.3612 0,-1.6777 2.69343,-7.0324 3.73769,-7.4331 0.56517,-0.2168 1.85223,-0.083 2.85888,0.2965 2.29502,0.8663 2.53579,0.2861 1.53532,-3.6848 -0.46967,-1.8641 -1.27064,-3.2538 -2.11769,-3.6848 -0.74829,-0.3806 -1.92123,-1.3875 -2.61532,-2.2447 -1.19778,-1.4792 -1.28722,-1.50329 -1.62004,-0.2965 -0.19287,0.6994 -0.32294,3.0871 -0.29646,5.2942 0.0387,3.22761 -0.34866,4.8189 -1.98004,8.1531 -1.11559,2.2801 -2.44667,5.617 -2.95417,7.4119 -0.6631,2.3452 -1.25266,3.2612 -2.08591,3.2612 -1.84433,0 -3.52499,-3.9131 -3.50477,-8.1425 0.0209,-4.3609 -1.13837,-7.4518 -3.74829,-10.0378 -2.88114,-2.8547 -6.65925,-4.47879 -11.27665,-4.8495 l -4.19301,-0.3388 0.36001,6.5225 c 0.54609,9.9103 2.87522,13.5141 10.11192,15.6179 1.94806,0.5663 4.47546,0.8596 5.61186,0.6564 1.70591,-0.3049 2.40697,-0.025 4.02359,1.6201 1.91202,1.9455 1.96808,2.1873 2.28711,9.9425 0.17966,4.368 0.62345,8.5257 0.9953,9.2437 0.37184,0.7179 0.66952,3.0662 0.65647,5.2201 -0.023,3.8084 -0.0757,3.9235 -1.87414,4.1294 -3.9552,0.453 -7.87198,-2.6815 -9.90016,-7.9201 -0.69194,-1.7872 -2.10017,-3.5268 -4.06596,-5.0189 -2.7937,-2.1205 -3.34682,-2.2881 -7.63422,-2.2659 -6.84355,0.035 -11.36943,1.6419 -15.51201,5.5059 -3.19666,2.9818 -3.33752,3.2357 -1.8318,3.2719 3.10163,0.075 6.8464,2.4339 10.44017,6.5754 4.76123,5.4868 6.55112,7.1706 8.36484,7.8671 2.40678,0.9244 6.39859,0.6762 10.42957,-0.6459 8.41223,-2.7589 10.45777,-2.2725 14.72848,3.4413 l 2.49885,3.3353 -0.29647,5.5907 c -0.44873,8.4814 -0.0887,8.1855 -10.72604,8.6296 -0.15296,0.01 -0.28389,0.015 -0.43414,0.021 l -34.11584,0 c -2.21758,-3e-4 -4.42498,-0.9097 -5.99303,-2.4777 -1.56806,-1.5681 -2.47747,-3.7755 -2.47768,-5.9931 l 0,-118.823 c 2.1e-4,-2.2176 0.90962,-4.4145 2.47768,-5.9825 1.56805,-1.5681 3.77545,-2.488 5.99303,-2.4882 z m 3.34595,160.7532 3.35652,0 0,16.6238 -3.35652,0 0,-16.6238 z m 52.94202,0 3.34593,0 0,6.406 c 0.46172,-0.6979 0.97375,-1.2078 1.53531,-1.5353 0.56154,-0.3347 1.20765,-0.4977 1.93767,-0.4977 1.29158,0 2.35726,0.5828 3.18713,1.7577 0.82984,1.1677 1.23882,2.677 1.23884,4.5212 -2e-5,1.8442 -0.409,3.3463 -1.23884,4.5213 -0.82987,1.1677 -1.89554,1.7576 -3.18713,1.7576 -0.73001,0 -1.37613,-0.1595 -1.93767,-0.487 -0.56156,-0.3348 -1.0736,-0.8587 -1.53531,-1.5565 l 0,1.7365 -3.34593,0 0,-16.6238 z m -67.3952,0.6776 5.41066,0 c 1.94048,0 3.3469,0.326 4.2142,0.9953 0.87352,0.6694 1.31295,1.745 1.31295,3.2189 0,0.7762 -0.15827,1.4424 -0.47647,1.9906 -0.31822,0.5412 -0.78186,0.9437 -1.38708,1.2071 0.77368,0.2564 1.37574,0.7282 1.80004,1.4189 0.42425,0.6907 0.63528,1.5372 0.63529,2.5412 -10e-6,1.538 -0.45495,2.6865 -1.3659,3.4412 -0.91098,0.7548 -2.30187,1.133 -4.16124,1.133 l -5.98245,0 0,-15.9462 z m 94.61797,0.5824 3.34593,0 0,3.3989 3.46242,0 0,2.7318 -3.46242,0 0,5.0718 c 0,0.5553 0.10308,0.9336 0.29648,1.133 0.19343,0.1922 0.56951,0.2859 1.14355,0.2858 l 1.72591,0 0,2.7425 -2.86946,0 c -1.32277,0 -2.26119,-0.3158 -2.81652,-0.9424 -0.54906,-0.6338 -0.82589,-1.7094 -0.82589,-3.2189 l 0,-5.0718 -1.66237,0 0,-2.7318 1.66237,0 0,-3.3989 z m -91.00734,2.213 0,3.3776 1.99064,0 c 0.56777,2e-4 0.99851,-0.1492 1.29178,-0.4341 0.29323,-0.2848 0.4447,-0.7046 0.4447,-1.26 0,-0.5482 -0.15147,-0.9646 -0.4447,-1.2494 -0.29327,-0.292 -0.72401,-0.4341 -1.29178,-0.4341 l -1.99064,0 z m 22.42625,0.9 c 1.80321,0 3.20339,0.5516 4.21419,1.6624 1.01702,1.1108 1.52472,2.6513 1.52473,4.6165 -10e-6,1.9653 -0.50771,3.5058 -1.52473,4.6166 -1.0108,1.1108 -2.41098,1.6623 -4.21419,1.6623 -1.80945,0 -3.23325,-0.5515 -4.25653,-1.6623 -1.01706,-1.1108 -1.52473,-2.6513 -1.52473,-4.6166 0,-1.9652 0.50768,-3.5057 1.52473,-4.6165 1.02328,-1.1108 2.44708,-1.6624 4.25653,-1.6624 z m 13.17197,0 c 1.80322,0 3.21397,0.5516 4.22478,1.6624 1.01702,1.1108 1.52472,2.6513 1.52473,4.6165 -10e-6,1.9653 -0.50771,3.5058 -1.52473,4.6166 -1.01081,1.1108 -2.42156,1.6623 -4.22478,1.6623 -1.80945,0 -3.22267,-0.5515 -4.24596,-1.6623 -1.01702,-1.1108 -1.52471,-2.6513 -1.52471,-4.6166 0,-1.9652 0.50769,-3.5057 1.52471,-4.6165 1.02329,-1.1108 2.43651,-1.6624 4.24596,-1.6624 z m 14.72847,0 c 0.72376,0 1.36118,0.1942 1.9165,0.593 0.55531,0.3986 0.973,0.9643 1.26003,1.6835 0.42429,-0.7405 0.92327,-1.3096 1.50356,-1.6941 0.5865,-0.3917 1.22825,-0.5824 1.92709,-0.5824 1.2042,0 2.12277,0.4232 2.75298,1.2706 0.63017,0.8473 0.95293,2.079 0.95297,3.6953 l 0,7.2849 -3.37772,0 0,-6.2366 c 0.006,-0.092 0.009,-0.1968 0.009,-0.2965 0.006,-0.1 0.009,-0.2384 0.009,-0.4235 -10e-6,-0.8474 -0.10984,-1.465 -0.32824,-1.8424 -0.21839,-0.3844 -0.57216,-0.5717 -1.05885,-0.5717 -0.63642,0 -1.12237,0.3018 -1.47178,0.9 -0.34318,0.5981 -0.52754,1.462 -0.54,2.5941 l 0,5.8766 -3.36711,0 0,-6.2366 c -3e-5,-1.3245 -0.0969,-2.185 -0.29648,-2.5624 -0.19968,-0.3844 -0.5578,-0.5717 -1.06943,-0.5717 -0.64268,0 -1.13297,0.3053 -1.48238,0.9105 -0.34941,0.5982 -0.52943,1.4551 -0.52943,2.573 l 0,5.8872 -3.36711,0 0,-11.9649 3.36711,0 0,1.7471 c 0.41181,-0.6765 0.87791,-1.183 1.40827,-1.5248 0.53658,-0.3418 1.13617,-0.5082 1.77885,-0.5082 z m 32.17817,0 c 1.80321,0 3.21396,0.5516 4.22477,1.6624 1.01704,1.1108 1.52472,2.6513 1.52474,4.6165 -2e-5,1.9653 -0.5077,3.5058 -1.52474,4.6166 -1.01081,1.1108 -2.42156,1.6623 -4.22477,1.6623 -1.80945,0 -3.22267,-0.5515 -4.24594,-1.6623 -1.01704,-1.1108 -1.52474,-2.6513 -1.52474,-4.6166 0,-1.9652 0.5077,-3.5057 1.52474,-4.6165 1.02327,-1.1108 2.43649,-1.6624 4.24594,-1.6624 z m -60.07861,2.7318 c -0.7425,10e-5 -1.31165,0.3088 -1.70474,0.9212 -0.38685,0.6052 -0.58235,1.4795 -0.58235,2.6259 0,1.1464 0.19549,2.0242 0.58235,2.6365 0.39309,0.6053 0.96223,0.9106 1.70474,0.9106 0.73001,0 1.28611,-0.3053 1.67296,-0.9106 0.38684,-0.6123 0.58236,-1.4901 0.58236,-2.6365 0,-1.1464 -0.19552,-2.0207 -0.58236,-2.6259 -0.38685,-0.6124 -0.94295,-0.9212 -1.67296,-0.9212 z m 13.17197,0 c -0.74251,10e-5 -1.31165,0.3088 -1.70473,0.9212 -0.38685,0.6052 -0.58237,1.4795 -0.58237,2.6259 0,1.1464 0.19552,2.0242 0.58237,2.6365 0.39307,0.6053 0.96222,0.9106 1.70473,0.9106 0.73001,0 1.28611,-0.3053 1.67296,-0.9106 0.38685,-0.6123 0.58237,-1.4901 0.58238,-2.6365 -1e-5,-1.1464 -0.19553,-2.0207 -0.58238,-2.6259 -0.38685,-0.6124 -0.94295,-0.9212 -1.67296,-0.9212 z m 46.90663,0 c -0.7425,10e-5 -1.31165,0.3088 -1.70473,0.9212 -0.38685,0.6052 -0.57178,1.4795 -0.57178,2.6259 0,1.1464 0.18493,2.0242 0.57178,2.6365 0.39308,0.6053 0.96223,0.9106 1.70473,0.9106 0.73002,0 1.2967,-0.3053 1.68356,-0.9106 0.38684,-0.6123 0.57177,-1.4901 0.57178,-2.6365 -10e-6,-1.1464 -0.18494,-2.0207 -0.57178,-2.6259 -0.38686,-0.6124 -0.95354,-0.9212 -1.68356,-0.9212 z m -13.15079,0.042 c -0.71755,1e-4 -1.26496,0.3054 -1.6518,0.9106 -0.3806,0.598 -0.57177,1.462 -0.57177,2.5942 0,1.1321 0.19117,1.9995 0.57177,2.6047 0.38684,0.5981 0.93425,0.9 1.6518,0.9 0.71752,0 1.26681,-0.3019 1.6412,-0.9 0.3806,-0.5981 0.57177,-1.4655 0.57178,-2.6047 -1e-5,-1.1393 -0.19118,-2.0066 -0.57178,-2.6048 -0.37439,-0.5981 -0.92368,-0.8999 -1.6412,-0.9 z m -69.35407,2.4989 0,4.1718 2.1071,0 c 0.72377,0 1.26872,-0.17 1.63063,-0.5188 0.36812,-0.3489 0.55058,-0.8728 0.55059,-1.5777 -1e-5,-0.6906 -0.17813,-1.2147 -0.54001,-1.5565 -0.3619,-0.3489 -0.91119,-0.5188 -1.64121,-0.5188 l -2.1071,0 z"
       id="path12067"
       inkscape:connector-curvature="0" />
    <g
       transform="matrix(0.33882894,0,0,0.33882894,97.535823,160.03082)"
       id="g12069"
       style="fill:#aa0000">
      <path
         id="path12071"
         transform="translate(-59.875,0)"
         d="m -162.71875,1252.9688 a 19.626241,19.626241 0 0 0 -19.625,19.625 l 0,472.3437 a 19.626241,19.626241 0 0 0 19.625,19.625 l 335.34375,0 a 19.626241,19.626241 0 0 0 19.625,-19.625 l 0,-472.3437 a 19.626241,19.626241 0 0 0 -19.625,-19.625 l -335.34375,0 z m 50.75,45.2812 233.8125,0 a 21.962109,21.962109 0 0 1 21.96875,21.9688 l 0,270.5937 a 21.962109,21.962109 0 0 1 -21.96875,21.9687 l -233.8125,0 a 21.962109,21.962109 0 0 1 -21.96875,-21.9687 l 0,-270.5937 a 21.962109,21.962109 0 0 1 21.96875,-21.9688 z m 91.21875,347.2188 25.6875,0 25.6875,0 3.03125,1.4374 c 5.80255,2.7377 9.24503,7.375 10.15625,13.7188 0.76272,5.3101 0.42485,65.2614 -0.375,66.7188 -1.70041,3.0979 -4.30463,4.7887 -7.375,4.8124 -2.75878,0.021 -5.31173,-1.3576 -6.8125,-3.625 l -1.1875,-1.7812 -0.21875,-32.4375 -0.21875,-32.4375 -7.125,0 -7.125,0 -0.21875,32.1875 c -0.23262,34.661 -0.13625,32.941 -2.5625,35.5625 -1.63217,1.7636 -3.35885,2.5625 -5.65625,2.5625 -2.29741,0 -4.02408,-0.7989 -5.65625,-2.5625 -2.42625,-2.6215 -2.32988,-0.9015 -2.5625,-35.5625 L -3.5,1661.875 l -7.125,0 -7.125,0 -0.21875,32.4062 c -0.22694,34.0408 -0.16108,33.164 -2.09375,35.375 -1.35917,1.5551 -4.85084,2.8539 -6.75,2.5313 -2.3056,-0.3916 -2.91295,-0.6499 -4.34375,-1.9063 -3.19779,-2.8076 -2.99735,-0.5321 -3.15625,-34.9062 -0.15638,-33.8291 -0.0033,-36.4272 2.125,-40.625 1.63009,-3.2152 4.75895,-6.123 8.40625,-7.8438 l 3.03125,-1.4374 z"
         style="font-size:medium;font-style:normal;font-variant:normal;font-weight:normal;font-stretch:normal;text-indent:0;text-align:start;text-decoration:none;line-height:normal;letter-spacing:normal;word-spacing:normal;text-transform:none;direction:ltr;block-progression:tb;writing-mode:lr-tb;text-anchor:start;baseline-shift:baseline;color:#000000;fill:#aa0000;fill-opacity:1;fill-rule:nonzero;stroke:none;stroke-width:39.24855804;marker:none;visibility:visible;display:inline;overflow:visible;enable-background:accumulate;font-family:Sans;-inkscape-font-specification:Sans"
         inkscape:connector-curvature="0" />
      <g
         transform="translate(-405.04225,-50.366197)"
         id="g12073"
         style="fill:#aa0000">
        <rect
           style="fill:#aa0000;fill-opacity:1;stroke:none"
           id="rect12075"
           width="312.4415"
           height="14.843707"
           x="189.97408"
           y="1463.4125" />
        <rect
           style="fill:#aa0000;fill-opacity:1;stroke:none"
           id="rect12077"
           width="100.72515"
           height="71.037743"
           x="285.95551"
           y="1397.676" />
        <rect
           style="fill:#aa0000;fill-opacity:1;stroke:none"
           id="rect12079"
           width="22.26556"
           height="33.968369"
           x="343.08694"
           y="1452.8098" />
        <path
           style="fill:#aa0000;fill-opacity:1;stroke:none"
           d="m 343.08444,1486.3895 5.55574,12.642 2.21095,5.0418 6.67068,0 2.21097,-5.0418 5.55573,-12.642 -11.0926,0 -11.11147,0 z"
           id="path12081"
           inkscape:connector-curvature="0" />
      </g>
      <g
         transform="translate(-357.91813,5.6338028)"
         id="g12083"
         style="fill:#aa0000"
         inkscape:export-filename="/Users/Will/Dropbox/Apps/site44/test.willlangford.me/img/cute_makerbot_ani_4.png"
         inkscape:export-xdpi="90"
         inkscape:export-ydpi="90">
        <g
           id="g12085"
           transform="translate(-16,0)"
           style="fill:#aa0000">
          <path
             id="path12087"
             d="m 305.46103,1556.7157 93.3033,0 0,55.1338 -93.3033,0 z"
             style="fill:#aa0000;fill-opacity:1;stroke:none"
             inkscape:connector-curvature="0" />
          <path
             id="path12089"
             d="m 269.94214,1548.2336 164.34103,0 0,20.1451 -164.34103,0 z"
             style="fill:#aa0000;fill-opacity:1;stroke:none"
             inkscape:connector-curvature="0" />
        </g>
        <path
           inkscape:connector-curvature="0"
           id="path12091"
           d="m 307.53017,1549.2825 30.96875,-1.1563 0,-0.375 18.375,0.6563 c 0,0 21.79171,-45.8875 -1.15625,-59.6563 -22.94797,-13.7688 17.21875,-39 17.21875,-39 l -47.0625,0 0,0.8437 -34.40625,0 c 0,0 40.13547,25.2312 17.1875,39 -22.94796,13.7689 -1.125,59.6876 -1.125,59.6876 z"
           style="fill:#aa0000;stroke:none" />
      </g>
    </g>
    <path
       id="path12093"
       d="m 681.85517,395.79552 c -0.33885,0.0201 -0.69812,0.0776 -1.03511,0.18633 -0.87304,-0.0292 -1.86734,0.14367 -2.83634,0.55898 l -112.95646,48.40399 -89.5205,0 a 7.6500882,7.6500882 0 0 0 -7.63945,7.63947 l 0,13.809 c 5.04759,-6.0172 12.61702,-9.8547 21.07583,-9.8547 15.1594,0 27.45236,12.293 27.45236,27.4524 0,6.7007 -2.40778,12.8428 -6.39724,17.6184 l 110.59627,0 c -0.0329,-0.3156 -0.0415,-0.6283 -0.0415,-0.9524 0,-5.0725 4.11966,-9.1921 9.19223,-9.1921 4.66873,0 8.50342,3.5015 9.08868,8.0121 l 13.70546,8.7574 c 1.61625,1.0339 3.47497,0.3331 4.18207,-1.5734 0.7071,-1.9065 -0.0193,-4.2868 -1.63555,-5.3207 l -15.23755,-9.7512 0,-39.0048 a 7.6500882,7.6500882 0 0 0 -7.63945,-7.63947 l -46.74772,0 94.2822,-40.39187 23.56016,47.12039 c 0.80354,1.6068 2.91922,2.23446 4.76178,1.42853 l 0.70388,-0.28985 c 1.84252,-0.80594 2.68749,-2.76157 1.884,-4.36835 l -25.44415,-50.86768 c -0.60263,-1.20509 -1.9398,-1.86382 -3.35393,-1.78047 z m 3.91293,63.04117 c -1.27562,-0.029 -2.53542,0.4343 -3.62306,1.4906 -1.30228,1.2647 -1.87911,2.5954 -3.00196,6.832 -1.06154,4.0054 -1.85746,5.6399 -3.3953,6.9563 -2.30668,1.9744 -5.39158,2.4933 -10.60005,1.7598 -6.26119,-0.8818 -9.62715,-0.5028 -12.50473,1.4078 -2.72128,1.8068 -4.10831,4.7288 -3.54019,7.4945 0.62727,3.0541 2.74487,4.6203 7.8258,5.8176 5.71852,1.3476 7.08145,2.2847 9.17149,6.2938 0.79002,1.5154 1.60223,2.9562 1.80114,3.209 0.58795,0.747 2.29093,1.6756 3.08477,1.6769 0.40549,7e-4 2.03366,-0.6415 3.62307,-1.4285 3.44128,-1.704 5.08508,-2.0114 6.43867,-1.1594 1.12422,0.7076 1.64972,1.6874 2.0496,3.8508 0.54054,2.9239 2.35633,4.8579 5.32073,5.6727 0.12985,0.036 0.2627,0.052 0.39339,0.083 l -229.66019,0 0,0.5383 259.57624,0 0,-0.5383 -24.67816,0 c 1.67646,-0.2992 3.6645,-0.8317 6.21096,-1.6563 4.76838,-1.5439 7.77702,-2.9744 10.20664,-4.8859 3.95381,-3.1107 6.08678,-7.2855 5.6934,-11.0969 -0.63576,-6.1597 -7.14442,-9.7772 -11.34537,-6.3145 -0.58542,0.4826 -1.90444,1.9922 -2.91914,3.3747 -2.18846,2.9816 -3.52842,3.9336 -5.63126,3.9336 -1.01679,0 -1.67461,-0.1959 -2.42226,-0.7039 -2.58594,-1.7572 -3.14467,-5.9293 -1.78051,-13.4985 0.97115,-5.3884 1.20504,-10.3237 0.57973,-12.4633 -1.1924,-4.0801 -4.06712,-6.582 -6.87345,-6.6457 z m -196.82496,0.5589 c -13.60177,0 -24.59538,10.9937 -24.59538,24.5954 0,13.6017 10.99361,24.5954 24.59538,24.5954 13.60168,0 24.59537,-10.9937 24.59537,-24.5954 0,-13.6017 -10.99369,-24.5954 -24.59537,-24.5954 z m 0.2484,14.368 c 5.03813,0 9.13012,4.0714 9.13012,9.1094 0,5.0381 -4.09199,9.1301 -9.13012,9.1301 -5.03804,0 -9.10935,-4.092 -9.10935,-9.1301 0,-5.038 4.07131,-9.1094 9.10935,-9.1094 z m 140.55381,19.1712 c -4.27951,0 -7.72228,3.4427 -7.72228,7.7222 0,4.2796 3.44277,7.743 7.72228,7.743 4.27947,0 7.74298,-3.4634 7.74298,-7.743 0,-4.2795 -3.46351,-7.7222 -7.74298,-7.7222 z m 0,2.8984 c 2.6672,0 4.82384,2.1566 4.82384,4.8238 0,2.6673 -2.15664,4.8446 -4.82384,4.8446 -2.66723,0 -4.82388,-2.1773 -4.82388,-4.8446 0,-2.6672 2.15665,-4.8238 4.82388,-4.8238 z"
       style="font-size:medium;font-style:normal;font-variant:normal;font-weight:normal;font-stretch:normal;text-indent:0;text-align:start;text-decoration:none;line-height:normal;letter-spacing:normal;word-spacing:normal;text-transform:none;direction:ltr;block-progression:tb;writing-mode:lr-tb;text-anchor:start;baseline-shift:baseline;color:#000000;fill:#a417cb;fill-opacity:1;fill-rule:nonzero;stroke:none;stroke-width:23.09225464;marker:none;visibility:visible;display:inline;overflow:visible;enable-background:accumulate;font-family:Sans;-inkscape-font-specification:Sans"
       inkscape:connector-curvature="0" />
    <path
       inkscape:connector-curvature="0"
       id="path12095"
       d="m 1032.4088,735.345 0,64.84565 44.2827,0 0,24.17057 -32.0771,0 0,81.87629 93.8112,0 0,-81.87629 -32.0621,0 0,-24.17057 44.2676,0 0,-64.84565 -118.2223,0 z m 24.0804,5.3061 c 0.1774,-0.009 0.3615,0 0.5411,0 5.7497,0 10.3868,4.62204 10.3868,10.3717 l 0,13.84396 c 0,5.74965 -4.6371,10.37169 -10.3868,10.37169 -5.7496,0 -10.3717,-4.62204 -10.3717,-10.37169 l 0,-13.84396 c 0,-5.56998 4.3318,-10.09477 9.8306,-10.3717 z m 68.9793,0 c 0.1774,-0.009 0.3614,0 0.5411,0 5.7497,0 10.3868,4.62204 10.3868,10.3717 l 0,13.84396 c 0,5.74965 -4.6371,10.37169 -10.3868,10.37169 -5.7496,0 -10.3717,-4.62204 -10.3717,-10.37169 l 0,-13.84396 c 0,-5.56998 4.3318,-10.09477 9.8306,-10.3717 z m -75.0069,20.7434 c -0.8852,1.155 -1.3979,2.56381 -1.3979,4.07351 0,3.95661 3.5591,7.17001 7.9516,7.17001 4.3925,0 7.9516,-3.2134 7.9516,-7.17001 0,-1.5097 -0.5126,-2.91851 -1.3979,-4.07351 l -13.1074,0 z m 68.2878,0.96199 c -0.5056,0.94188 -0.7966,1.99515 -0.7966,3.11152 0,3.95661 3.5591,7.17001 7.9516,7.17001 4.3925,0 7.9516,-3.2134 7.9516,-7.17001 0,-1.11514 -0.292,-2.17042 -0.7966,-3.11152 l -14.31,0 z m -61.9596,1.89398 c 1.8703,0 3.3821,1.51177 3.3821,3.38207 0,1.87032 -1.5118,3.39709 -3.3821,3.39709 -1.8703,0 -3.3971,-1.52677 -3.3971,-3.39709 0,-1.8703 1.5268,-3.38207 3.3971,-3.38207 z m 68.7989,0.19541 c 1.8703,0 3.3821,1.52679 3.3821,3.3971 0,1.87032 -1.5118,3.38208 -3.3821,3.38208 -1.8703,0 -3.382,-1.51176 -3.382,-3.38208 0,-1.87031 1.5117,-3.3971 3.382,-3.3971 z m -51.5728,12.67151 35.0082,0 c 4.154,0 7.5007,3.49373 7.5007,7.83137 0,4.33765 -3.3467,7.83139 -7.5007,7.83139 l -35.0082,0 c -4.1541,0 -7.5007,-3.49374 -7.5007,-7.83139 0,-4.33764 3.3466,-7.83137 7.5007,-7.83137 z m 3.5173,2.81088 -1.9541,1.63843 c 3.1853,3.75597 7.6672,6.36099 12.5062,7.27521 l 0.03,0 c 4.85,0.90938 9.9718,0.11186 14.3099,-2.23968 1.6768,-0.90894 3.2333,-2.03682 4.6147,-3.35201 l -1.7587,-1.84888 c -1.2179,1.15955 -2.5952,2.15984 -4.0735,2.9612 -3.8097,2.06512 -8.3672,2.78275 -12.6264,1.98416 -4.2592,-0.7986 -8.2453,-3.11347 -11.0482,-6.41843 z"
       style="fill:#ff7f2a;fill-opacity:1;stroke:none" />
    <g
       id="g15171"
       transform="matrix(0.24285098,0,0,0.24285098,792.26168,970.39771)">
      <g
         id="g15173"
         style="fill:#a8b901;fill-opacity:1">
        <rect
           style="fill:#a8b901;fill-opacity:1;stroke:none"
           id="rect15175"
           width="331.42859"
           height="271.42859"
           x="88.571434"
           y="198.07648"
           ry="125.24912" />
        <g
           transform="matrix(0.99645988,0.08406967,-0.08406967,0.99645988,23.147588,-23.440757)"
           id="g15177"
           style="fill:#a8b901;fill-opacity:1">
          <g
             transform="translate(10,0)"
             id="g15179"
             style="fill:#a8b901;fill-opacity:1">
            <path
               style="fill:#a8b901;fill-opacity:1;stroke:none"
               d="m 402.11994,195.71643 c -38.23253,14.90833 -47.06409,62.20727 -39.4277,98.94168 10.70364,59.78115 29.6323,126.76 85.00467,158.82259 41.7877,24.78068 92.1061,15.48325 138.17781,17.59577 -13.67106,-9.4944 -36.59007,-11.91664 -52.35926,-22.47837 -46.70263,-28.52519 -84.53324,-73.3413 -102.18647,-126.30265 -16.01786,-40.69702 -19.19385,-85.20029 -20.34686,-128.69788 -2.48192,-2.31688 -6.0854,1.97866 -8.86219,2.11886 z"
               id="path15181"
               inkscape:connector-curvature="0" />
            <rect
               style="fill:#a8b901;fill-opacity:1;stroke:none"
               id="rect15183"
               width="197.14287"
               height="37.142857"
               x="293.71426"
               y="432.36218"
               ry="1.4807512" />
          </g>
          <rect
             ry="1.4807512"
             y="395.21933"
             x="337.14285"
             height="51.42857"
             width="117.14286"
             id="rect15185"
             style="fill:#a8b901;fill-opacity:1;stroke:none" />
        </g>
      </g>
      <path
         inkscape:connector-curvature="0"
         style="fill:#000000;fill-opacity:0;stroke:#a8b901;stroke-width:11;stroke-linecap:butt;stroke-linejoin:miter;stroke-miterlimit:4;stroke-opacity:1"
         d="M 40,309.50504 -194.28571,295.21932"
         id="path15187" />
      <path
         inkscape:connector-curvature="0"
         style="fill:#000000;fill-opacity:0;stroke:#a8b901;stroke-width:11;stroke-linecap:butt;stroke-linejoin:miter;stroke-miterlimit:4;stroke-opacity:1"
         d="M 19.999999,360.93361 -194.28571,346.6479"
         id="path15189" />
      <path
         inkscape:connector-curvature="0"
         style="fill:#000000;fill-opacity:0;stroke:#a8b901;stroke-width:11;stroke-linecap:butt;stroke-linejoin:miter;stroke-miterlimit:4;stroke-opacity:1"
         d="M 25.714286,420.93361 -191.42857,418.07647"
         id="path15191" />
    </g>
    <g
       id="g15193"
       transform="matrix(0.40749571,0,0,0.40749571,765.43635,882.98229)">
      <path
         transform="matrix(0.81818182,0,0,0.81818182,30.38961,70.689224)"
         d="m 251.42857,459.50504 c 0,46.54971 -37.736,84.28571 -84.28572,84.28571 -46.54971,0 -84.28571,-37.736 -84.28571,-84.28571 0,-46.54972 37.736,-84.28572 84.28571,-84.28572 46.54972,0 84.28572,37.736 84.28572,84.28572 z"
         sodipodi:ry="84.285713"
         sodipodi:rx="84.285713"
         sodipodi:cy="459.50504"
         sodipodi:cx="167.14285"
         id="path15195"
         style="fill:#ffffff;fill-opacity:1;stroke:none"
         sodipodi:type="arc" />
      <path
         transform="translate(-14.285721,110)"
         d="m 245.71429,336.64789 c 0,35.50402 -28.7817,64.28571 -64.28572,64.28571 -35.50402,0 -64.28571,-28.78169 -64.28571,-64.28571 0,-35.50402 28.78169,-64.28572 64.28571,-64.28572 35.50402,0 64.28572,28.7817 64.28572,64.28572 z"
         sodipodi:ry="64.285713"
         sodipodi:rx="64.285713"
         sodipodi:cy="336.64789"
         sodipodi:cx="181.42857"
         id="path15197"
         style="fill:#a8b901;fill-opacity:1;stroke:none"
         sodipodi:type="arc" />
      <path
         transform="translate(15.714279,-74.285705)"
         d="m 185.71429,520.93359 c 0,18.93548 -15.35024,34.28572 -34.28572,34.28572 -18.93547,0 -34.28571,-15.35024 -34.28571,-34.28572 0,-18.93547 15.35024,-34.28571 34.28571,-34.28571 18.93548,0 34.28572,15.35024 34.28572,34.28571 z"
         sodipodi:ry="34.285713"
         sodipodi:rx="34.285713"
         sodipodi:cy="520.93359"
         sodipodi:cx="151.42857"
         id="path15199"
         style="fill:#ffffff;fill-opacity:1;stroke:none"
         sodipodi:type="arc" />
    </g>
    <g
       id="g15201"
       style="fill:#a8b901;fill-opacity:1"
       transform="matrix(0.24285098,0,0,0.24285098,792.26168,970.39771)">
      <rect
         transform="matrix(-0.53328026,-0.84593863,-0.84593863,0.53328026,0,0)"
         style="fill:#a8b901;fill-opacity:1;stroke:none"
         id="rect15203"
         width="331.42859"
         height="271.42859"
         x="-766.92664"
         y="-541.21918"
         ry="125.24912" />
      <g
         transform="matrix(-0.60251016,-0.79811121,-0.79811121,0.60251016,1089.1044,297.36527)"
         id="g15205"
         style="fill:#a8b901;fill-opacity:1">
        <g
           transform="translate(10,0)"
           id="g15207"
           style="fill:#a8b901;fill-opacity:1">
          <path
             style="fill:#a8b901;fill-opacity:1;stroke:none"
             d="m 402.11994,195.71643 c -38.23253,14.90833 -47.06409,62.20727 -39.4277,98.94168 10.70364,59.78115 29.6323,126.76 85.00467,158.82259 41.7877,24.78068 92.1061,15.48325 138.17781,17.59577 -13.67106,-9.4944 -36.59007,-11.91664 -52.35926,-22.47837 -46.70263,-28.52519 -84.53324,-73.3413 -102.18647,-126.30265 -16.01786,-40.69702 -19.19385,-85.20029 -20.34686,-128.69788 -2.48192,-2.31688 -6.0854,1.97866 -8.86219,2.11886 z"
             id="path15209"
             inkscape:connector-curvature="0" />
          <rect
             style="fill:#a8b901;fill-opacity:1;stroke:none"
             id="rect15211"
             width="197.14287"
             height="37.142857"
             x="293.71426"
             y="432.36218"
             ry="1.4807512" />
        </g>
        <rect
           ry="1.4807512"
           y="395.21933"
           x="337.14285"
           height="51.42857"
           width="117.14286"
           id="rect15213"
           style="fill:#a8b901;fill-opacity:1;stroke:none" />
      </g>
    </g>
    <g
       transform="matrix(-0.21730941,-0.34471635,-0.34471635,0.21730941,1143.1875,1026.48)"
       id="g15215">
      <path
         sodipodi:type="arc"
         style="fill:#ffffff;fill-opacity:1;stroke:none"
         id="path15217"
         sodipodi:cx="167.14285"
         sodipodi:cy="459.50504"
         sodipodi:rx="84.285713"
         sodipodi:ry="84.285713"
         d="m 251.42857,459.50504 c 0,46.54971 -37.736,84.28571 -84.28572,84.28571 -46.54971,0 -84.28571,-37.736 -84.28571,-84.28571 0,-46.54972 37.736,-84.28572 84.28571,-84.28572 46.54972,0 84.28572,37.736 84.28572,84.28572 z"
         transform="matrix(0.81818182,0,0,0.81818182,30.38961,70.689224)" />
      <path
         sodipodi:type="arc"
         style="fill:#a8b901;fill-opacity:1;stroke:none"
         id="path15219"
         sodipodi:cx="181.42857"
         sodipodi:cy="336.64789"
         sodipodi:rx="64.285713"
         sodipodi:ry="64.285713"
         d="m 245.71429,336.64789 c 0,35.50402 -28.7817,64.28571 -64.28572,64.28571 -35.50402,0 -64.28571,-28.78169 -64.28571,-64.28571 0,-35.50402 28.78169,-64.28572 64.28571,-64.28572 35.50402,0 64.28572,28.7817 64.28572,64.28572 z"
         transform="translate(-14.285721,110)" />
      <path
         sodipodi:type="arc"
         style="fill:#ffffff;fill-opacity:1;stroke:none"
         id="path15221"
         sodipodi:cx="151.42857"
         sodipodi:cy="520.93359"
         sodipodi:rx="34.285713"
         sodipodi:ry="34.285713"
         d="m 185.71429,520.93359 c 0,18.93548 -15.35024,34.28572 -34.28572,34.28572 -18.93547,0 -34.28571,-15.35024 -34.28571,-34.28572 0,-18.93547 15.35024,-34.28571 34.28571,-34.28571 18.93548,0 34.28572,15.35024 34.28572,34.28571 z"
         transform="translate(15.714279,-74.285705)" />
    </g>
    <rect
       ry="0.23973458"
       y="1090.6622"
       x="769.36432"
       height="2.7754395"
       width="226.8922"
       id="rect15223"
       style="fill:#a8b901;fill-opacity:1;stroke:none" />
    <g
       id="g15280"
       transform="matrix(0.24285098,0,0,0.24285098,559.81132,984.2059)">
      <path
         id="rect14286"
         transform="matrix(4.1177516,0,0,4.1177516,-2290.3945,-813.75248)"
         d="m 559.1875,246.125 c -15.43259,0 -28.10171,11.38767 -30.125,26.25 5.05265,-4.86657 11.89955,-7.84375 19.46875,-7.84375 15.51994,0 28.125,12.57381 28.125,28.09375 0,7.53741 -2.98206,14.39089 -7.8125,19.4375 l 8.0625,0 c 0.0593,0.0702 0.15074,0.11663 0.25,0.125 l 47,3.96875 c 0.16056,0.0136 0.28906,-0.10494 0.34375,-0.25 7.4038,1.84334 15.47824,1.61454 22.96875,2.59375 -3.11444,-2.57668 -8.61837,-3.6222 -12.21875,-6.5 -10.71925,-7.85635 -18.9656,-19.47965 -22.15625,-32.65625 -3.0453,-10.17535 -2.8903,-21.01292 -2.28125,-31.5625 -0.5533,-0.61134 -1.51268,0.36651 -2.1875,0.34375 -3.79894,1.12387 -6.568,3.5974 -8.46875,6.71875 -5.47855,-5.38368 -12.99089,-8.71875 -21.3125,-8.71875 l -19.65625,0 z M 460.15625,268.40625 460,271.0625 l 56.90625,3.46875 0.15625,-2.65625 -56.90625,-3.46875 z m 0,12.46875 -0.15625,2.6875 52.03125,3.46875 0.1875,-2.6875 -52.0625,-3.46875 z m 0.625,17.34375 -0.0312,2.6875 52.75,0.6875 0.0312,-2.65625 -52.75,-0.71875 z"
         style="fill:#a8b901;fill-opacity:1;stroke:none"
         inkscape:connector-curvature="0" />
      <path
         id="path14275"
         transform="matrix(4.1177516,0,0,4.1177516,-2290.3945,-813.75248)"
         d="m 559.1875,246.125 c -15.43259,0 -28.10171,11.38767 -30.125,26.25 5.05265,-4.86657 11.89955,-7.84375 19.46875,-7.84375 15.51994,0 28.125,12.57381 28.125,28.09375 0,7.53741 -2.98206,14.39089 -7.8125,19.4375 l 8.0625,0 c 0.0593,0.0702 0.15074,0.11663 0.25,0.125 l 47,3.96875 c 0.16056,0.0136 0.28906,-0.10494 0.34375,-0.25 7.4038,1.84334 15.47824,1.61454 22.96875,2.59375 -3.11444,-2.57668 -8.61837,-3.6222 -12.21875,-6.5 -10.71925,-7.85635 -18.9656,-19.47965 -22.15625,-32.65625 -3.0453,-10.17535 -2.8903,-21.01292 -2.28125,-31.5625 -0.5533,-0.61134 -1.51268,0.36651 -2.1875,0.34375 -3.79894,1.12387 -6.568,3.5974 -8.46875,6.71875 -5.47855,-5.38368 -12.99089,-8.71875 -21.3125,-8.71875 l -19.65625,0 z m -10.65625,20.3125 c -14.46774,0 -26.1875,11.71976 -26.1875,26.1875 0,14.46774 11.71976,26.1875 26.1875,26.1875 14.46774,0 26.21875,-11.71976 26.21875,-26.1875 0,-14.46774 -11.75101,-26.1875 -26.21875,-26.1875 z m -88.375,1.96875 -0.15625,2.65625 56.90625,3.46875 0.15625,-2.65625 -56.90625,-3.46875 z m 88.375,10.25 c 7.71613,0 14,6.25262 14,13.96875 0,7.71613 -6.28387,13.96875 -14,13.96875 -7.71613,0 -13.96875,-6.25262 -13.96875,-13.96875 0,-7.71613 6.25262,-13.96875 13.96875,-13.96875 z m -88.375,2.21875 -0.15625,2.6875 52.03125,3.46875 0.1875,-2.6875 -52.0625,-3.46875 z m 0.625,17.34375 -0.0312,2.6875 52.75,0.6875 0.0312,-2.65625 -52.75,-0.71875 z"
         style="fill:#a8b901;fill-opacity:1;stroke:none"
         inkscape:connector-curvature="0" />
      <g
         transform="matrix(-0.89482615,-1.4194563,-1.4194563,0.89482615,1243.4083,232.64137)"
         id="g14345">
        <path
           sodipodi:type="arc"
           style="fill:#ffffff;fill-opacity:1;stroke:none"
           id="path14347"
           sodipodi:cx="167.14285"
           sodipodi:cy="459.50504"
           sodipodi:rx="84.285713"
           sodipodi:ry="84.285713"
           d="m 251.42857,459.50504 c 0,46.54971 -37.736,84.28571 -84.28572,84.28571 -46.54971,0 -84.28571,-37.736 -84.28571,-84.28571 0,-46.54972 37.736,-84.28572 84.28571,-84.28572 46.54972,0 84.28572,37.736 84.28572,84.28572 z"
           transform="matrix(0.81818182,0,0,0.81818182,30.38961,70.689224)" />
        <path
           sodipodi:type="arc"
           style="fill:#ffffff;fill-opacity:1;stroke:none"
           id="path14351"
           sodipodi:cx="151.42857"
           sodipodi:cy="520.93359"
           sodipodi:rx="34.285713"
           sodipodi:ry="34.285713"
           d="m 185.71429,520.93359 c 0,18.93548 -15.35024,34.28572 -34.28572,34.28572 -18.93547,0 -34.28571,-15.35024 -34.28571,-34.28572 0,-18.93547 15.35024,-34.28571 34.28571,-34.28571 18.93548,0 34.28572,15.35024 34.28572,34.28571 z"
           transform="translate(15.714279,-74.285705)" />
      </g>
      <rect
         ry="0.98716742"
         y="496.92795"
         x="-295.90265"
         height="11.428571"
         width="934.28571"
         id="rect14335"
         style="fill:#a8b901;fill-opacity:1;stroke:none" />
      <path
         inkscape:connector-curvature="0"
         id="path15275"
         d="m 619.15386,237.1898 c 39.79886,49.54133 35.91463,119.57893 -6.57823,164.40229 2.59234,-28.77023 -5.50775,-58.42778 -25.02785,-82.72625 -40.02413,-49.82175 -112.89527,-57.8598 -162.71702,-17.83567 -24.19641,19.43811 -38.50691,46.68538 -42.25026,75.20657 l -20.79225,-25.88205 c -0.37829,-0.009 -0.76315,-0.18313 -1.046,-0.48018 L 226.79429,209.23118 c -0.45773,-0.48037 -0.40858,-1.19858 -0.084,-1.74823 -25.01099,-19.01375 -45.09955,-45.52417 -67.56016,-67.04476 16.30339,3.35294 33.8537,18.32525 52.3769,22.4616 52.86398,14.15006 111.44321,10.64715 161.97075,-13.09123 40.51814,-16.46511 74.90892,-44.91154 107.20427,-74.07284 3.3894,0.199624 2.72446,5.801163 4.53781,7.908758 6.1892,15.09359 5.38982,30.361712 0.27155,44.513062 31.41111,3.7032 61.49073,19.21839 82.9512,45.93223 l 50.69121,63.10003 z m -37.72547,86.59204 c 37.31063,46.444 29.91204,114.2904 -16.53196,151.60104 -46.444,37.31063 -114.2904,29.91204 -151.60104,-16.53196 -37.31063,-46.444 -29.99263,-114.39072 16.45137,-151.70135 46.44399,-37.31064 114.37099,-29.81173 151.68163,16.63227 z m -39.22434,31.51074 c -19.89901,-24.77013 -56.17641,-28.81768 -80.94654,-8.91867 -24.77014,19.89901 -28.63678,56.19613 -8.73777,80.96627 19.89901,24.77013 56.0958,28.71736 80.86594,8.81834 24.77014,-19.899 28.71737,-56.09579 8.81837,-80.86594 z"
         style="fill:#a8b901;fill-opacity:1;stroke:none" />
    </g>
    <g
       transform="matrix(0.24285098,0,0,0.24285098,532.22861,852.03211)"
       id="g15289">
      <path
         inkscape:connector-curvature="0"
         style="fill:#a8b901;fill-opacity:1;stroke:none"
         d="m 559.1875,246.125 c -15.43259,0 -28.10171,11.38767 -30.125,26.25 5.05265,-4.86657 11.89955,-7.84375 19.46875,-7.84375 15.51994,0 28.125,12.57381 28.125,28.09375 0,7.53741 -2.98206,14.39089 -7.8125,19.4375 l 8.0625,0 c 0.0593,0.0702 0.15074,0.11663 0.25,0.125 l 47,3.96875 c 0.16056,0.0136 0.28906,-0.10494 0.34375,-0.25 7.4038,1.84334 15.47824,1.61454 22.96875,2.59375 -3.11444,-2.57668 -8.61837,-3.6222 -12.21875,-6.5 -10.71925,-7.85635 -18.9656,-19.47965 -22.15625,-32.65625 -3.0453,-10.17535 -2.8903,-21.01292 -2.28125,-31.5625 -0.5533,-0.61134 -1.51268,0.36651 -2.1875,0.34375 -3.79894,1.12387 -6.568,3.5974 -8.46875,6.71875 -5.47855,-5.38368 -12.99089,-8.71875 -21.3125,-8.71875 l -19.65625,0 z M 460.15625,268.40625 460,271.0625 l 56.90625,3.46875 0.15625,-2.65625 -56.90625,-3.46875 z m 0,12.46875 -0.15625,2.6875 52.03125,3.46875 0.1875,-2.6875 -52.0625,-3.46875 z m 0.625,17.34375 -0.0312,2.6875 52.75,0.6875 0.0312,-2.65625 -52.75,-0.71875 z"
         id="path15291"
         transform="matrix(4.1177516,0,0,4.1177516,-2290.3945,-813.75248)" />
      <path
         inkscape:connector-curvature="0"
         style="fill:#a8b901;fill-opacity:1;stroke:none"
         d="m 559.1875,246.125 c -15.43259,0 -28.10171,11.38767 -30.125,26.25 5.05265,-4.86657 11.89955,-7.84375 19.46875,-7.84375 15.51994,0 28.125,12.57381 28.125,28.09375 0,7.53741 -2.98206,14.39089 -7.8125,19.4375 l 8.0625,0 c 0.0593,0.0702 0.15074,0.11663 0.25,0.125 l 47,3.96875 c 0.16056,0.0136 0.28906,-0.10494 0.34375,-0.25 7.4038,1.84334 15.47824,1.61454 22.96875,2.59375 -3.11444,-2.57668 -8.61837,-3.6222 -12.21875,-6.5 -10.71925,-7.85635 -18.9656,-19.47965 -22.15625,-32.65625 -3.0453,-10.17535 -2.8903,-21.01292 -2.28125,-31.5625 -0.5533,-0.61134 -1.51268,0.36651 -2.1875,0.34375 -3.79894,1.12387 -6.568,3.5974 -8.46875,6.71875 -5.47855,-5.38368 -12.99089,-8.71875 -21.3125,-8.71875 l -19.65625,0 z m -10.65625,20.3125 c -14.46774,0 -26.1875,11.71976 -26.1875,26.1875 0,14.46774 11.71976,26.1875 26.1875,26.1875 14.46774,0 26.21875,-11.71976 26.21875,-26.1875 0,-14.46774 -11.75101,-26.1875 -26.21875,-26.1875 z m -88.375,1.96875 -0.15625,2.65625 56.90625,3.46875 0.15625,-2.65625 -56.90625,-3.46875 z m 88.375,10.25 c 7.71613,0 14,6.25262 14,13.96875 0,7.71613 -6.28387,13.96875 -14,13.96875 -7.71613,0 -13.96875,-6.25262 -13.96875,-13.96875 0,-7.71613 6.25262,-13.96875 13.96875,-13.96875 z m -88.375,2.21875 -0.15625,2.6875 52.03125,3.46875 0.1875,-2.6875 -52.0625,-3.46875 z m 0.625,17.34375 -0.0312,2.6875 52.75,0.6875 0.0312,-2.65625 -52.75,-0.71875 z"
         id="path15293"
         transform="matrix(4.1177516,0,0,4.1177516,-2290.3945,-813.75248)" />
      <rect
         style="fill:#a8b901;fill-opacity:1;stroke:none"
         id="rect15301"
         width="934.28571"
         height="11.428571"
         x="-295.90265"
         y="496.92795"
         ry="0.98716742" />
      <path
         style="fill:#a8b901;fill-opacity:1;stroke:none"
         d="m 625.12656,237.1898 c 39.79886,49.54133 35.91463,119.57893 -6.57823,164.40229 2.59234,-28.77023 -5.50775,-58.42778 -25.02785,-82.72625 -40.02413,-49.82175 -112.89527,-57.8598 -162.71702,-17.83567 -24.19641,19.43811 -38.50691,46.68538 -42.25026,75.20657 l -20.79225,-25.88205 c -0.37829,-0.009 -0.76315,-0.18313 -1.046,-0.48018 L 232.76699,209.23118 c -0.45773,-0.48037 -0.40858,-1.19858 -0.084,-1.74823 -25.01099,-19.01375 -45.09955,-45.52417 -67.56016,-67.04476 16.30339,3.35294 33.8537,18.32525 52.3769,22.4616 52.86398,14.15006 111.44321,10.64715 161.97075,-13.09123 40.51814,-16.46511 74.90892,-44.91154 107.20427,-74.07284 3.3894,0.199624 2.72446,5.801163 4.53781,7.908758 6.1892,15.09359 5.38982,30.361712 0.27155,44.513062 31.41111,3.7032 61.49073,19.21839 82.9512,45.93223 l 50.69121,63.10003 z m -37.72547,86.59204 c 37.31063,46.444 29.91204,114.2904 -16.53196,151.60104 -46.444,37.31063 -114.2904,29.91204 -151.60104,-16.53196 -37.31063,-46.444 -29.99263,-114.39072 16.45137,-151.70135 46.44399,-37.31064 114.37099,-29.81173 151.68163,16.63227 z m -39.22434,31.51074 c -19.89901,-24.77013 -56.17641,-28.81768 -80.94654,-8.91867 -24.77014,19.89901 -28.63678,56.19613 -8.73777,80.96627 19.89901,24.77013 56.0958,28.71736 80.86594,8.81834 24.77014,-19.899 28.71737,-56.09579 8.81837,-80.86594 z"
         id="path15303"
         inkscape:connector-curvature="0" />
    </g>
    <path
       style="fill:#ffcc00"
       d="m 74.88052,1040.3084 c -4.26185,-0.4914 -8.96657,-1.3693 -11.89932,-2.2202 -1.84306,-0.5347 -3.49537,-0.883 -3.67187,-0.7738 -0.17658,0.109 -0.37831,0.065 -0.44841,-0.097 -0.0697,-0.1624 -1.40973,-0.7852 -2.97694,-1.3841 -5.2515,-2.0069 -13.81543,-6.8428 -17.278515,-9.7567 -3.050443,-2.5668 -7.835725,-6.9424 -8.090813,-7.3982 -0.159373,-0.2849 -1.10106,-1.3644 -2.092613,-2.3991 -2.230692,-2.3275 -6.742622,-9.0368 -8.976117,-13.3476 -2.568308,-4.95695 -3.266881,-3.62384 9.083047,-17.33295 8.542938,-9.48311 10.072252,-11.26153 9.973203,-11.5974 -0.05229,-0.17718 0.03865,-0.27941 0.201357,-0.22712 0.162935,0.0523 1.57342,-1.33842 3.134412,-3.09023 4.762698,-5.3451 4.664407,-5.18906 4.284655,-6.79802 -0.269335,-1.14115 -0.833165,-1.78736 -2.915472,-3.34153 -1.419883,-1.05976 -2.736169,-2.17105 -2.925098,-2.46956 -0.900309,-1.42254 0.03486,-3.13616 1.503472,-2.7539 0.479256,0.12474 0.634613,-0.18961 0.72093,-1.45816 0.187186,-2.75397 1.385704,-3.86489 5.678771,-5.26363 16.367521,-5.33266 29.449291,-6.40455 46.451811,-3.80615 7.19414,1.09947 10.44109,1.27392 14.6273,0.7858 5.45051,-0.63552 6.77066,-1.02733 6.53233,-1.9387 -0.27116,-1.03695 0.31336,-1.25278 1.42336,-0.52548 1.29575,0.849 1.92256,0.53367 1.92256,-0.96715 0,-1.56827 0.6453,-1.85132 1.32508,-0.58126 0.72941,1.36296 1.90429,1.27619 1.90429,-0.14058 0,-0.6691 0.24425,-1.19284 0.6243,-1.33872 0.3433,-0.13171 0.65167,-0.19272 0.68516,-0.13558 0.0334,0.0568 0.25608,0.53132 0.49457,1.05377 l 0.43363,0.9498 0.26085,-0.87636 c 0.14368,-0.48259 0.47372,-0.79467 0.73457,-0.69456 0.26054,0.1 0.66545,-0.01 0.89985,-0.24448 0.29677,-0.29669 0.54709,-0.30541 0.82377,-0.0288 0.27676,0.27677 1.57547,0.0774 4.27427,-0.65621 2.13225,-0.57951 5.0481,-1.2577 6.47973,-1.50703 2.46237,-0.42878 2.63333,-0.52594 3.16465,-1.79759 0.4322,-1.03437 0.55171,-2.93798 0.51813,-8.25518 -0.0333,-5.21013 0.0765,-7.01029 0.44463,-7.31472 0.2685,-0.22212 1.34091,-0.45584 2.38317,-0.51949 2.62954,-0.16051 2.8415,0.36209 2.84863,7.02264 0.34186,2.72344 -0.18575,5.81533 -0.12717,7.05015 0.0417,1.10402 -0.72593,0.38021 0.28806,0.60688 9.93659,-0.93555 10.5828,-0.0129 15.94525,0.0728 0.73139,0.008 4.22289,-0.0296 5.14806,0.24751 1.51757,0.45371 1.86147,0.42719 3.51431,-0.27116 1.02248,-0.74889 0.69327,-7.05113 0.69244,-8.18728 0,-4.05981 0.13308,-5.74531 0.47494,-6.01427 0.69107,-0.54382 3.3244,-0.88674 3.3244,-0.43287 0,0.20817 0.13641,0.29419 0.30306,0.19112 0.16672,-0.10299 0.5514,-0.0341 0.85491,0.15301 0.43,0.26517 0.57914,1.52378 0.67599,5.70552 0.05,4.25624 -1.19533,6.32157 0.0659,8.91906 0,0.28949 0.18446,0.93138 0.40999,1.42617 0.34671,0.76109 0.92911,0.99936 3.77645,1.54523 13.13604,1.09333 20.34965,7.30054 33.89545,9.01764 4.89676,0.56944 8.8366,0.60286 21.95838,0.1862 10.65548,-0.3383 13.21288,-0.21325 23.30264,1.13949 2.27002,0.30434 4.32163,0.66242 4.55922,0.79572 2.09784,1.177 2.90842,3.3147 2.13982,5.64338 -0.33648,1.0196 -0.97647,1.71673 -2.42863,2.64569 -3.16283,2.02327 -3.19171,2.11913 -1.33842,4.44963 0.88258,1.10985 2.19037,3.30015 2.90623,4.86736 1.27703,2.79581 2.53731,4.55922 3.25847,4.55922 0.20014,0 0.98246,0.38468 1.73847,0.85484 1.57403,0.97882 1.71574,1.00019 7.77245,1.17222 3.3557,0.0953 4.58461,0.26426 4.83833,0.66508 0.56724,0.89614 0.39377,2.49078 -0.3743,3.43959 -0.6991,0.86378 -0.96548,0.90402 -7.19277,1.08689 -5.80124,0.17043 -6.57696,0.27206 -7.53752,0.98678 -0.58884,0.43825 -1.27157,1.20761 -1.51711,1.70967 -0.24554,0.50215 -1.0149,2.08777 -1.70968,3.52364 -1.86958,3.86375 -5.26045,7.08365 -9.70766,9.2181 -1.92831,0.92547 -3.77273,2.06199 -4.0986,2.52556 -0.32587,0.46357 -0.97731,1.44125 -1.44762,2.17264 -1.94363,3.02262 -4.89593,2.83632 -6.54233,-0.41279 -0.52025,-1.02672 -1.2089,-1.86678 -1.5303,-1.86678 -0.3214,0 -3.26771,1.26498 -6.5474,2.81112 -3.27969,1.54607 -9.12602,4.29897 -12.99182,6.11757 -3.8658,1.8186 -7.09138,3.366 -7.16807,3.4388 -0.143,0.1358 2.14043,4.0083 2.56475,4.3495 0.12997,0.1045 0.7163,0.898 1.30302,1.7633 0.58672,0.8654 2.30776,2.7985 3.82457,4.2958 8.54249,8.4325 18.26144,12.9522 30.69708,14.2754 3.37047,0.3587 5.04362,2.6707 3.72105,5.142 -0.84264,1.5745 -2.35612,1.937 -6.35954,1.5231 -11.98215,-1.2388 -22.89287,-5.2614 -32.7136,-12.061 -9.13609,-6.3256 -17.01835,-15.2841 -22.02803,-25.0355 -1.71036,-3.32934 -1.9293,-4.79537 -0.93342,-6.25057 0.62157,-0.90827 6.32558,-7.37435 7.19308,-8.15409 0.23493,-0.21113 1.26073,-1.33175 2.27957,-2.4901 5.3213,-6.05041 6.55778,-7.44241 8.17296,-9.20059 1.576,-1.71559 1.72772,-2.03524 1.44072,-3.03581 -0.47516,-1.65686 -2.60733,-4.81302 -3.73568,-5.52971 -0.54238,-0.34459 -1.07165,-0.73677 -1.17616,-0.87151 -0.58687,-0.75723 -4.30572,-1.99569 -6.45881,-2.15097 -2.21356,-0.15967 -3.06029,0.0205 -8.16849,1.73537 -5.12085,1.7193 -13.67342,4.01055 -16.1376,4.32315 -1.64427,0.20856 -1.89701,1.40655 -1.90876,9.04766 -0.008,3.8658 -0.1136,7.4124 -0.23932,7.88142 -0.348,1.29848 -2.68759,1.89118 -4.25859,1.07886 l -1.20147,-0.62135 0,-6.75641 c 0,-5.14655 0.34307,-9.26751 -0.52458,-7.47371 -9.70659,0.87151 -17.04859,0.0477 -24.08639,-0.35611 -0.81209,0.56876 -0.84438,0.8215 -0.84438,6.60129 0,7.68703 -0.10943,8.23616 -1.74825,8.77711 -1.3951,0.46038 -2.48904,0.25486 -3.37859,-0.63469 -0.47046,-0.47054 -0.57216,-1.88997 -0.57216,-7.99002 0,-9.24727 -0.0235,-9.30608 -3.94568,-9.99882 -3.48044,-0.61468 -3.36025,-0.58687 -6.63326,-1.53848 -1.54448,-0.4491 -3.20217,-0.70797 -3.71265,-0.5799 -0.62748,0.15748 -0.99162,0.0508 -1.13902,-0.33322 -0.43583,-1.13569 -1.70961,-1.12107 -2.63826,0.0303 l -0.87575,1.08568 -0.26449,-1.61472 c -0.30965,-1.8902 -1.29749,-2.20212 -2.01152,-0.63507 -0.59839,1.31333 -1.41087,0.96192 -1.28734,-0.55686 0.11883,-1.4627 -0.65045,-1.88398 -1.87451,-1.02656 -1.16654,0.81702 -1.45285,0.76147 -1.45285,-0.28184 0,-1.02626 -0.73389,-1.46164 -3.98925,-2.36688 -1.25376,-0.34868 -2.65879,-0.77913 -3.12228,-0.95661 -1.87095,-0.71646 -12.43769,-3.01589 -16.56351,-3.60442 -4.94738,-0.7057 -5.73432,-0.66516 -6.67237,0.3442 l -0.90266,0.9714 1.56759,1.96886 c 0.86219,1.08287 1.56758,2.26767 1.56758,2.63302 0,0.36528 0.59597,1.65391 1.3244,2.86349 0.72836,1.20966 1.417,2.49123 1.53015,2.84795 0.11322,0.35671 1.0133,0.95449 2.00008,1.32841 2.2917,0.86833 3.12395,1.82593 3.12395,3.59465 0,1.6836 -0.93077,2.87939 -2.70684,3.47763 -0.70532,0.23751 -1.50953,0.61006 -1.78705,0.82779 -0.60695,0.4763 -2.3449,3.82654 -2.3449,4.52041 0,0.79763 -2.63272,4.47404 -4.51155,6.30005 -2.07988,2.02138 -3.76357,3.10129 -6.31649,4.05124 -2.03093,0.75572 -3.7782,2.31011 -4.82643,4.29367 -0.56096,1.06143 -0.8459,1.22474 -2.1371,1.22474 -2.79695,0 -3.94287,-0.41264 -4.3828,-1.57827 -0.22447,-0.59467 -0.5517,-1.08128 -0.72722,-1.08128 -0.17551,0 -0.22068,-0.15922 -0.10049,-0.35368 0.63287,-1.02399 -0.98458,-0.56178 -5.36897,1.53416 -2.68008,1.28128 -5.55683,2.62794 -6.39265,2.99264 -1.88853,0.8241 -15.524125,7.2904 -15.721011,7.4553 -0.07904,0.066 0.970333,1.7939 2.33209,3.8393 4.373246,6.5688 11.340188,12.5535 18.740081,16.0979 5.3842,2.579 10.65601,4.0139 17.39886,4.7357 2.68297,0.2871 4.0351,1.4385 4.0351,3.4358 0,2.6026 -2.16006,3.788 -6.07891,3.3361 z m 4.15536,-2.5155 c 0.62317,-1.6067 -1.20367,-3.2153 -2.46387,-2.1694 -0.67569,0.5608 -0.72965,2.5092 -0.0768,2.7727 1.16957,0.4719 2.22046,0.2224 2.54064,-0.6033 z m 178.13566,0.399 c 0.99656,-0.9966 0.27919,-2.9635 -1.0809,-2.9635 -0.34375,0 -0.93509,0.3426 -1.31409,0.7614 -1.39911,1.546 0.91933,3.6777 2.39499,2.2021 z M 33.113122,1007.48 c 1.122658,-0.6008 0.988446,-2.5469 -0.213407,-3.0945 -0.783527,-0.357 -1.080599,-0.3124 -1.709679,0.257 -0.997085,0.9024 -0.965559,1.905 0.08298,2.6394 1.00186,0.7018 0.9163,0.6925 1.840103,0.1981 z m 178.705478,-0.2037 c 0.32837,-0.3284 0.59702,-0.9146 0.59702,-1.3027 0,-0.8244 -0.9676,-1.8995 -1.70968,-1.8995 -0.74404,0 -1.70968,1.076 -1.70968,1.9052 0,0.6431 1.29257,1.894 1.95704,1.894 0.14755,0 0.53693,-0.2686 0.8653,-0.597 z M 23.576509,999.91973 c 0.534275,-0.99837 0.496307,-1.38737 -0.203782,-2.08746 -0.866965,-0.86697 -1.956203,-0.73245 -2.650609,0.32731 -0.471147,0.71903 -0.512297,1.09879 -0.185367,1.70968 0.556177,1.03924 2.493358,1.07134 3.039758,0.0508 z m 13.690844,-0.48843 c 4.924649,-1.49953 10.888518,-4.9567 14.942717,-8.66199 l 2.1427,-1.95832 -0.89599,-1.20193 c -1.530218,-2.05253 -2.837259,-4.69291 -3.41132,-6.89139 -0.367475,-1.40723 -0.942521,-2.47517 -1.727791,-3.20868 -0.647344,-0.60475 -1.283472,-1.63177 -1.413592,-2.28245 -0.130121,-0.6506 -0.370885,-1.26589 -0.535033,-1.36736 -0.547764,-0.33853 -7.774189,7.89695 -12.84419,14.63768 -1.498697,1.99258 -5.761982,8.90943 -5.666191,9.19286 0.05532,0.16339 0.955253,0.89235 2.000082,1.61988 2.143919,1.4929 2.866516,1.5048 7.408608,0.1217 z m 164.903757,0.43796 c 0.32701,-0.61089 0.28578,-0.99065 -0.18536,-1.70968 -0.73579,-1.12296 -1.75424,-1.18488 -2.67911,-0.16294 -0.56936,0.62908 -0.614,0.92616 -0.25698,1.70968 0.56178,1.23298 2.4948,1.33388 3.12145,0.16294 z m 12.71407,-0.20674 c 2.72761,-0.66811 8.66404,-3.47536 11.57876,-5.47544 1.15433,-0.79209 3.08401,-2.32656 4.28806,-3.40981 l 2.18932,-1.9697 -0.99474,-1.18214 c -1.25005,-1.48559 -3.10038,-5.27242 -3.42701,-7.01378 l -0.24812,-1.32258 -1.75401,0.31519 c -0.96473,0.17339 -3.11994,0.33777 -4.78937,0.36528 l -3.03537,0.05 -2.59104,3.1939 c -3.01126,3.71189 -9.86551,13.91206 -9.69273,14.42428 0.0644,0.19204 0.97261,0.94214 2.01744,1.66694 2.05533,1.42574 2.09095,1.42774 6.45881,0.35793 z M 71.45699,998.00286 c 0.51025,-0.95336 -0.37081,-2.01312 -1.53682,-1.84852 -1.15577,0.16317 -1.51036,1.7544 -0.54776,2.4582 0.75981,0.55564 1.59108,0.31253 2.08458,-0.60968 z m 178.38188,-0.57762 c 0,-1.01202 -0.12724,-1.13979 -1.13463,-1.13979 -0.7924,0 -1.17442,0.20712 -1.26688,0.68705 -0.23728,1.23232 0.24372,1.84064 1.35456,1.71287 0.88326,-0.10155 1.04695,-0.29867 1.04695,-1.26013 z M 93.30026,976.10169 c 0.92608,-0.92608 0.59073,-2.20864 -0.61392,-2.34823 -0.89084,-0.10322 -1.018,0.0318 -1.15775,1.22883 -0.14035,1.20216 0.0743,1.61101 0.89667,1.70665 0.14179,0.0167 0.53557,-0.24774 0.875,-0.58725 z m 178.81301,-0.42295 c 0.39203,-0.73267 0.37081,-0.98299 -0.1258,-1.4796 -0.90773,-0.90773 -2.20219,-0.34209 -2.20219,0.96238 0,0.57792 0.10208,1.15297 0.22689,1.27771 0.49403,0.49411 1.65436,0.0743 2.1011,-0.76049 z m -132.27958,-7.86998 c 0.55117,-0.66409 0.21151,-1.95112 -0.5968,-2.26131 -0.81558,-0.31298 -2.04759,0.4275 -2.04759,1.23065 0,1.42913 1.74817,2.11058 2.64439,1.03066 z m 42.84292,-0.18218 c 0.37512,-0.60066 0.33541,-0.88561 -0.21902,-1.57024 -0.57542,-0.71062 -0.80209,-0.76973 -1.50673,-0.39263 -0.91107,0.48759 -1.08469,1.52961 -0.37346,2.24084 0.67425,0.67417 1.57941,0.55436 2.09921,-0.27797 z M 47.888052,954.89379 c 0.250616,-0.30192 0.399758,-0.94305 0.331477,-1.42473 -0.09814,-0.69221 -0.363003,-0.87576 -1.263919,-0.87576 -0.919786,0 -1.165098,0.17923 -1.270892,0.92858 -0.08056,0.57073 0.130424,1.1197 0.547537,1.42473 0.86219,0.63037 1.094998,0.62302 1.655797,-0.053 z M 86.9624,954.22705 c 0.70085,-0.70093 0.54223,-1.75076 -0.33557,-2.22054 -0.63143,-0.33792 -0.93873,-0.29025 -1.51977,0.23546 -0.40051,0.36247 -0.7282,0.85484 -0.7282,1.09409 0,0.62718 0.81202,1.3469 1.51969,1.3469 0.33436,0 0.81308,-0.20515 1.06385,-0.45591 z m 178.62848,-0.0958 c 0.54306,-0.6544 0.21553,-1.94969 -0.56921,-2.25078 -1.32053,-0.50676 -2.36862,0.78436 -1.68051,2.07011 0.4635,0.86605 1.60488,0.95768 2.24972,0.18067 z M 139.86181,942.8808 c 0.31147,-0.5821 0.3029,-0.92479 -0.0333,-1.32978 -0.68273,-0.82263 -2.16483,-0.68228 -2.45516,0.2325 -0.5201,1.63852 1.67952,2.60848 2.48828,1.09728 z m 42.47756,0.45045 c 0.27941,-0.17718 0.45038,-0.73025 0.3799,-1.22898 -0.10246,-0.72479 -0.35603,-0.9069 -1.26278,-0.9069 -1.26089,0 -1.73264,0.96268 -0.93987,1.91793 0.51677,0.62271 1.07817,0.68986 1.82275,0.21795 z"
       id="path3050"
       inkscape:connector-curvature="0"
       sodipodi:nodetypes="ssssssssssssssssssssssssssscscssccssssssccccsccssscccsccssssssssssssssssssssssssssssssssssssssssssssscsccssssssssscssssssssscsssssssssssssssssssssssssssssssssssssssssssssssssscssssssssssssssssscsscsscsssssssssssssssscsssssssssssssssssssssssssssssssccsccsssss" />
  </g>
</svg>
