<?xml version="1.0" encoding="UTF-8" standalone="no"?>
<!-- Created with Inkscape (http://www.inkscape.org/) -->

<svg
   xmlns:dc="http://purl.org/dc/elements/1.1/"
   xmlns:cc="http://creativecommons.org/ns#"
   xmlns:rdf="http://www.w3.org/1999/02/22-rdf-syntax-ns#"
   xmlns:svg="http://www.w3.org/2000/svg"
   xmlns="http://www.w3.org/2000/svg"
   xmlns:sodipodi="http://sodipodi.sourceforge.net/DTD/sodipodi-0.dtd"
   xmlns:inkscape="http://www.inkscape.org/namespaces/inkscape"
   width="744.09448819"
   height="1052.3622047"
   id="svg2"
   version="1.1"
   inkscape:version="0.48.2 r9819"
   sodipodi:docname="just_sand.svg">
  <defs
     id="defs4" />
  <sodipodi:namedview
     id="base"
     pagecolor="#ffffff"
     bordercolor="#666666"
     borderopacity="1.0"
     inkscape:pageopacity="0.0"
     inkscape:pageshadow="2"
     inkscape:zoom="1.8753963"
     inkscape:cx="527.72837"
     inkscape:cy="712.89876"
     inkscape:document-units="px"
     inkscape:current-layer="layer1"
     showgrid="false"
     inkscape:window-width="1199"
     inkscape:window-height="825"
     inkscape:window-x="0"
     inkscape:window-y="0"
     inkscape:window-maximized="0" />
  <metadata
     id="metadata7">
    <rdf:RDF>
      <cc:Work
         rdf:about="">
        <dc:format>image/svg+xml</dc:format>
        <dc:type
           rdf:resource="http://purl.org/dc/dcmitype/StillImage" />
        <dc:title></dc:title>
      </cc:Work>
    </rdf:RDF>
  </metadata>
  <g
     inkscape:label="Layer 1"
     inkscape:groupmode="layer"
     id="layer1">
    <path
       style="fill:#000000;fill-opacity:1;stroke:none"
       d="m 227.43104,241.24803 -41.15625,47.65625 2.96875,2.96875 20.15625,-23.34375 0,22.9375 4.53125,0 0,-20.75 27.65625,0.0312 0,-4.1875 -30.46875,-0.0312 19.28125,-22.3125 -2.96875,-2.96875 z m 68.71875,1 -2.96875,3 18.4375,21.34375 -1.40625,0 -1.71875,-0.375 0,0.375 -16.25,0 0,4.1875 16.25,0 0.0312,31.15625 4.21875,0.40625 -0.0312,-34.5 21.65625,25.0625 2.96875,-3 -41.1875,-47.65625 z m -45.5625,24.3125 0,4.1875 32.65625,0 0,-4.1875 -32.65625,0 z m -39.96875,0.5625 -0.15625,1.21875 -0.90625,0 1.0625,-1.21875 z m -1.21875,30.34375 0,25.65625 4.53125,0 0,-25.65625 -4.53125,0 z m 99.15625,13.53125 0.0312,27.375 4.1875,0.40625 -0.0312,-27.375 -4.1875,-0.40625 z m -99.15625,18.875 0,36.25 4.53125,0 0,-36.25 -4.53125,0 z m 99.1875,17.5625 0.0312,25.59375 4.1875,0.40625 0,-25.59375 -4.21875,-0.40625 z m -86.9375,11.40625 -7.09375,8.9375 0.65625,0.5 7.09375,-8.9375 -0.65625,-0.5 z m -20.03125,1.03125 -0.375,0.8125 6.71875,8.3125 0.34375,-0.8125 -6.6875,-8.3125 z m 23.84375,2.75 -9.71875,7.375 0.4375,0.8125 9.71875,-7.34375 -0.4375,-0.84375 z m -27.625,1.03125 -0.15625,0.875 8.53125,6.4375 0.15625,-0.875 -8.53125,-6.4375 z m 13.59375,4.21875 c -0.0259,0.006 -0.0371,0.0232 -0.0625,0.0312 -0.034,0.0109 -0.059,-0.008 -0.0937,0 -0.10049,0.024 -0.21114,0.13695 -0.3125,0.15625 -0.0352,0.007 -0.0605,-0.0127 -0.0937,0 -0.0314,0.012 -0.0335,0.0459 -0.0625,0.0625 -0.0649,0.0371 -0.15575,0.0224 -0.21875,0.0625 -0.0422,0.0269 -0.0854,0.0634 -0.125,0.0937 -0.0947,0.0723 -0.0438,0.009 -0.125,0.125 -0.0395,0.0565 0.0584,0.2141 0,0.25 -0.0359,0.0457 -0.0876,0.11165 -0.125,0.15625 -0.0106,0.0125 -0.0242,0.0168 -0.0312,0.0312 -0.005,0.0102 0.008,0.0232 0,0.0312 -0.008,0.008 -0.0205,-0.005 -0.0312,0 -0.10572,0.0504 0.0697,0.0312 -0.0937,0.0312 -0.0161,0.005 -0.0465,0.0262 -0.0625,0.0312 -0.0226,0.007 -0.0398,-0.007 -0.0625,0 -0.0321,0.0102 -0.0322,0.0481 -0.0625,0.0625 -0.0108,0.005 -0.0205,-0.005 -0.0312,0 -0.0303,0.0144 -0.0634,0.0793 -0.0937,0.0937 -0.0108,0.005 -0.0232,-0.008 -0.0312,0 -0.0188,0.0181 -0.0122,0.0444 -0.0312,0.0625 -0.008,0.008 -0.0232,-0.008 -0.0312,0 -0.008,0.008 0.008,0.0232 0,0.0312 -0.0701,0.0668 -0.0641,0.0447 -0.0625,0.0312 -0.003,-0.005 -0.0404,-0.0106 -0.0625,0 -0.0152,0.007 -0.0161,0.0242 -0.0312,0.0312 -0.0108,0.005 -0.0198,-0.004 -0.0312,0 -0.0254,0.008 -0.0371,0.0232 -0.0625,0.0312 -0.0115,0.004 -0.0205,-0.005 -0.0312,0 -0.0454,0.0217 -0.0945,0.055 -0.125,0.0937 -0.016,0.0204 -0.0123,0.0757 -0.0312,0.0937 -0.11474,0.10976 -0.0504,-0.0806 -0.1875,0.0937 -0.0144,0.0182 0.007,0.0408 0,0.0625 -0.005,0.0153 -0.0207,0.0183 -0.0312,0.0312 -0.0259,0.033 -0.0403,0.0584 -0.0625,0.0937 -0.0505,0.0804 -0.10225,0.1727 -0.15625,0.25 -0.009,0.0135 -0.0263,0.0159 -0.0312,0.0312 -0.007,0.0216 0.0133,0.0435 0,0.0625 -0.0149,0.0213 -0.0476,0.0413 -0.0625,0.0625 -0.0246,0.0353 -0.0367,0.0547 -0.0312,0.0625 -0.002,-1.2e-4 0.0298,0.002 -0.0312,0.0312 -0.008,0.008 0.003,0.0201 0,0.0312 -0.0363,0.13844 -0.0639,0.10476 -0.0625,0.0937 -0.004,-0.007 -0.0101,-0.009 -0.0312,0.0312 -0.0147,0.0279 0,0.3299 0,0.375 0,0.0687 -0.0206,0.2533 0,0.3125 0.005,0.0153 0.0242,0.0168 0.0312,0.0312 0.005,0.0103 -0.0107,0.0262 0,0.0312 0.0541,0.0258 0.5229,-0.0195 0.625,0 0.0372,0.007 0.0566,0.0242 0.0937,0.0312 0.08,0.0153 0.171,-0.0188 0.25,0 0.0259,0.006 0.0684,0.0545 0.0937,0.0625 0.0226,0.007 0.0398,-0.007 0.0625,0 0.0507,0.0161 0.10425,0.0501 0.15625,0.0625 0.0797,0.019 0.0666,-0.0285 0.15625,0 0.0114,0.004 -0.0107,0.0262 0,0.0312 0.0214,0.0102 0.0703,-0.004 0.0937,0 0.071,0.0135 0.47835,0.12595 0.53125,0.15625 0.029,0.0166 0.0335,0.0771 0.0625,0.0937 0.12072,0.069 0.0906,-0.007 0.1875,0.0625 0.027,0.0194 0.0353,0.0431 0.0625,0.0625 0.0714,0.0511 0.1696,0.0631 0.25,0.0937 0.13433,0.0513 0.0189,0.0446 0.1875,0.125 0.0112,0.005 0.14515,0.0252 0.15625,0.0312 0.0152,0.007 0.0162,0.0242 0.0312,0.0312 0.0381,0.0182 0.0243,-0.0182 0.0625,0 0.0178,0.008 -0.006,0.0262 0,0.0312 0.01,-7.1e-4 0.0278,0.005 0.0312,0 -0.006,0.002 0.003,0.008 0.125,0.0312 0.0235,0.004 0.0398,-0.007 0.0625,0 0.0409,0.013 0.0288,0.0832 0.0937,0.0625 0.0232,0.006 0.0711,-0.007 0.0937,0 0.0161,0.005 0.0162,0.0242 0.0312,0.0312 0.0338,0.0161 0.0613,0.0126 0.0937,0.0312 0.035,0.0199 0.0215,0.0207 0.0312,0.0312 l -60.40625,0 0,13.8125 34.875,0 0,71.40625 51.96875,0 0,-71.40625 34.875,0 0,-13.8125 -59.46875,0 c 0.0137,-0.0181 0.03,-0.0416 0.0625,-0.0312 0.0232,-0.006 0.0724,0.0102 0.0937,0 0.0107,-0.005 -0.0107,-0.0263 0,-0.0312 0.0214,-0.0102 0.0411,0.0102 0.0625,0 0.0107,-0.005 -0.005,-0.0211 0,-0.0312 0.008,-0.0145 0.0223,-0.0179 0.0312,-0.0312 0.1047,-0.14962 -0.0205,0.0233 0.0312,-0.125 0.005,-0.0152 0.0242,-0.0169 0.0312,-0.0312 0.009,-0.0187 0.008,-0.50655 0,-0.53125 -0.005,-0.0153 -0.0273,-0.0156 -0.0312,-0.0312 -0.008,-0.0333 0.008,-0.0606 0,-0.0937 -0.004,-0.0156 -0.0242,-0.0169 -0.0312,-0.0312 -0.005,-0.0103 0.004,-0.0516 0,-0.0625 -0.008,-0.0242 -0.0232,-0.0383 -0.0312,-0.0625 -0.0179,-0.0514 0.036,-0.0253 0,-0.0937 -0.005,-0.0102 -0.0205,0.005 -0.0312,0 -0.0152,-0.007 -0.0161,-0.0243 -0.0312,-0.0312 -0.0106,-0.005 -0.0575,0.0102 -0.0625,0 -0.0107,-0.0204 0.0133,-0.0435 0,-0.0625 -0.0149,-0.0212 -0.0411,-0.016 -0.0625,-0.0312 -0.0217,-0.0155 -0.1075,-0.12285 -0.125,-0.15625 -0.0189,-0.036 0,-0.11505 0,-0.15625 0,-0.0814 -0.0204,-0.20315 0,-0.28125 0.007,-0.0247 0.0252,-0.0378 0.0312,-0.0625 0.0203,-0.0775 0,-0.1701 0,-0.25 l 0,-0.34375 c 0,-0.0571 0.0117,-0.10025 0,-0.15625 -0.0152,-0.0725 -0.1061,-0.14695 -0.125,-0.21875 -0.006,-0.0221 0.0107,-0.0421 0,-0.0625 -0.0151,-0.0289 -0.0422,-0.0367 -0.0625,-0.0625 -0.0766,-0.0975 -0.0916,-0.24106 -0.15625,-0.34375 -0.0174,-0.0277 -0.0413,-0.0373 -0.0625,-0.0625 -0.0269,-0.0322 -0.0403,-0.0897 -0.0625,-0.125 -0.0139,-0.0219 -0.0122,-0.0445 -0.0312,-0.0625 -0.019,-0.0181 -0.0747,-0.0132 -0.0937,-0.0312 -0.0305,-0.0292 -0.032,-0.0647 -0.0625,-0.0937 -0.0239,-0.0228 -0.0322,-0.0481 -0.0625,-0.0625 -0.0109,-0.005 -0.0263,0.0102 -0.0312,0 -0.0287,-0.0548 -0.004,-0.0551 0,-0.0625 -9.4e-4,0.005 -0.0356,-0.0184 -0.0625,-0.0312 -0.0152,-0.007 -0.0153,-0.0263 -0.0312,-0.0312 -0.0431,-0.0137 -0.0819,0.0137 -0.125,0 -0.0254,-0.008 -0.0677,-0.0253 -0.0937,-0.0312 -0.0676,-0.0161 -0.1199,0.0161 -0.1875,0 -0.0164,-0.004 -0.0465,-0.0263 -0.0625,-0.0312 -0.0226,-0.007 -0.0397,0.007 -0.0625,0 -0.016,-0.005 -0.0153,-0.0263 -0.0312,-0.0312 -0.0454,-0.0144 -0.10985,0.0111 -0.15625,0 -0.0259,-0.006 -0.0363,-0.0263 -0.0625,-0.0312 -0.0352,-0.007 -0.0605,0.0127 -0.0937,0 -0.0314,-0.012 -0.0634,-0.0481 -0.0937,-0.0625 -0.0214,-0.0102 -0.0392,0.006 -0.0625,0 -0.17332,-0.0413 0.0157,-0.0415 -0.0937,-0.0937 -0.0107,-0.005 -0.0545,0.008 -0.0625,0 -0.0189,-0.0181 -0.0122,-0.0444 -0.0312,-0.0625 -0.008,-0.008 -0.0205,0.005 -0.0312,0 -0.0152,-0.007 -0.0153,-0.0263 -0.0312,-0.0312 -0.0339,-0.0108 -0.39295,-0.003 -0.40625,0 z m 97.1875,14.1875 0.0625,36.46875 4.1875,0.40625 -0.0312,-36.46875 -4.21875,-0.40625 z m 0.0625,45.53125 0.0312,26.28125 4.1875,0.9375 -0.0312,-26.8125 -4.1875,-0.40625 z"
       id="path2989"
       inkscape:export-filename="/Users/Will/Dropbox/Apps/site44/www.willlangford.me/labs/just_sand/images/cute_just_sand2.png"
       inkscape:export-xdpi="145.5"
       inkscape:export-ydpi="145.5"
       inkscape:connector-curvature="0" />
    <path
       inkscape:connector-curvature="0"
       id="path3809"
       d="m 473.20535,368.6663 c 0.0584,-0.0359 -0.0395,-0.2175 0,-0.27403 0.0812,-0.1163 0.0489,-0.0305 0.14362,-0.10276 0.0396,-0.0303 0.0655,-0.0759 0.10773,-0.10277 0.063,-0.0401 0.15053,-0.0314 0.21543,-0.0685 0.029,-0.0166 0.0404,-0.0565 0.0718,-0.0685 0.0333,-0.0127 0.0725,0.007 0.10772,0 0.10136,-0.0193 0.18676,-0.11305 0.28725,-0.13702 0.0348,-0.008 0.0737,0.0109 0.10772,0 0.0254,-0.008 0.0459,-0.028 0.0718,-0.0342 0.0133,-0.003 0.36112,-0.0108 0.39497,0 0.016,0.005 0.0208,0.027 0.036,0.0342 0.0107,0.005 0.0275,-0.008 0.036,0 0.019,0.0181 0.017,0.0504 0.0359,0.0685 0.008,0.008 0.0252,-0.005 0.0359,0 0.1095,0.0523 -0.0656,0.0272 0.10772,0.0685 0.0233,0.006 0.0504,-0.0102 0.0718,0 0.0303,0.0144 0.0404,0.0565 0.0718,0.0685 0.0333,0.0127 0.0725,-0.007 0.10772,0 0.0262,0.005 0.0459,0.0281 0.0718,0.0343 0.0464,0.0111 0.0982,-0.0144 0.14363,0 0.016,0.005 0.0198,0.0292 0.0358,0.0342 0.0228,0.007 0.0492,-0.007 0.0718,0 0.016,0.005 0.0195,0.0303 0.0359,0.0343 0.0676,0.0161 0.14786,-0.0161 0.21544,0 0.026,0.006 0.0464,0.0262 0.0718,0.0342 0.0431,0.0137 0.10053,-0.0137 0.14364,0 0.016,0.005 0.0208,0.027 0.036,0.0343 0.10772,0.0514 -0.0598,-0.11419 0.036,0.0685 0.005,0.0102 0.0251,-0.005 0.036,0 0.0303,0.0144 0.0479,0.0457 0.0718,0.0685 0.0305,0.0291 0.0413,0.0736 0.0718,0.10276 0.019,0.0181 0.0528,0.0162 0.0718,0.0343 0.019,0.018 0.0221,0.0466 0.036,0.0685 0.0222,0.0353 0.0449,0.0706 0.0718,0.10276 0.0212,0.0252 0.0544,0.0408 0.0718,0.0685 0.0646,0.10269 0.067,0.24509 0.14363,0.34254 0.0203,0.0258 0.0567,0.0396 0.0718,0.0685 0.0107,0.0204 -0.006,0.0464 0,0.0685 0.0189,0.0718 0.0925,0.13301 0.10772,0.20552 0.0117,0.056 0,0.11418 0,0.17127 0,0.11418 0,0.22836 0,0.34254 0,0.0799 0.0203,0.16224 0,0.23978 -0.006,0.0247 -0.0295,0.0438 -0.036,0.0685 -0.0204,0.0781 0,0.19264 0,0.27403 0,0.0412 -0.0189,0.13525 0,0.17127 0.0175,0.0334 0.12193,0.12149 0.14362,0.13701 0.0214,0.0153 0.0569,0.013 0.0718,0.0342 0.0133,0.019 -0.0107,0.0481 0,0.0685 0.005,0.0102 0.0252,-0.005 0.0358,0 0.0151,0.007 0.0208,0.0271 0.036,0.0342 0.0107,0.005 0.0306,-0.0102 0.036,0 0.036,0.0685 -0.0179,0.0514 0,0.10276 0.008,0.0242 0.0275,0.0443 0.036,0.0685 0.004,0.0109 -0.005,0.024 0,0.0343 0.007,0.0144 0.0318,0.0186 0.036,0.0342 0.008,0.0332 -0.008,0.0695 0,0.10276 0.004,0.0157 0.0305,0.0189 0.036,0.0342 0.008,0.0247 0.009,0.49507 0,0.51381 -0.007,0.0144 -0.0306,0.019 -0.036,0.0342 -0.0518,0.14831 0.0687,-0.0126 -0.036,0.13702 -0.009,0.0134 -0.0283,0.0198 -0.036,0.0343 -0.005,0.0102 0.0107,0.0292 0,0.0342 -0.0214,0.0102 -0.0504,-0.0102 -0.0718,0 -0.0107,0.005 0.0107,0.0292 0,0.0342 -0.0214,0.0102 -0.0486,-0.006 -0.0718,0 -0.065,-0.0206 -0.0668,0.0555 -0.10771,0.0685 -0.054,0.0172 -0.12407,-0.0132 -0.17954,0 -0.0367,0.009 -0.0707,0.0272 -0.10772,0.0342 -0.11116,0.0212 -0.31382,0 -0.43089,0 -0.20346,0 -0.40694,0 -0.61041,0 -0.0909,0 -0.19748,0.0143 -0.28726,0 -0.28612,-0.0455 -0.0335,10e-4 -0.21544,-0.10276 -0.0325,-0.0186 -0.0739,-0.0181 -0.10772,-0.0342 -0.0151,-0.007 -0.0199,-0.0291 -0.036,-0.0342 -0.0227,-0.007 -0.0486,0.006 -0.0718,0 -0.065,0.0207 -0.0668,-0.0555 -0.10772,-0.0685 -0.0227,-0.007 -0.0483,0.004 -0.0718,0 -0.30233,-0.0577 -10e-4,-5.3e-4 -0.14363,-0.0685 -0.0382,-0.0182 -0.0337,0.0182 -0.0718,0 -0.0151,-0.007 -0.0208,-0.0271 -0.036,-0.0343 -0.0111,-0.006 -0.13248,-0.0289 -0.14363,-0.0342 -0.1686,-0.0804 -0.0452,-0.0515 -0.17953,-0.10276 -0.0804,-0.0306 -0.17998,-0.0517 -0.25135,-0.10276 -0.0272,-0.0194 -0.0448,-0.0491 -0.0718,-0.0685 -0.0969,-0.0693 -0.0588,5.5e-4 -0.17952,-0.0685 -0.029,-0.0166 -0.0428,-0.0519 -0.0718,-0.0685 -0.0529,-0.0303 -0.46765,-0.15773 -0.53861,-0.17127 -0.0235,-0.004 -0.0504,0.0102 -0.0718,0 -0.0107,-0.005 0.0114,-0.0306 0,-0.0342 -0.0897,-0.0285 -0.0998,0.019 -0.17953,0 -0.052,-0.0124 -0.0929,-0.0524 -0.14363,-0.0685 -0.0227,-0.007 -0.0492,0.007 -0.0718,0 -0.0254,-0.008 -0.0459,-0.0281 -0.0718,-0.0343 -0.079,-0.0188 -0.17134,0.0153 -0.25136,0 -0.0371,-0.007 -0.0705,-0.0272 -0.10771,-0.0342 -0.1021,-0.0195 -0.55637,0.0258 -0.61042,0 -0.0107,-0.005 0.005,-0.024 0,-0.0343 -0.007,-0.0144 -0.0306,-0.0189 -0.036,-0.0342 -0.0206,-0.0592 0,-0.23962 0,-0.30829 0,-0.0451 -0.0147,-0.34891 0,-0.37679 0.0848,-0.16175 -0.0189,0.20907 0.0718,-0.13702 0.003,-0.0111 -0.008,-0.0262 0,-0.0342 0.20344,-0.097 -0.0267,0.0383 0.0718,-0.10277 0.0149,-0.0212 0.0569,-0.013 0.0718,-0.0343 0.0133,-0.019 -0.007,-0.0469 0,-0.0685 0.005,-0.0153 0.0265,-0.0208 0.0358,-0.0343 0.054,-0.0773 0.0931,-0.1594 0.14362,-0.23978 0.0222,-0.0353 0.0459,-0.0698 0.0718,-0.10276 0.0105,-0.0129 0.0306,-0.0189 0.036,-0.0342 0.007,-0.0217 -0.0144,-0.0503 0,-0.0685 0.13706,-0.17434 0.0648,0.007 0.17954,-0.10276 0.0189,-0.018 0.0198,-0.0481 0.0358,-0.0685 0.0305,-0.0387 0.0623,-0.0811 0.10773,-0.10276 0.0107,-0.005 0.0245,0.004 0.036,0 0.0254,-0.008 0.0464,-0.0262 0.0718,-0.0342 0.0114,-0.004 0.0252,0.005 0.036,0 0.0151,-0.007 0.0208,-0.0271 0.036,-0.0342 0.0885,-0.0422 -0.0324,0.0994 0.10771,-0.0343 0.008,-0.008 -0.008,-0.0262 0,-0.0342 0.008,-0.008 0.0275,0.008 0.036,0 0.019,-0.0181 0.017,-0.0504 0.0358,-0.0685 0.008,-0.008 0.0252,0.005 0.036,0 0.0303,-0.0144 0.0415,-0.0541 0.0718,-0.0685 0.0107,-0.005 0.0252,0.005 0.036,0 0.0303,-0.0144 0.0397,-0.0583 0.0718,-0.0685 0.0227,-0.007 0.0492,0.007 0.0718,0 0.016,-0.005 0.0199,-0.0292 0.036,-0.0342 0.16346,0 0.002,0.0161 0.10772,-0.0343 0.0107,-0.005 0.0275,0.008 0.036,0 0.008,-0.008 -0.005,-0.024 0,-0.0342 0.007,-0.0144 0.0254,-0.0217 0.036,-0.0342 0.0374,-0.0446 0.0718,-0.0913 0.10773,-0.13702 z"
       style="fill:#000000;fill-opacity:1;stroke:none" />
    <rect
       transform="scale(1,-1)"
       ry="0"
       y="-366.12228"
       x="472.29272"
       height="97.775352"
       width="4.5041857"
       id="rect3811"
       style="fill:#000000;fill-opacity:1;stroke:none" />
    <rect
       transform="matrix(0.7839533,0.6208198,0.62204606,-0.78298065,0,0)"
       ry="0"
       y="8.0887136"
       x="602.59235"
       height="11.400254"
       width="0.82941258"
       id="rect3813"
       style="fill:#000000;fill-opacity:1;stroke:none" />
    <rect
       transform="matrix(0.47212081,0.88153386,0.79716376,-0.60376315,0,0)"
       ry="0"
       y="250.30363"
       x="591.13837"
       height="12.185416"
       width="0.95301247"
       id="rect3815"
       style="fill:#000000;fill-opacity:1;stroke:none" />
    <rect
       transform="matrix(-0.41142876,0.91144192,0.62661877,0.77932594,0,0)"
       ry="0"
       y="640.77576"
       x="-153.06392"
       height="10.695098"
       width="0.88762885"
       id="rect3817"
       style="fill:#000000;fill-opacity:1;stroke:none" />
    <rect
       y="323.12555"
       x="459.78296"
       height="6.7562804"
       width="26.274424"
       id="rect3819"
       style="fill:#ffffff;fill-opacity:1;stroke:none" />
    <rect
       inkscape:transform-center-y="9.2447333"
       inkscape:transform-center-x="7.2069315"
       transform="matrix(0.70424592,0.70995611,-0.65375117,0.75670959,0,0)"
       y="-178.74855"
       x="530.30658"
       height="62.992138"
       width="4.2083993"
       id="rect3821"
       style="fill:#000000;fill-opacity:1;stroke:none" />
    <rect
       inkscape:transform-center-y="0.57984776"
       inkscape:transform-center-x="18.914362"
       transform="matrix(-0.12493816,0.99216453,-0.99999985,-5.4672346e-4,0,0)"
       y="-608.84894"
       x="268.35483"
       height="101.76715"
       width="4.2288079"
       id="rect3823"
       style="fill:#000000;fill-opacity:1;stroke:none" />
    <rect
       transform="scale(1,-1)"
       y="-297.98273"
       x="504.44946"
       height="38.285561"
       width="9.0083694"
       id="rect3825"
       style="fill:#ffffff;fill-opacity:1;stroke:none" />
    <rect
       y="291.46182"
       x="470.29269"
       height="6.0055504"
       width="21.77025"
       id="rect3827"
       style="fill:#ffffff;fill-opacity:1;stroke:none" />
    <rect
       inkscape:transform-center-y="-34.875723"
       inkscape:transform-center-x="0.62912144"
       transform="matrix(-0.97655135,-0.21528462,-0.00111563,-0.99999938,0,0)"
       y="-327.95761"
       x="-589.24011"
       height="187.68323"
       width="4.297792"
       id="rect3829"
       style="fill:#000000;fill-opacity:1;stroke:none" />
    <rect
       transform="scale(1,-1)"
       y="-293.47855"
       x="546.11322"
       height="38.285561"
       width="9.0083694"
       id="rect3831"
       style="fill:#ffffff;fill-opacity:1;stroke:none" />
    <rect
       transform="matrix(-0.09586057,0.99539477,0.99539477,0.09586057,0,0)"
       y="580.74835"
       x="245.75815"
       height="38.285561"
       width="9.0083694"
       id="rect3833"
       style="fill:#ffffff;fill-opacity:1;stroke:none" />
    <rect
       transform="matrix(-0.09586057,0.99539477,0.99539477,0.09586057,0,0)"
       y="585.25024"
       x="282.0426"
       height="38.285561"
       width="9.0083694"
       id="rect3835"
       style="fill:#ffffff;fill-opacity:1;stroke:none" />
    <rect
       transform="matrix(-0.09586057,0.99539477,0.99539477,0.09586057,0,0)"
       y="587.56287"
       x="316.51736"
       height="38.285561"
       width="9.0083694"
       id="rect3837"
       style="fill:#ffffff;fill-opacity:1;stroke:none" />
    <rect
       transform="matrix(-0.09586057,0.99539477,0.99539477,0.09586057,0,0)"
       y="594.94153"
       x="361.81119"
       height="38.285561"
       width="9.0083694"
       id="rect3840"
       style="fill:#ffffff;fill-opacity:1;stroke:none" />
    <rect
       inkscape:transform-center-y="9.2447391"
       inkscape:transform-center-x="-7.2069248"
       transform="matrix(-0.70424592,0.70995611,0.65375117,0.75670959,0,0)"
       y="569.16797"
       x="-265.42865"
       height="62.992138"
       width="4.2083993"
       id="rect3842"
       style="fill:#000000;fill-opacity:1;stroke:none" />
    <rect
       y="372.22369"
       x="414.65915"
       height="17.015112"
       width="121.71053"
       id="rect3844"
       style="fill:#000000;fill-opacity:1;stroke:none" />
    <rect
       y="382.42105"
       x="453.2601"
       height="75"
       width="44.508598"
       id="rect3846"
       style="fill:#000000;fill-opacity:1;stroke:none" />
    <rect
       transform="matrix(-0.1777515,0.98407541,0.79712995,0.60380779,0,0)"
       ry="0"
       y="580.89532"
       x="13.103705"
       height="10.695098"
       width="0.88762885"
       id="rect3848"
       style="fill:#000000;fill-opacity:1;stroke:none" />
  </g>
</svg>
