<?xml version="1.0" encoding="UTF-8" standalone="no"?>
<!-- Created with Inkscape (http://www.inkscape.org/) -->

<svg
   xmlns:dc="http://purl.org/dc/elements/1.1/"
   xmlns:cc="http://creativecommons.org/ns#"
   xmlns:rdf="http://www.w3.org/1999/02/22-rdf-syntax-ns#"
   xmlns:svg="http://www.w3.org/2000/svg"
   xmlns="http://www.w3.org/2000/svg"
   xmlns:sodipodi="http://sodipodi.sourceforge.net/DTD/sodipodi-0.dtd"
   xmlns:inkscape="http://www.inkscape.org/namespaces/inkscape"
   width="744.09448819"
   height="1052.3622047"
   id="svg2"
   version="1.1"
   inkscape:version="0.48.2 r9819"
   sodipodi:docname="just_sand_final.svg">
  <defs
     id="defs4" />
  <sodipodi:namedview
     id="base"
     pagecolor="#ffffff"
     bordercolor="#666666"
     borderopacity="1.0"
     inkscape:pageopacity="0.0"
     inkscape:pageshadow="2"
     inkscape:zoom="1.3320939"
     inkscape:cx="338.93439"
     inkscape:cy="731.09362"
     inkscape:document-units="px"
     inkscape:current-layer="layer1"
     showgrid="false"
     inkscape:window-width="1199"
     inkscape:window-height="825"
     inkscape:window-x="0"
     inkscape:window-y="0"
     inkscape:window-maximized="0" />
  <metadata
     id="metadata7">
    <rdf:RDF>
      <cc:Work
         rdf:about="">
        <dc:format>image/svg+xml</dc:format>
        <dc:type
           rdf:resource="http://purl.org/dc/dcmitype/StillImage" />
        <dc:title></dc:title>
      </cc:Work>
    </rdf:RDF>
  </metadata>
  <g
     inkscape:label="Layer 1"
     inkscape:groupmode="layer"
     id="layer1">
    <path
       style="fill:#000000;stroke:none;stroke-width:1px;stroke-linecap:butt;stroke-linejoin:miter;stroke-opacity:1;fill-opacity:1"
       d="M 305.28125 241.78125 L 264.125 289.4375 L 267.09375 292.40625 L 287.25 269.0625 L 287.25 292 L 291.78125 292 L 291.78125 271.25 L 319.4375 271.28125 L 319.4375 267.09375 L 288.96875 267.0625 L 308.25 244.75 L 305.28125 241.78125 z M 374 242.78125 L 371.03125 245.78125 L 389.46875 267.125 L 388.09375 267.125 L 386.34375 266.75 L 386.34375 267.125 L 370.09375 267.125 L 370.09375 271.3125 L 386.34375 271.3125 L 386.375 302.46875 L 390.59375 302.875 L 390.5625 268.375 L 412.21875 293.4375 L 415.1875 290.4375 L 374 242.78125 z M 328.4375 267.09375 L 328.4375 271.28125 L 361.09375 271.28125 L 361.09375 267.09375 L 328.4375 267.09375 z M 288.46875 267.65625 L 288.3125 268.875 L 287.40625 268.875 L 288.46875 267.65625 z M 287.25 298 L 287.25 323.65625 L 291.78125 323.65625 L 291.78125 298 L 287.25 298 z M 386.40625 311.53125 L 386.4375 338.90625 L 390.625 339.3125 L 390.59375 311.9375 L 386.40625 311.53125 z M 287.25 330.40625 L 287.25 359.71875 L 291.78125 359.71875 L 291.78125 330.40625 L 287.25 330.40625 z M 270.9375 346.625 L 270.09375 348.3125 L 285.34375 365.53125 L 286.15625 363.875 L 270.9375 346.625 z M 311.8125 347.125 L 294.40625 363.84375 L 296 364.8125 L 313.40625 348.09375 L 311.8125 347.125 z M 386.4375 347.96875 L 386.46875 373.5625 L 390.65625 373.96875 L 390.65625 348.375 L 386.4375 347.96875 z M 318.53125 355.375 L 297.3125 367.4375 L 298.3125 368.8125 L 319.5 356.75 L 318.53125 355.375 z M 263.28125 357.3125 L 262.84375 358.875 L 280.46875 366.625 L 280.90625 365.0625 L 263.28125 357.3125 z M 287.71875 368.375 C 285.77774 368.39575 283.88977 368.4338 283.75 368.46875 C 283.20717 368.60446 282.78082 369.04181 282.25 369.21875 C 281.53782 369.45614 280.72829 369.03668 280 369.21875 C 277.89894 369.74402 276.12036 371.79468 274 372.21875 C 273.26388 372.36598 272.447 371.93995 271.75 372.21875 C 271.09286 372.48161 270.85691 373.35461 270.25 373.71875 C 268.89293 374.533 267.06681 374.34087 265.75 375.21875 C 264.86665 375.80764 264.32901 376.83679 263.5 377.5 C 261.52205 379.08236 262.1991 377.20135 260.5 379.75 C 259.67405 380.98893 261.72 384.9636 260.5 385.75 C 260.22725 386.11367 259.95619 386.47767 259.6875 386.84375 L 259.6875 401.3125 C 259.68748 403.31683 259.50864 404.85825 259.15625 405.9375 C 258.68269 407.34714 257.80693 408.4535 256.5625 409.3125 C 255.31804 410.16048 253.6936 410.59375 251.65625 410.59375 C 249.26647 410.59375 247.41349 409.9263 246.125 408.59375 C 244.8365 407.25019 244.19851 405.27551 244.1875 402.6875 L 248.78125 402.1875 C 248.83631 403.57512 249.05384 404.55234 249.40625 405.125 C 249.93486 405.99501 250.73324 406.40625 251.8125 406.40625 C 252.90276 406.40625 253.67347 406.11672 254.125 405.5 C 254.57651 404.87228 254.81249 403.58528 254.8125 401.625 L 254.8125 391 C 254.66736 390.99827 254.68169 391 254.5 391 C 254.16428 391.11191 254.08572 391.63809 253.75 391.75 C 253.27522 391.90826 252.72478 391.59174 252.25 391.75 C 251.57855 391.97381 251.35179 392.93348 250.71875 393.25 C 250.49493 393.36191 250.19257 393.1381 249.96875 393.25 C 249.33571 393.56652 249.10179 394.43348 248.46875 394.75 C 248.24493 394.86191 247.89569 394.57306 247.71875 394.75 C 247.3231 395.14565 247.3644 395.85435 246.96875 396.25 C 246.79181 396.42695 246.39569 396.07306 246.21875 396.25 C 246.04181 396.42695 246.39569 396.82306 246.21875 397 C 243.28898 399.92978 245.81768 396.82553 243.96875 397.75 C 243.65223 397.90826 243.53527 398.34174 243.21875 398.5 C 242.99494 398.6119 242.70615 398.4209 242.46875 398.5 C 241.93793 398.67694 241.49957 399.07305 240.96875 399.25 C 240.73136 399.3291 240.44257 399.13809 240.21875 399.25 C 239.26918 399.72478 238.60573 400.65068 237.96875 401.5 C 237.63302 401.94763 237.6144 402.60435 237.21875 403 C 234.81866 405.4001 236.3343 401.42927 233.46875 405.25 C 233.16847 405.65037 233.62701 406.27522 233.46875 406.75 C 233.35684 407.08573 232.93108 407.2169 232.71875 407.5 C 232.17742 408.22178 231.68294 408.97635 231.21875 409.75 C 230.16192 411.51139 229.3483 413.33692 228.21875 415.03125 C 228.02245 415.3257 227.58065 415.44552 227.46875 415.78125 C 227.31049 416.25603 227.74636 416.86484 227.46875 417.28125 C 227.15837 417.74682 226.27913 417.56569 225.96875 418.03125 C 223.90782 421.12265 228.72196 418.15464 224.46875 420.28125 C 224.2918 420.4582 224.52945 420.78849 224.46875 421.03125 C 222.57256 428.61601 224.74122 420.48632 222.96875 424.03125 C 222.66317 424.64242 222.96875 431.29219 222.96875 432.28125 C 222.96875 433.78611 222.53633 437.73399 222.96875 439.03125 C 223.08066 439.36697 223.56049 439.46473 223.71875 439.78125 C 223.83066 440.00506 223.49493 440.41934 223.71875 440.53125 C 224.84892 441.09633 234.33383 440.10426 236.46875 440.53125 C 237.24469 440.68643 237.94282 441.12607 238.71875 441.28125 C 239.82746 441.50299 241.04127 441.2635 242.21875 441.1875 C 241.05344 439.83044 240.32637 438.05085 240.0625 435.8125 L 244.8125 435.34375 C 245.09883 436.94061 245.69248 438.09489 246.5625 438.84375 C 247.44351 439.59262 248.60701 439.96875 250.09375 439.96875 C 251.66856 439.96875 252.86332 439.66077 253.65625 439 C 254.46017 438.32823 254.87498 437.54829 254.875 436.65625 C 254.87498 436.08359 254.68513 435.58397 254.34375 435.1875 C 254.01335 434.78004 253.43071 434.42235 252.59375 434.125 C 252.02107 433.92678 250.72485 433.5691 248.6875 433.0625 C 246.06645 432.41276 244.21347 431.63461 243.15625 430.6875 C 241.66952 429.35497 240.9375 427.72874 240.9375 425.8125 C 240.9375 424.57909 241.27494 423.41201 241.96875 422.34375 C 242.67356 421.26452 243.68947 420.46793 245 419.90625 C 246.32153 419.34462 247.92008 419.06252 249.78125 419.0625 C 252.82076 419.06252 255.09421 419.72998 256.625 421.0625 C 258.16677 422.39507 258.98539 424.15044 259.0625 426.375 L 254.1875 426.59375 C 253.97824 425.34932 253.50629 424.47715 252.8125 423.9375 C 252.12969 423.38688 251.09534 423.09377 249.71875 423.09375 C 248.29809 423.09377 247.21017 423.38509 246.40625 423.96875 C 245.88864 424.3432 245.62499 424.84104 245.625 425.46875 C 245.62499 426.04143 245.85918 426.53004 246.34375 426.9375 C 246.96046 427.45512 248.46498 428.00086 250.84375 428.5625 C 253.2225 429.12417 254.95942 429.70681 256.09375 430.3125 C 257.23906 430.9072 258.14249 431.73505 258.78125 432.78125 C 259.43098 433.81646 259.74998 435.09423 259.75 436.625 C 259.74998 438.01262 259.36462 439.31985 258.59375 440.53125 C 257.82284 441.74266 256.75337 442.62406 255.34375 443.21875 C 254.87666 443.41215 254.35747 443.55826 253.8125 443.6875 C 253.78009 443.89467 253.58873 444.23187 253.75 444.3125 C 254.19763 444.53632 254.75925 444.2144 255.25 444.3125 C 256.73328 444.60916 265.39269 447.39811 266.5 448.0625 C 267.10691 448.42665 267.3931 449.19836 268 449.5625 C 270.52328 451.07649 269.72443 449.54333 271.75 451.0625 C 272.31621 451.48716 272.68379 452.13784 273.25 452.5625 C 274.74208 453.68156 276.81958 454.14034 278.5 454.8125 C 281.30903 455.93612 278.72505 455.30002 282.25 457.0625 C 282.48294 457.17897 285.01706 457.69604 285.25 457.8125 C 285.56652 457.97077 285.71472 458.40424 286.03125 458.5625 C 286.82917 458.96146 286.73333 458.16354 287.53125 458.5625 C 290.51084 460.0523 284.21062 458.79837 290.53125 460.0625 C 291.022 460.1607 291.55647 459.90424 292.03125 460.0625 C 292.88718 460.34781 292.92253 462.01497 294.28125 461.5625 C 294.76678 461.68388 295.30647 461.40424 295.78125 461.5625 C 296.11697 461.67441 296.21472 462.15424 296.53125 462.3125 C 297.23901 462.66638 298.10271 462.65538 298.78125 463.0625 C 302.58481 465.34459 297.29936 464.31552 303.28125 465.3125 C 305.15822 465.62533 307.38216 465.3125 309.28125 465.3125 L 322.0625 465.3125 C 324.50994 465.3125 328.73855 465.77729 331.0625 465.3125 C 331.83843 465.15732 332.54482 464.75441 333.3125 464.5625 C 334.47219 464.27257 335.93262 464.93912 337.0625 464.5625 C 337.91843 464.27719 337.95378 462.61003 339.3125 463.0625 C 339.79802 462.94112 340.36487 463.28631 340.8125 463.0625 C 341.03631 462.95059 340.58868 462.42441 340.8125 462.3125 C 341.26013 462.08869 341.86487 462.53632 342.3125 462.3125 C 342.53632 462.20059 342.2006 461.78632 342.3125 461.5625 C 342.47076 461.24598 342.8662 461.10694 343.0625 460.8125 C 345.2483 457.53379 342.72909 461.06274 343.8125 457.8125 C 343.92441 457.47678 344.40424 457.37902 344.5625 457.0625 C 344.76787 456.65174 344.7428 446.35342 344.5625 445.8125 C 344.45059 445.47678 343.8983 445.40582 343.8125 445.0625 C 343.63043 444.33422 343.99457 443.50953 343.8125 442.78125 C 343.72667 442.43793 343.22076 442.34777 343.0625 442.03125 C 342.95059 441.80744 343.1416 441.51864 343.0625 441.28125 C 342.88556 440.75043 342.48944 440.31207 342.3125 439.78125 C 341.93715 438.6552 343.0632 439.03265 342.3125 437.53125 C 342.2006 437.30744 341.78632 437.64316 341.5625 437.53125 C 341.24598 437.37299 341.12902 436.93951 340.8125 436.78125 C 340.58868 436.66934 340.17441 437.00506 340.0625 436.78125 C 339.83868 436.33362 340.34011 435.69766 340.0625 435.28125 C 339.75212 434.81569 339.01013 434.86697 338.5625 434.53125 C 338.10901 434.19114 335.92846 432.26317 335.5625 431.53125 C 335.16782 430.7419 335.5625 428.68294 335.5625 427.78125 C 335.5625 425.99755 335.13462 423.4928 335.5625 421.78125 C 335.69821 421.23842 336.17679 420.82408 336.3125 420.28125 C 336.73733 418.58193 336.3125 416.78288 336.3125 415.03125 L 336.3125 407.5 C 336.3125 406.24884 336.55787 404.97687 336.3125 403.75 C 335.99467 402.16083 334.45608 400.82432 334.0625 399.25 C 333.94112 398.76447 334.28631 398.19763 334.0625 397.75 C 333.74597 397.11696 332.98716 396.81622 332.5625 396.25 C 330.96078 394.11438 330.91273 391.00038 329.5625 388.75 C 329.52697 388.69078 329.47877 388.64834 329.4375 388.59375 L 329.4375 390.0625 L 322.28125 390.0625 L 322.28125 410.1875 L 317.40625 410.1875 L 317.40625 390.0625 L 310.21875 390.0625 L 310.21875 385.96875 L 327.15625 385.96875 C 326.9537 385.65131 326.7562 385.32283 326.5625 385 C 326.27462 384.5202 326.20815 383.89565 325.8125 383.5 C 325.41685 383.10435 324.70815 383.14566 324.3125 382.75 C 323.67452 382.11203 323.45047 381.13797 322.8125 380.5 C 322.31203 379.99953 321.94555 379.31653 321.3125 379 C 321.08869 378.8881 320.6744 379.22382 320.5625 379 C 320.2218 378.3186 320.04605 377.86283 319.96875 377.5625 C 319.90621 377.53513 319.88734 377.53742 319.8125 377.5 C 319.49598 377.34174 319.36697 376.83066 319.03125 376.71875 C 318.13041 376.41847 316.93209 377.01903 316.03125 376.71875 C 315.50043 376.54181 315.07408 376.10446 314.53125 375.96875 C 313.11818 375.61548 311.44433 376.32202 310.03125 375.96875 C 309.68793 375.88292 309.61697 375.33065 309.28125 375.21875 C 308.80647 375.06048 308.25604 375.37701 307.78125 375.21875 C 307.44553 375.10684 307.36697 374.58065 307.03125 374.46875 C 306.08168 374.15223 305.0023 374.71151 304.03125 374.46875 C 303.48842 374.33304 303.07992 373.82848 302.53125 373.71875 C 301.79513 373.57153 300.97825 373.99755 300.28125 373.71875 C 299.6241 373.45589 299.41429 372.53528 298.78125 372.21875 C 298.33362 371.99494 297.76678 372.34013 297.28125 372.21875 C 293.65618 371.31248 297.32055 371.8634 295.03125 370.71875 C 294.80744 370.60684 294.45819 370.89569 294.28125 370.71875 C 293.8856 370.3231 293.92691 369.61441 293.53125 369.21875 C 293.35431 369.04181 293.00506 369.33066 292.78125 369.21875 C 292.46473 369.06049 292.36697 368.58066 292.03125 368.46875 C 291.67736 368.35079 289.65976 368.35425 287.71875 368.375 z M 319.96875 377.5625 C 321.46791 378.21867 319.60697 376.15682 319.96875 377.5625 z M 386.46875 382.59375 L 386.53125 419.0625 L 390.71875 419.46875 L 390.6875 383 L 386.46875 382.59375 z M 297.8125 385.5625 C 300.85201 385.56252 303.12546 386.22998 304.65625 387.5625 C 306.19802 388.89507 307.01664 390.65044 307.09375 392.875 L 302.21875 393.09375 C 302.00949 391.84932 301.53754 390.97715 300.84375 390.4375 C 300.16094 389.88688 299.15784 389.59377 297.78125 389.59375 C 296.36059 389.59377 295.24142 389.88509 294.4375 390.46875 C 293.91989 390.8432 293.65624 391.34104 293.65625 391.96875 C 293.65624 392.54143 293.89043 393.03004 294.375 393.4375 C 294.99171 393.95512 296.49623 394.50086 298.875 395.0625 C 301.25375 395.62417 303.02192 396.20681 304.15625 396.8125 C 305.30156 397.4072 306.17374 398.23505 306.8125 399.28125 C 307.46223 400.31646 307.78123 401.59423 307.78125 403.125 C 307.78123 404.51262 307.39587 405.81985 306.625 407.03125 C 305.85409 408.24266 304.78462 409.15531 303.375 409.75 C 301.96535 410.33368 300.19718 410.625 298.09375 410.625 C 295.03219 410.625 292.67215 409.90964 291.03125 408.5 C 289.39034 407.07935 288.41312 405.02165 288.09375 402.3125 L 292.875 401.84375 C 293.16133 403.44061 293.72373 404.62614 294.59375 405.375 C 295.47476 406.12387 296.66951 406.5 298.15625 406.5 C 299.73106 406.5 300.89457 406.16077 301.6875 405.5 C 302.49142 404.82823 302.90623 404.04829 302.90625 403.15625 C 302.90623 402.58359 302.74763 402.08397 302.40625 401.6875 C 302.07585 401.28004 301.46196 400.92235 300.625 400.625 C 300.05232 400.42678 298.7561 400.10035 296.71875 399.59375 C 294.0977 398.94401 292.27597 398.13461 291.21875 397.1875 C 289.73202 395.85497 288.96875 394.22874 288.96875 392.3125 C 288.96875 391.07909 289.33744 389.94326 290.03125 388.875 C 290.73606 387.79577 291.72072 386.96793 293.03125 386.40625 C 294.35278 385.84462 295.95133 385.56252 297.8125 385.5625 z M 264.875 385.96875 L 269.75 385.96875 L 269.75 399.09375 C 269.74999 401.17517 269.81635 402.50829 269.9375 403.125 C 270.14674 404.11616 270.62433 404.92555 271.40625 405.53125 C 272.19916 406.12594 273.29065 406.40625 274.65625 406.40625 C 276.04385 406.40625 277.07642 406.12416 277.78125 405.5625 C 278.48605 404.98984 278.91932 404.29471 279.0625 403.46875 C 279.20565 402.6428 279.28123 401.29123 279.28125 399.375 L 279.28125 385.96875 L 284.15625 385.96875 L 284.15625 398.6875 C 284.15623 401.59488 284.04554 403.64336 283.78125 404.84375 C 283.51692 406.04415 283.02831 407.04904 282.3125 407.875 C 281.60766 408.70096 280.65811 409.37943 279.46875 409.875 C 278.27935 410.35956 276.72871 410.59375 274.8125 410.59375 C 272.49981 410.59375 270.73163 410.34111 269.53125 409.8125 C 268.34186 409.27287 267.41255 408.56674 266.71875 407.71875 C 266.02494 406.85976 265.564 405.96734 265.34375 405.03125 C 265.02438 403.64365 264.875 401.58415 264.875 398.875 L 264.875 385.96875 z M 270.875 419.46875 L 276.03125 419.46875 L 285.75 443.6875 L 280.40625 443.6875 L 278.3125 438.1875 L 268.625 438.1875 L 266.625 443.6875 L 261.4375 443.6875 L 270.875 419.46875 z M 288.46875 419.46875 L 293.21875 419.46875 L 303.125 435.625 L 303.125 419.46875 L 307.6875 419.46875 L 307.6875 443.6875 L 302.78125 443.6875 L 293 427.875 L 293 443.6875 L 288.46875 443.6875 L 288.46875 419.46875 z M 312.84375 419.46875 L 321.78125 419.46875 C 323.79658 419.46877 325.34901 419.62917 326.40625 419.9375 C 327.82688 420.35601 329.01806 421.08803 330.03125 422.15625 C 331.04441 423.22451 331.81512 424.54097 332.34375 426.09375 C 332.87234 427.63556 333.15623 429.54388 333.15625 431.8125 C 333.15623 433.80582 332.9018 435.52608 332.40625 436.96875 C 331.80053 438.7308 330.93578 440.12849 329.8125 441.21875 C 328.9645 442.04471 327.81766 442.69371 326.375 443.15625 C 325.29573 443.49765 323.86858 443.6875 322.0625 443.6875 L 312.84375 443.6875 L 312.84375 419.46875 z M 317.75 423.5625 L 317.75 439.59375 L 321.375 439.59375 C 322.74057 439.59375 323.73803 439.52918 324.34375 439.375 C 325.13666 439.17677 325.79488 438.84855 326.3125 438.375 C 326.8411 437.90146 327.26335 437.11051 327.59375 436.03125 C 327.92412 434.94099 328.09373 433.46593 328.09375 431.59375 C 328.09373 429.72159 327.92412 428.28343 327.59375 427.28125 C 327.26335 426.2791 326.81342 425.49917 326.21875 424.9375 C 325.62404 424.37587 324.85155 423.9795 323.9375 423.78125 C 323.25469 423.62709 321.9308 423.56252 319.9375 423.5625 L 317.75 423.5625 z M 273.40625 425.125 L 270.125 434.09375 L 276.75 434.09375 L 273.40625 425.125 z M 386.53125 428.125 L 386.5625 454.40625 L 390.75 455.34375 L 390.71875 428.53125 L 386.53125 428.125 z "
       id="path2989"
       inkscape:export-filename="/Users/Will/Dropbox/Apps/site44/www.willlangford.me/img/cute_just_sand.png"
       inkscape:export-xdpi="140.32001"
       inkscape:export-ydpi="140.32001" />
  </g>
</svg>
