<svg class="main-svg" xmlns="http://www.w3.org/2000/svg" xmlns:xlink="http://www.w3.org/1999/xlink" width="1024" height="640" style="" viewBox="0 0 1024 640"><rect x="0" y="0" width="1024" height="640" style="fill: rgb(255, 255, 255); fill-opacity: 1;"/><defs id="defs-9031ce"><g class="clips"><clipPath class="plotclip" id="clip9031cexyplot"><rect width="864" height="460"/></clipPath><clipPath class="axesclip" id="clip9031cex"><rect x="80" y="0" width="864" height="640"/></clipPath><clipPath class="axesclip" id="clip9031cey"><rect x="0" y="100" width="1024" height="460"/></clipPath><clipPath class="axesclip" id="clip9031cexy"><rect x="80" y="100" width="864" height="460"/></clipPath></g><g class="gradients"/></defs><g class="bglayer"><rect class="bg" x="80" y="100" width="864" height="460" style="fill: rgb(255, 255, 255); fill-opacity: 1; stroke-width: 0;"/></g><g class="layer-below"><g class="imagelayer"/><g class="shapelayer"/></g><g class="cartesianlayer"><g class="subplot xy"><g class="layer-subplot"><g class="shapelayer"/><g class="imagelayer"/></g><g class="gridlayer" transform="translate(80,100)"><path class="xgrid crisp" d="M0,0v460" transform="translate(172.8,0)" style="stroke: rgb(238, 238, 238); stroke-opacity: 1; stroke-width: 1px;"/><path class="xgrid crisp" d="M0,0v460" transform="translate(345.6,0)" style="stroke: rgb(238, 238, 238); stroke-opacity: 1; stroke-width: 1px;"/><path class="xgrid crisp" d="M0,0v460" transform="translate(518.4,0)" style="stroke: rgb(238, 238, 238); stroke-opacity: 1; stroke-width: 1px;"/><path class="xgrid crisp" d="M0,0v460" transform="translate(691.2,0)" style="stroke: rgb(238, 238, 238); stroke-opacity: 1; stroke-width: 1px;"/><path class="ygrid crisp" d="M0,0h864" transform="translate(0,350.48)" style="stroke: rgb(238, 238, 238); stroke-opacity: 1; stroke-width: 1px;"/><path class="ygrid crisp" d="M0,0h864" transform="translate(0,262.86)" style="stroke: rgb(238, 238, 238); stroke-opacity: 1; stroke-width: 1px;"/><path class="ygrid crisp" d="M0,0h864" transform="translate(0,175.24)" style="stroke: rgb(238, 238, 238); stroke-opacity: 1; stroke-width: 1px;"/><path class="ygrid crisp" d="M0,0h864" transform="translate(0,87.62)" style="stroke: rgb(238, 238, 238); stroke-opacity: 1; stroke-width: 1px;"/></g><g class="overgrid"/><g class="zerolinelayer" transform="translate(80,100)"><path class="xzl zl crisp" d="M0,0v460" transform="translate(0,0)" style="stroke: rgb(68, 68, 68); stroke-opacity: 1; stroke-width: 1px;"/><path class="yzl zl crisp" d="M0,0h864" transform="translate(0,438.1)" style="stroke: rgb(68, 68, 68); stroke-opacity: 1; stroke-width: 1px;"/></g><g class="overzero"/><path class="xlines-below"/><path class="ylines-below"/><g class="overlines-below"/><g class="xaxislayer-below"/><g class="yaxislayer-below"/><g class="overaxes-below"/><g class="plot" transform="translate(80, 100)" clip-path="url(#clip9031cexyplot)"><g class="imagelayer"/><g class="maplayer"/><g class="barlayer"/><g class="carpetlayer"/><g class="boxlayer"/><g class="scatterlayer"><g class="trace scatter trace34dee8" style="stroke-miterlimit: 2; opacity: 1;"><path class="js-line" d="M0,448.65L11.6,445.87L17.4,439.51L23.19,427.18L28.99,421.1L34.79,417.14L40.59,402.64L46.39,392.6L52.19,393.4L57.99,394.85L63.79,395.49L69.58,396.77L75.38,397.08L81.18,394.03L86.98,382.83L92.78,373.47L98.58,365.86L104.38,331.14L110.17,317.26L115.97,313.09L121.77,313.3L127.57,367.83L133.37,430.1L139.17,450.72L144.97,455.42L156.56,458.41L162.36,455.37L168.16,454.63L173.96,450.6L191.36,444.36L197.15,437.28L202.95,425.49L208.75,420.78L214.55,418.6L220.35,403.73L226.15,396.08L231.95,395.53L255.14,397.91L260.94,395.08L266.74,388L272.54,377.9L278.34,362.99L284.13,326.9L289.93,316.87L295.73,313.76L301.53,313.55L307.33,392.57L313.13,435.77L318.93,451.63L324.72,455.77L330.52,456.85L336.32,457.23L342.12,455.3L347.92,453.88L353.72,450.32L359.52,447.45L365.32,446.36L371.11,443.24L376.91,435.96L382.71,424L388.51,420.15L394.31,416.66L400.11,401.61L405.91,395.72L411.7,395.61L429.1,398.11L434.9,397.87L440.7,392.32L446.5,382.81L452.3,374.99L458.09,357.46L463.89,325.31L469.69,317.54L475.49,314.65L481.29,316.56L487.09,396.97L492.89,437.45L498.68,452.23L504.48,456.19L510.28,457.21L516.08,457.28L521.88,455.82L527.68,453.5L533.48,450.19L539.28,448.18L545.07,446.82L550.87,442.99L556.67,434.73L562.47,424.23L574.07,415.65L579.87,399.16L585.66,394.13L591.46,394.19L608.86,396.52L614.66,395.95L620.46,392.24L626.26,383.96L632.05,376.29L637.85,353.8L643.65,325.42L649.45,318.03L655.25,315.31L661.05,319.71L666.85,407.81L672.64,440.8L678.44,452.54L684.24,455.66L690.04,456.92L695.84,456.73L701.64,455.89L707.44,453.19L713.23,449.47L719.03,447.28L724.83,446.88L730.63,442.25L736.43,433.7L742.23,423.51L748.03,419.19L753.83,413L759.62,396.24L765.42,393.24L777.02,394.65L782.82,395.81L788.62,396.09L794.42,394.89L800.21,392.4L806.01,383.39L811.81,375.55L817.61,349.75L823.41,323.26L829.21,316.26L835.01,314.25L840.81,323.78L846.6,414.96L852.4,443.67L858.2,453.34L864,455.9" style="vector-effect: non-scaling-stroke; fill: none; stroke: rgb(31, 119, 180); stroke-opacity: 1; stroke-width: 2px; opacity: 1;"/><g class="points"/></g><g class="trace scatter trace8ced9b" style="stroke-miterlimit: 2; opacity: 1;"><path class="js-line" d="M0,446.28L5.8,450.86L11.6,450.76L17.4,449.83L23.19,444.63L28.99,437.99L34.79,434.1L40.59,415.42L46.39,385.41L52.19,369.06L57.99,356.09L63.79,333.82L69.58,306.16L75.38,283.89L81.18,279.6L98.58,286.72L104.38,277.09L110.17,224.66L115.97,185.49L121.77,152.01L127.57,124.06L133.37,314.54L139.17,376.55L144.97,390.45L150.77,394.06L156.56,405.4L162.36,424.8L168.16,439.54L173.96,444.8L185.56,451.39L191.36,451.49L197.15,446.72L202.95,436.35L208.75,415.92L214.55,403.44L220.35,385.49L226.15,372.97L231.95,363.32L237.74,349.06L249.34,297.69L255.14,278.71L260.94,278.74L266.74,281.44L278.34,286.19L284.13,262.76L289.93,212.77L295.73,176.51L301.53,144.38L307.33,176.18L313.13,339.98L318.93,384.14L324.72,390.68L330.52,399.16L336.32,411.22L342.12,431.55L347.92,442.15L353.72,446.29L359.52,450.29L365.32,450.79L371.11,450.59L376.91,444.03L382.71,430.96L388.51,409.77L400.11,378.67L405.91,369.7L411.7,356.95L417.5,336.2L429.1,282.23L434.9,270.84L440.7,272.86L446.5,275.99L452.3,278.49L458.09,277.76L481.29,127.04L487.09,234.31L492.89,354.91L498.68,388.87L504.48,392.55L510.28,403.76L516.08,417.39L521.88,434.06L527.68,443.18L533.48,446.35L539.28,450.52L545.07,450.76L550.87,449.05L556.67,444.04L562.47,437.29L568.27,432.25L574.07,412.77L579.87,384.88L585.66,366.21L591.46,354.46L597.26,331.8L603.06,301.86L608.86,280.7L614.66,277.03L632.05,284.15L637.85,275.03L643.65,225.7L649.45,183.76L655.25,154.92L661.05,121.98L666.85,308.29L672.64,375.99L678.44,391.84L684.24,394.77L690.04,406.62L695.84,423.54L701.64,438.81L707.44,445.27L719.03,451.55L724.83,451.39L730.63,448.04L736.43,442.62L748.03,432.14L753.83,403.2L759.62,374.37L765.42,363.04L771.22,349.59L777.02,326.27L782.82,297.4L788.62,279.88L794.42,279.52L800.21,281.99L806.01,284.84L811.81,286.44L817.61,259.51L823.41,213.05L835.01,142.99L840.81,170.53L846.6,336.35L852.4,382.88L858.2,391.68L864,397.07" style="vector-effect: non-scaling-stroke; fill: none; stroke: rgb(255, 127, 14); stroke-opacity: 1; stroke-width: 2px; opacity: 1;"/><g class="points"/></g><g class="trace scatter trace1c8ab5" style="stroke-miterlimit: 2; opacity: 1;"><path class="js-line" d="M0,334.61L5.8,326.84L11.6,325.19L17.4,298.02L23.19,294.44L28.99,283.79L34.79,270.97L40.59,272.55L46.39,318.02L52.19,306.87L57.99,291.61L63.79,289.75L69.58,289.81L75.38,291.31L81.18,294.68L86.98,300.41L92.78,309.48L98.58,311.3L104.38,299.98L110.17,263.81L115.97,217.48L121.77,202.08L127.57,274.3L133.37,340.31L139.17,355.81L144.97,355.71L150.77,344.86L156.56,338.43L162.36,335.02L168.16,331.93L173.96,324.52L179.76,312.33L185.56,305.93L191.36,302.96L197.15,297.76L202.95,300.47L208.75,288.81L214.55,265.5L220.35,278.44L226.15,316.9L231.95,306.51L237.74,292.62L243.54,291.87L249.34,291.92L255.14,290.31L260.94,294.59L266.74,301.24L272.54,310.61L278.34,312.52L284.13,296.59L289.93,253.15L295.73,214.1L301.53,206.66L307.33,296.07L313.13,352.91L318.93,363.19L324.72,362.37L330.52,350.64L336.32,347.59L342.12,344.95L347.92,343.4L359.52,326.48L365.32,323.39L376.91,318.06L382.71,293.36L388.51,282.56L394.31,257.94L400.11,295.4L405.91,316.41L417.5,292L423.3,292.76L434.9,289.12L440.7,293.86L446.5,300.71L452.3,309.99L458.09,311L463.89,292.85L475.49,210.66L481.29,202.61L487.09,302.67L492.89,349.28L498.68,356.21L504.48,357.44L510.28,347.6L516.08,344.29L521.88,341.55L527.68,341.65L533.48,337.73L539.28,330.11L545.07,326.6L550.87,318.4L556.67,291.9L562.47,287.75L568.27,280.97L574.07,255.17L579.87,309.71L585.66,321.11L591.46,302.37L597.26,290.28L603.06,292.19L608.86,288.89L614.66,288.58L620.46,294.41L626.26,301.6L632.05,310.6L637.85,309.52L643.65,289.08L649.45,244.45L655.25,206.03L661.05,205.53L666.85,312.69L672.64,348.87L678.44,364.55L684.24,360.25L690.04,352.74L695.84,350.87L701.64,347L707.44,346.12L713.23,342.18L719.03,330.07L724.83,326.87L730.63,314.11L736.43,291.87L742.23,287.62L748.03,278.85L753.83,250.27L759.62,316.89L765.42,319.03L771.22,300.14L777.02,289.24L782.82,290.58L794.42,291.06L800.21,296.93L806.01,305.42L811.81,311.11L817.61,308.85L823.41,284.6L835.01,202.47L840.81,212.25L846.6,322.2L852.4,353.5L858.2,360.84L864,354.76" style="vector-effect: non-scaling-stroke; fill: none; stroke: rgb(44, 160, 44); stroke-opacity: 1; stroke-width: 2px; opacity: 1;"/><g class="points"/></g></g></g><g class="overplot"/><path class="xlines-above crisp" transform="translate(80,100)" d="M-1,460.5H864" style="fill: none; stroke-width: 1px; stroke: rgb(0, 0, 0); stroke-opacity: 0;"/><path class="ylines-above crisp" transform="translate(80,100)" d="M-0.5,0V460" style="fill: none; stroke-width: 1px; stroke: rgb(0, 0, 0); stroke-opacity: 0;"/><g class="overlines-above"/><g class="xaxislayer-above" transform="translate(80,100)"><g class="xtick"><text text-anchor="middle" x="0" y="477" transform="translate(0,0)" style="font-family: 'Open Sans', verdana, arial, sans-serif; font-size: 16px; fill: rgb(68, 68, 68); fill-opacity: 1; white-space: pre;">0</text></g><g class="xtick"><text text-anchor="middle" x="0" y="477" transform="translate(172.8,0)" style="font-family: 'Open Sans', verdana, arial, sans-serif; font-size: 16px; fill: rgb(68, 68, 68); fill-opacity: 1; white-space: pre;">1</text></g><g class="xtick"><text text-anchor="middle" x="0" y="477" transform="translate(345.6,0)" style="font-family: 'Open Sans', verdana, arial, sans-serif; font-size: 16px; fill: rgb(68, 68, 68); fill-opacity: 1; white-space: pre;">2</text></g><g class="xtick"><text text-anchor="middle" x="0" y="477" transform="translate(518.4,0)" style="font-family: 'Open Sans', verdana, arial, sans-serif; font-size: 16px; fill: rgb(68, 68, 68); fill-opacity: 1; white-space: pre;">3</text></g><g class="xtick"><text text-anchor="middle" x="0" y="477" transform="translate(691.2,0)" style="font-family: 'Open Sans', verdana, arial, sans-serif; font-size: 16px; fill: rgb(68, 68, 68); fill-opacity: 1; white-space: pre;">4</text></g><g class="xtick"><text text-anchor="middle" x="0" y="477" transform="translate(864,0)" style="font-family: 'Open Sans', verdana, arial, sans-serif; font-size: 16px; fill: rgb(68, 68, 68); fill-opacity: 1; white-space: pre;">5</text></g></g><g class="yaxislayer-above" transform="translate(80,100)"><g class="ytick"><text text-anchor="end" x="-1" y="5.6" transform="translate(0,438.1)" style="font-family: 'Open Sans', verdana, arial, sans-serif; font-size: 16px; fill: rgb(68, 68, 68); fill-opacity: 1; white-space: pre;">0</text></g><g class="ytick"><text text-anchor="end" x="-1" y="5.6" transform="translate(0,350.48)" style="font-family: 'Open Sans', verdana, arial, sans-serif; font-size: 16px; fill: rgb(68, 68, 68); fill-opacity: 1; white-space: pre;">20</text></g><g class="ytick"><text text-anchor="end" x="-1" y="5.6" transform="translate(0,262.86)" style="font-family: 'Open Sans', verdana, arial, sans-serif; font-size: 16px; fill: rgb(68, 68, 68); fill-opacity: 1; white-space: pre;">40</text></g><g class="ytick"><text text-anchor="end" x="-1" y="5.6" transform="translate(0,175.24)" style="font-family: 'Open Sans', verdana, arial, sans-serif; font-size: 16px; fill: rgb(68, 68, 68); fill-opacity: 1; white-space: pre;">60</text></g><g class="ytick"><text text-anchor="end" x="-1" y="5.6" transform="translate(0,87.62)" style="font-family: 'Open Sans', verdana, arial, sans-serif; font-size: 16px; fill: rgb(68, 68, 68); fill-opacity: 1; white-space: pre;">80</text></g><g class="ytick"><text text-anchor="end" x="-1" y="5.6" transform="translate(0,0)" style="font-family: 'Open Sans', verdana, arial, sans-serif; font-size: 16px; fill: rgb(68, 68, 68); fill-opacity: 1; white-space: pre;">100</text></g></g><g class="overaxes-above"/></g></g><g class="ternarylayer"/><g class="geolayer"/><g class="layer-above"><g class="imagelayer"/><g class="shapelayer"/></g><g class="pielayer"/><g class="glimages"/><defs id="topdefs-9031ce"><g class="clips"/><clipPath id="legend9031ce"><rect width="229" height="82" x="0" y="0"/></clipPath></defs><g class="infolayer"><g class="g-gtitle"/><g class="legend" pointer-events="all" transform="translate(771.2, 100)"><rect class="bg" shape-rendering="crispEdges" width="229" height="82" x="0" y="0" style="stroke: rgb(68, 68, 68); stroke-opacity: 1; fill: rgb(255, 255, 255); fill-opacity: 1; stroke-width: 0px;"/><g class="scrollbox" transform="translate(0, 0)" clip-path="url(#legend9031ce)"><g class="groups"><g class="traces" transform="translate(0, 16.9)" style="opacity: 1;"><g class="layers" style="opacity: 1;"><g class="legendfill"/><g class="legendlines"><path class="js-line" d="M5,0h30" style="fill: none; stroke: rgb(31, 119, 180); stroke-opacity: 1; stroke-width: 2px;"/></g><g class="legendsymbols"><g class="legendpoints"/></g></g><text class="legendtext user-select-none" text-anchor="start" x="40" y="6.24" style="font-family: 'Open Sans', verdana, arial, sans-serif; font-size: 16px; fill: rgb(68, 68, 68); fill-opacity: 1; white-space: pre;">single layer</text><rect class="legendtoggle" pointer-events="all" x="0" y="-11.9" width="269" height="23.8" style="cursor: pointer; fill: rgb(0, 0, 0); fill-opacity: 0;"/></g><g class="traces" transform="translate(0, 40.7)" style="opacity: 1;"><g class="layers" style="opacity: 1;"><g class="legendfill"/><g class="legendlines"><path class="js-line" d="M5,0h30" style="fill: none; stroke: rgb(255, 127, 14); stroke-opacity: 1; stroke-width: 2px;"/></g><g class="legendsymbols"><g class="legendpoints"/></g></g><text class="legendtext user-select-none" text-anchor="start" x="40" y="6.24" style="font-family: 'Open Sans', verdana, arial, sans-serif; font-size: 16px; fill: rgb(68, 68, 68); fill-opacity: 1; white-space: pre;">stacked – in phase</text><rect class="legendtoggle" pointer-events="all" x="0" y="-11.9" width="269" height="23.8" style="cursor: pointer; fill: rgb(0, 0, 0); fill-opacity: 0;"/></g><g class="traces" transform="translate(0, 64.5)" style="opacity: 1;"><g class="layers" style="opacity: 1;"><g class="legendfill"/><g class="legendlines"><path class="js-line" d="M5,0h30" style="fill: none; stroke: rgb(44, 160, 44); stroke-opacity: 1; stroke-width: 2px;"/></g><g class="legendsymbols"><g class="legendpoints"/></g></g><text class="legendtext user-select-none" text-anchor="start" x="40" y="6.24" style="font-family: 'Open Sans', verdana, arial, sans-serif; font-size: 16px; fill: rgb(68, 68, 68); fill-opacity: 1; white-space: pre;">stacked – out of phase</text><rect class="legendtoggle" pointer-events="all" x="0" y="-11.9" width="269" height="23.8" style="cursor: pointer; fill: rgb(0, 0, 0); fill-opacity: 0;"/></g></g></g><rect class="scrollbar" rx="20" ry="2" width="0" height="0" style="fill: rgb(128, 139, 164); fill-opacity: 1;"/></g><g class="g-xtitle"><text class="xtitle" x="512" y="627" text-anchor="middle" style="font-family: 'Open Sans', verdana, arial, sans-serif; font-size: 19px; fill: rgb(68, 68, 68); opacity: 1; font-weight: normal; white-space: pre;">Time (s)</text></g><g class="g-ytitle"><text class="ytitle" transform="rotate(-90,32,330) translate(0, 0)" x="32" y="330" text-anchor="middle" style="font-family: 'Open Sans', verdana, arial, sans-serif; font-size: 19px; fill: rgb(68, 68, 68); opacity: 1; font-weight: normal; white-space: pre;">Force (mN)</text></g></g></svg>